<svg width="133" height="28" viewBox="0 0 133 28" fill="none" xmlns="http://www.w3.org/2000/svg">
<path fill-rule="evenodd" clip-rule="evenodd" d="M14 9H0.0999756L4.09998 13.2V19L14 9ZM5.99998 21H19.9L15.9 16.8V11L5.99998 21Z" fill="url(#paint0_radial)"/>
<path d="M25.1368 4.76H28.408V21H25.1368V4.76Z" fill="#000"/>
<path d="M32.3348 4.1104C32.8761 4.1104 33.3247 4.28826 33.6804 4.644C34.0361 4.98426 34.214 5.41733 34.214 5.9432C34.214 6.46906 34.0361 6.90986 33.6804 7.2656C33.3247 7.62133 32.8761 7.7992 32.3348 7.7992C31.7935 7.7992 31.3372 7.62133 30.966 7.2656C30.6103 6.90986 30.4324 6.46906 30.4324 5.9432C30.4324 5.41733 30.6103 4.98426 30.966 4.644C31.3372 4.28826 31.7935 4.1104 32.3348 4.1104ZM30.6876 9.0752H33.9588V21H30.6876V9.0752Z" fill="#000"/>
<path d="M35.0784 9.0752H38.5816L41.4584 17.6592L44.2888 9.0752H47.7224L43.4304 21H39.3704L35.0784 9.0752Z" fill="#000"/>
<path d="M47.8955 15.0608C47.8955 13.8235 48.1429 12.7485 48.6379 11.836C49.1483 10.908 49.852 10.1965 50.7491 9.7016C51.6616 9.1912 52.7133 8.936 53.9043 8.936C55.1107 8.936 56.1701 9.17573 57.0827 9.6552C58.0107 10.1192 58.7299 10.7843 59.2403 11.6504C59.7661 12.5011 60.0368 13.5064 60.0523 14.6664C60.0523 15.084 60.0213 15.4552 59.9595 15.78H51.3059V15.8728C51.3832 16.7389 51.6616 17.4195 52.1411 17.9144C52.6205 18.4093 53.2779 18.6568 54.1131 18.6568C54.7781 18.6568 55.3272 18.5176 55.7603 18.2392C56.2088 17.9453 56.5027 17.52 56.6419 16.9632H59.8667C59.7429 17.752 59.4413 18.4635 58.9619 19.0976C58.4824 19.7317 57.8483 20.2344 57.0595 20.6056C56.2707 20.9613 55.3659 21.1392 54.3451 21.1392C53.0149 21.1392 51.8627 20.8917 50.8883 20.3968C49.9293 19.9019 49.1869 19.1981 48.6611 18.2856C48.1507 17.3576 47.8955 16.2827 47.8955 15.0608ZM56.7811 13.6456C56.6728 12.9187 56.3712 12.3619 55.8763 11.9752C55.3968 11.5731 54.7859 11.372 54.0435 11.372C53.332 11.372 52.7288 11.5808 52.2339 11.9984C51.7544 12.4005 51.4683 12.9496 51.3755 13.6456H56.7811Z" fill="#000"/>
<path d="M68.7071 8.936C69.7743 8.936 70.7255 9.18346 71.5607 9.6784C72.3959 10.1579 73.0455 10.8616 73.5095 11.7896C73.989 12.7021 74.2287 13.7771 74.2287 15.0144C74.2287 16.2208 73.989 17.288 73.5095 18.216C73.0455 19.144 72.3959 19.8632 71.5607 20.3736C70.7255 20.884 69.7821 21.1392 68.7303 21.1392C67.8951 21.1392 67.1682 20.9845 66.5495 20.6752C65.9309 20.3504 65.4205 19.9173 65.0183 19.376L64.6935 21H61.8399V4.76H65.1111V10.5832C66.0237 9.48506 67.2223 8.936 68.7071 8.936ZM67.9647 18.4712C68.8463 18.4712 69.5578 18.1541 70.0991 17.52C70.6405 16.8859 70.9111 16.0584 70.9111 15.0376C70.9111 14.0168 70.6405 13.1893 70.0991 12.5552C69.5578 11.9211 68.8463 11.604 67.9647 11.604C67.0831 11.604 66.3794 11.9211 65.8535 12.5552C65.3277 13.1739 65.0647 13.9936 65.0647 15.0144C65.0647 16.0507 65.3277 16.8859 65.8535 17.52C66.3794 18.1541 67.0831 18.4712 67.9647 18.4712Z" fill="#000"/>
<path d="M76.0454 4.76H79.3166V21H76.0454V4.76Z" fill="#000"/>
<path d="M87.4194 21.1392C86.1666 21.1392 85.0607 20.8917 84.1018 20.3968C83.1583 19.8864 82.4237 19.1672 81.8978 18.2392C81.3874 17.3112 81.1322 16.244 81.1322 15.0376C81.1322 13.8312 81.3874 12.764 81.8978 11.836C82.4237 10.908 83.1583 10.1965 84.1018 9.7016C85.0607 9.1912 86.1666 8.936 87.4194 8.936C88.6722 8.936 89.7703 9.1912 90.7138 9.7016C91.6727 10.1965 92.4074 10.908 92.9178 11.836C93.4436 12.764 93.7066 13.8312 93.7066 15.0376C93.7066 16.2595 93.4436 17.3344 92.9178 18.2624C92.4074 19.1749 91.6727 19.8864 90.7138 20.3968C89.7703 20.8917 88.6722 21.1392 87.4194 21.1392ZM87.4194 18.4712C88.3319 18.4712 89.0511 18.1541 89.577 17.52C90.1183 16.8859 90.389 16.0584 90.389 15.0376C90.389 14.0168 90.1183 13.1893 89.577 12.5552C89.0511 11.9211 88.3319 11.604 87.4194 11.604C86.5223 11.604 85.8031 11.9211 85.2618 12.5552C84.7359 13.1893 84.473 14.0168 84.473 15.0376C84.473 16.0584 84.7359 16.8859 85.2618 17.52C85.8031 18.1541 86.5223 18.4712 87.4194 18.4712Z" fill="#000"/>
<path d="M106.968 16.476C106.751 17.9299 106.133 19.0744 105.112 19.9096C104.107 20.7293 102.8 21.1392 101.191 21.1392C99.9538 21.1392 98.8711 20.8917 97.9431 20.3968C97.0151 19.8864 96.2959 19.1672 95.7855 18.2392C95.2906 17.3112 95.0431 16.244 95.0431 15.0376C95.0431 13.8157 95.2906 12.7485 95.7855 11.836C96.2959 10.908 97.0151 10.1965 97.9431 9.7016C98.8866 9.1912 99.977 8.936 101.214 8.936C102.807 8.936 104.107 9.34587 105.112 10.1656C106.117 10.9699 106.736 12.0912 106.968 13.5296H103.581C103.442 12.9419 103.163 12.4779 102.746 12.1376C102.328 11.7819 101.81 11.604 101.191 11.604C100.34 11.604 99.6599 11.9211 99.1495 12.5552C98.6391 13.1893 98.3839 14.0168 98.3839 15.0376C98.3839 16.0584 98.6391 16.8859 99.1495 17.52C99.6599 18.1541 100.34 18.4712 101.191 18.4712C101.825 18.4712 102.351 18.2933 102.769 17.9376C103.202 17.5819 103.48 17.0947 103.604 16.476H106.968Z" fill="#000"/>
<path d="M108.738 4.76H112.01V14.156L116.696 9.0752H120.362L116.116 13.7384L120.594 21H116.812L113.796 16.1744L112.01 18.1V21H108.738V4.76Z" fill="#000"/>
<path d="M123.845 17.0328C123.891 17.5587 124.146 17.984 124.61 18.3088C125.074 18.6336 125.67 18.796 126.397 18.796C127.093 18.796 127.642 18.6877 128.044 18.4712C128.446 18.2392 128.647 17.9144 128.647 17.4968C128.647 17.1875 128.554 16.9555 128.369 16.8008C128.183 16.6461 127.92 16.5379 127.58 16.476C127.24 16.3987 126.683 16.3136 125.909 16.2208C124.858 16.0816 123.984 15.9037 123.288 15.6872C122.592 15.4707 122.035 15.1304 121.617 14.6664C121.2 14.2024 120.991 13.5837 120.991 12.8104C120.991 12.0371 121.2 11.3565 121.617 10.7688C122.051 10.1656 122.654 9.7016 123.427 9.3768C124.2 9.052 125.09 8.8896 126.095 8.8896C127.719 8.90506 129.026 9.25306 130.016 9.9336C131.021 10.6141 131.563 11.5576 131.64 12.764H128.531C128.485 12.3155 128.245 11.952 127.812 11.6736C127.394 11.3797 126.853 11.2328 126.188 11.2328C125.569 11.2328 125.067 11.3488 124.68 11.5808C124.309 11.8128 124.123 12.1221 124.123 12.5088C124.123 12.7872 124.224 12.996 124.425 13.1352C124.626 13.2744 124.889 13.3749 125.213 13.4368C125.538 13.4987 126.08 13.5683 126.837 13.6456C128.446 13.8312 129.676 14.1792 130.526 14.6896C131.392 15.1845 131.825 16.0429 131.825 17.2648C131.825 18.0381 131.593 18.7187 131.129 19.3064C130.681 19.8941 130.047 20.3504 129.227 20.6752C128.423 20.9845 127.487 21.1392 126.42 21.1392C124.765 21.1392 123.419 20.7757 122.383 20.0488C121.347 19.3064 120.798 18.3011 120.736 17.0328H123.845Z" fill="#000"/>
<defs>
<radialGradient id="paint0_radial" cx="0" cy="0" r="1" gradientUnits="userSpaceOnUse" gradientTransform="translate(-2.79759 6) rotate(31.5477) scale(24.8467 19.2913)">
<stop stop-color="#FF0099"/>
<stop offset="1" stop-color="#FF7A00"/>
</radialGradient>
</defs>
</svg>
