<svg width="94" height="92" viewBox="0 0 94 92" fill="none" xmlns="http://www.w3.org/2000/svg">
<g filter="url(#filter0_i_69_113)">
<path fill-rule="evenodd" clip-rule="evenodd" d="M47 0C21.0325 0 0 21.1057 0 47.1635C0 68.0334 13.4537 85.6607 32.1362 91.9099C34.4862 92.3226 35.3675 90.9077 35.3675 89.6696C35.3675 88.5495 35.3088 84.8354 35.3088 80.8854C23.5 83.0667 20.445 77.9967 19.505 75.3437C18.9762 73.9878 16.685 69.802 14.6875 68.6819C13.0425 67.7976 10.6925 65.6162 14.6287 65.5573C18.33 65.4983 20.9738 68.9766 21.855 70.3915C26.085 77.525 32.8413 75.5206 35.5438 74.2825C35.955 71.2169 37.1888 69.1535 38.54 67.9744C28.0825 66.7953 17.155 62.7275 17.155 44.6874C17.155 39.5584 18.9763 35.3137 21.9725 32.0122C21.5025 30.8331 19.8575 25.9989 22.4425 19.5139C22.4425 19.5139 26.3788 18.2759 35.3675 24.3482C39.1275 23.287 43.1225 22.7564 47.1175 22.7564C51.1125 22.7564 55.1075 23.287 58.8675 24.3482C67.8563 18.2169 71.7925 19.5139 71.7925 19.5139C74.3775 25.9989 72.7325 30.8331 72.2625 32.0122C75.2588 35.3137 77.08 39.4994 77.08 44.6874C77.08 62.7864 66.0938 66.7953 55.6363 67.9744C57.34 69.4483 58.8088 72.2781 58.8088 76.6997C58.8088 83.0078 58.75 88.0779 58.75 89.6696C58.75 90.9077 59.6313 92.3815 61.9813 91.9099C80.5462 85.6607 94 67.9744 94 47.1635C94 21.1057 72.9675 0 47 0Z" fill="url(#paint0_radial_69_113)"/>
</g>
<defs>
<filter id="filter0_i_69_113" x="0" y="0" width="94" height="96" filterUnits="userSpaceOnUse" color-interpolation-filters="sRGB">
<feFlood flood-opacity="0" result="BackgroundImageFix"/>
<feBlend mode="normal" in="SourceGraphic" in2="BackgroundImageFix" result="shape"/>
<feColorMatrix in="SourceAlpha" type="matrix" values="0 0 0 0 0 0 0 0 0 0 0 0 0 0 0 0 0 0 127 0" result="hardAlpha"/>
<feOffset dy="4"/>
<feGaussianBlur stdDeviation="6"/>
<feComposite in2="hardAlpha" operator="arithmetic" k2="-1" k3="1"/>
<feColorMatrix type="matrix" values="0 0 0 0 1 0 0 0 0 1 0 0 0 0 1 0 0 0 0.25 0"/>
<feBlend mode="normal" in2="shape" result="effect1_innerShadow_69_113"/>
</filter>
<radialGradient id="paint0_radial_69_113" cx="0" cy="0" r="1" gradientUnits="userSpaceOnUse" gradientTransform="translate(-13.7561 -23) rotate(44.7543) scale(141.558 123.243)">
<stop stop-color="#FF1AA3"/>
<stop offset="1" stop-color="#FF881A"/>
</radialGradient>
</defs>
</svg>
