<svg width="92" height="92" viewBox="0 0 92 92" fill="none" xmlns="http://www.w3.org/2000/svg">
<g filter="url(#filter0_i_69_135)">
<path fill-rule="evenodd" clip-rule="evenodd" d="M92 46C92 71.4051 71.4051 92 46 92C20.5949 92 0 71.4051 0 46C0 20.5949 20.5949 0 46 0C71.4051 0 92 20.5949 92 46ZM30.4 30.4C30.4 29.0209 30.9479 27.6982 31.923 26.723C32.8982 25.7479 34.2209 25.2 35.6 25.2H47.5236C48.9026 25.2003 50.225 25.7483 51.2 26.7236L60.0764 35.6C61.0517 36.575 61.5997 37.8974 61.6 39.2764V61.6C61.6 62.9791 61.0521 64.3018 60.077 65.277C59.1018 66.2521 57.7791 66.8 56.4 66.8H52.4272C55.0839 63.828 56.5021 59.9517 56.3906 55.9669C56.279 51.9821 54.6463 48.1912 51.8275 45.3725C49.0088 42.5537 45.2179 40.921 41.2331 40.8094C37.2483 40.6979 33.372 42.1161 30.4 44.7728V30.4ZM35.5786 47.4048C37.1648 46.4844 38.9661 45.9997 40.8 46C42.3991 46.0004 43.9765 46.3695 45.4097 47.0787C46.8429 47.7878 48.0933 48.8179 49.0637 50.0889C50.0341 51.3599 50.6983 52.8375 51.0047 54.407C51.3112 55.9764 51.2516 57.5954 50.8306 59.138C50.4096 60.6807 49.6385 62.1055 48.5774 63.3017C47.5162 64.4979 46.1935 65.4333 44.712 66.0352C43.2305 66.6371 41.6302 66.8892 40.0354 66.772C38.4407 66.6549 36.8944 66.1715 35.5168 65.3596L32.2382 68.6382C31.9966 68.8796 31.7099 69.0711 31.3943 69.2016C31.0788 69.3322 30.7406 69.3993 30.3991 69.3992C30.0576 69.3991 29.7194 69.3317 29.404 69.2009C29.0885 69.0701 28.8019 68.8785 28.5605 68.6369C28.3191 68.3953 28.1277 68.1086 27.9971 67.793C27.8665 67.4775 27.7994 67.1393 27.7995 66.7978C27.7996 66.4563 27.867 66.1181 27.9978 65.8027C28.1286 65.4872 28.3202 65.2006 28.5618 64.9592L31.8404 61.6832C30.9088 60.1036 30.4114 58.3057 30.3988 56.4719C30.3861 54.638 30.8585 52.8335 31.7682 51.2411C32.6779 49.6488 33.9925 48.3253 35.5786 47.4048ZM37.123 52.723C36.1479 53.6982 35.6 55.0209 35.6 56.4C35.6 57.7791 36.1479 59.1018 37.123 60.077C38.0982 61.0521 39.4209 61.6 40.8 61.6C42.1791 61.6 43.5018 61.0521 44.477 60.077C45.4521 59.1018 46 57.7791 46 56.4C46 55.0209 45.4521 53.6982 44.477 52.723C43.5018 51.7479 42.1791 51.2 40.8 51.2C39.4209 51.2 38.0982 51.7479 37.123 52.723Z" fill="url(#paint0_radial_69_135)"/>
</g>
<defs>
<filter id="filter0_i_69_135" x="0" y="0" width="92" height="96" filterUnits="userSpaceOnUse" color-interpolation-filters="sRGB">
<feFlood flood-opacity="0" result="BackgroundImageFix"/>
<feBlend mode="normal" in="SourceGraphic" in2="BackgroundImageFix" result="shape"/>
<feColorMatrix in="SourceAlpha" type="matrix" values="0 0 0 0 0 0 0 0 0 0 0 0 0 0 0 0 0 0 127 0" result="hardAlpha"/>
<feOffset dy="4"/>
<feGaussianBlur stdDeviation="6"/>
<feComposite in2="hardAlpha" operator="arithmetic" k2="-1" k3="1"/>
<feColorMatrix type="matrix" values="0 0 0 0 1 0 0 0 0 1 0 0 0 0 1 0 0 0 0.25 0"/>
<feBlend mode="normal" in2="shape" result="effect1_innerShadow_69_135"/>
</filter>
<radialGradient id="paint0_radial_69_135" cx="0" cy="0" r="1" gradientUnits="userSpaceOnUse" gradientTransform="translate(-13.4634 -23) rotate(45.3703) scale(140.048 121.922)">
<stop stop-color="#FF1AA3"/>
<stop offset="1" stop-color="#FF881A"/>
</radialGradient>
</defs>
</svg>
