<svg width="200" height="42" viewBox="0 0 200 42" fill="none" xmlns="http://www.w3.org/2000/svg">
<path fill-rule="evenodd" clip-rule="evenodd" d="M20.9994 13.5H0.149414L6.14941 19.8V28.5L20.9994 13.5ZM8.99986 31.5H29.8499L23.8499 25.2V16.5L8.99986 31.5Z" fill="url(#paint0_radial_78_210)"/>
<path d="M37.7051 7.13999H42.6119V31.5H37.7051V7.13999Z" fill="black"/>
<path d="M48.5021 6.16559C49.3141 6.16559 49.9869 6.43239 50.5205 6.96599C51.0541 7.47639 51.3209 8.12599 51.3209 8.91479C51.3209 9.70359 51.0541 10.3648 50.5205 10.8984C49.9869 11.432 49.3141 11.6988 48.5021 11.6988C47.6901 11.6988 47.0057 11.432 46.4489 10.8984C45.9153 10.3648 45.6485 9.70359 45.6485 8.91479C45.6485 8.12599 45.9153 7.47639 46.4489 6.96599C47.0057 6.43239 47.6901 6.16559 48.5021 6.16559ZM46.0313 13.6128H50.9381V31.5H46.0313V13.6128Z" fill="black"/>
<path d="M52.6174 13.6128H57.8722L62.1874 26.4888L66.433 13.6128H71.5834L65.1454 31.5H59.0554L52.6174 13.6128Z" fill="black"/>
<path d="M71.8431 22.5912C71.8431 20.7352 72.2143 19.1228 72.9567 17.754C73.7223 16.362 74.7779 15.2948 76.1235 14.5524C77.4923 13.7868 79.0699 13.404 80.8563 13.404C82.6659 13.404 84.2551 13.7636 85.6239 14.4828C87.0159 15.1788 88.0947 16.1764 88.8603 17.4756C89.6491 18.7516 90.0551 20.2596 90.0783 21.9996C90.0783 22.626 90.0319 23.1828 89.9391 23.67H76.9587V23.8092C77.0747 25.1084 77.4923 26.1292 78.2115 26.8716C78.9307 27.614 79.9167 27.9852 81.1695 27.9852C82.1671 27.9852 82.9907 27.7764 83.6403 27.3588C84.3131 26.918 84.7539 26.28 84.9627 25.4448H89.7999C89.6143 26.628 89.1619 27.6952 88.4427 28.6464C87.7235 29.5976 86.7723 30.3516 85.5891 30.9084C84.4059 31.442 83.0487 31.7088 81.5175 31.7088C79.5223 31.7088 77.7939 31.3376 76.3323 30.5952C74.8939 29.8528 73.7803 28.7972 72.9915 27.4284C72.2259 26.0364 71.8431 24.424 71.8431 22.5912ZM85.1715 20.4684C85.0091 19.378 84.5567 18.5428 83.8143 17.9628C83.0951 17.3596 82.1787 17.058 81.0651 17.058C79.9979 17.058 79.0931 17.3712 78.3507 17.9976C77.6315 18.6008 77.2023 19.4244 77.0631 20.4684H85.1715Z" fill="black"/>
<path d="M103.061 13.404C104.661 13.404 106.088 13.7752 107.341 14.5176C108.594 15.2368 109.568 16.2924 110.264 17.6844C110.983 19.0532 111.343 20.6656 111.343 22.5216C111.343 24.3312 110.983 25.932 110.264 27.324C109.568 28.716 108.594 29.7948 107.341 30.5604C106.088 31.326 104.673 31.7088 103.095 31.7088C101.843 31.7088 100.752 31.4768 99.8242 31.0128C98.8962 30.5256 98.1306 29.876 97.5274 29.064L97.0402 31.5H92.7598V7.13999H97.6666V15.8748C99.0354 14.2276 100.833 13.404 103.061 13.404ZM101.947 27.7068C103.269 27.7068 104.337 27.2312 105.149 26.28C105.961 25.3288 106.367 24.0876 106.367 22.5564C106.367 21.0252 105.961 19.784 105.149 18.8328C104.337 17.8816 103.269 17.406 101.947 17.406C100.625 17.406 99.569 17.8816 98.7802 18.8328C97.9914 19.7608 97.597 20.9904 97.597 22.5216C97.597 24.076 97.9914 25.3288 98.7802 26.28C99.569 27.2312 100.625 27.7068 101.947 27.7068Z" fill="black"/>
<path d="M114.068 7.13999H118.975V31.5H114.068V7.13999Z" fill="black"/>
<path d="M131.129 31.7088C129.25 31.7088 127.591 31.3376 126.153 30.5952C124.737 29.8296 123.635 28.7508 122.847 27.3588C122.081 25.9668 121.698 24.366 121.698 22.5564C121.698 20.7468 122.081 19.146 122.847 17.754C123.635 16.362 124.737 15.2948 126.153 14.5524C127.591 13.7868 129.25 13.404 131.129 13.404C133.008 13.404 134.655 13.7868 136.071 14.5524C137.509 15.2948 138.611 16.362 139.377 17.754C140.165 19.146 140.56 20.7468 140.56 22.5564C140.56 24.3892 140.165 26.0016 139.377 27.3936C138.611 28.7624 137.509 29.8296 136.071 30.5952C134.655 31.3376 133.008 31.7088 131.129 31.7088ZM131.129 27.7068C132.498 27.7068 133.577 27.2312 134.365 26.28C135.177 25.3288 135.583 24.0876 135.583 22.5564C135.583 21.0252 135.177 19.784 134.365 18.8328C133.577 17.8816 132.498 17.406 131.129 17.406C129.783 17.406 128.705 17.8816 127.893 18.8328C127.104 19.784 126.709 21.0252 126.709 22.5564C126.709 24.0876 127.104 25.3288 127.893 26.28C128.705 27.2312 129.783 27.7068 131.129 27.7068Z" fill="black"/>
<path d="M160.452 24.714C160.127 26.8948 159.199 28.6116 157.668 29.8644C156.16 31.094 154.199 31.7088 151.787 31.7088C149.931 31.7088 148.307 31.3376 146.915 30.5952C145.523 29.8296 144.444 28.7508 143.678 27.3588C142.936 25.9668 142.565 24.366 142.565 22.5564C142.565 20.7236 142.936 19.1228 143.678 17.754C144.444 16.362 145.523 15.2948 146.915 14.5524C148.33 13.7868 149.965 13.404 151.821 13.404C154.211 13.404 156.16 14.0188 157.668 15.2484C159.176 16.4548 160.104 18.1368 160.452 20.2944H155.371C155.162 19.4128 154.745 18.7168 154.118 18.2064C153.492 17.6728 152.715 17.406 151.787 17.406C150.511 17.406 149.49 17.8816 148.724 18.8328C147.959 19.784 147.576 21.0252 147.576 22.5564C147.576 24.0876 147.959 25.3288 148.724 26.28C149.49 27.2312 150.511 27.7068 151.787 27.7068C152.738 27.7068 153.527 27.44 154.153 26.9064C154.803 26.3728 155.22 25.642 155.406 24.714H160.452Z" fill="black"/>
<path d="M163.107 7.13999H168.014V21.234L175.044 13.6128H180.542L174.174 20.6076L180.89 31.5H175.218L170.694 24.2616L168.014 27.15V31.5H163.107V7.13999Z" fill="black"/>
<path d="M185.767 25.5492C185.836 26.338 186.219 26.976 186.915 27.4632C187.611 27.9504 188.504 28.194 189.595 28.194C190.639 28.194 191.462 28.0316 192.066 27.7068C192.669 27.3588 192.97 26.8716 192.97 26.2452C192.97 25.7812 192.831 25.4332 192.553 25.2012C192.274 24.9692 191.88 24.8068 191.37 24.714C190.859 24.598 190.024 24.4704 188.864 24.3312C187.286 24.1224 185.976 23.8556 184.932 23.5308C183.888 23.206 183.052 22.6956 182.426 21.9996C181.8 21.3036 181.486 20.3756 181.486 19.2156C181.486 18.0556 181.8 17.0348 182.426 16.1532C183.076 15.2484 183.98 14.5524 185.14 14.0652C186.3 13.578 187.634 13.3344 189.142 13.3344C191.578 13.3576 193.539 13.8796 195.024 14.9004C196.532 15.9212 197.344 17.3364 197.46 19.146H192.796C192.727 18.4732 192.367 17.928 191.718 17.5104C191.091 17.0696 190.279 16.8492 189.282 16.8492C188.354 16.8492 187.6 17.0232 187.02 17.3712C186.463 17.7192 186.184 18.1832 186.184 18.7632C186.184 19.1808 186.335 19.494 186.637 19.7028C186.938 19.9116 187.333 20.0624 187.82 20.1552C188.307 20.248 189.119 20.3524 190.256 20.4684C192.669 20.7468 194.513 21.2688 195.789 22.0344C197.088 22.7768 197.738 24.0644 197.738 25.8972C197.738 27.0572 197.39 28.078 196.694 28.9596C196.021 29.8412 195.07 30.5256 193.84 31.0128C192.634 31.4768 191.23 31.7088 189.63 31.7088C187.147 31.7088 185.129 31.1636 183.574 30.0732C182.02 28.9596 181.196 27.4516 181.104 25.5492H185.767Z" fill="black"/>
<defs>
<radialGradient id="paint0_radial_78_210" cx="0" cy="0" r="1" gradientUnits="userSpaceOnUse" gradientTransform="translate(-4.197 9.00001) rotate(31.5473) scale(37.2704 28.937)">
<stop stop-color="#FF0099"/>
<stop offset="1" stop-color="#FF7A00"/>
</radialGradient>
</defs>
</svg>
