<svg width="16" height="16" viewBox="0 0 16 16" fill="none" xmlns="http://www.w3.org/2000/svg">
<path d="M4.24475 8C4.24475 10.0707 5.92925 11.7552 8 11.7552C10.0707 11.7552 11.7552 10.0707 11.7552 8C11.7552 5.92925 10.0707 4.24475 8 4.24475C5.92925 4.24475 4.24475 5.92925 4.24475 8ZM8 5.74475C9.2435 5.74475 10.2552 6.7565 10.2552 8C10.2552 9.2435 9.2435 10.2552 8 10.2552C6.7565 10.2552 5.74475 9.2435 5.74475 8C5.74475 6.7565 6.7565 5.74475 8 5.74475ZM7.2485 13.25H8.7485V15.5H7.2485V13.25ZM7.2485 0.5H8.7485V2.75H7.2485V0.5ZM0.498497 7.25H2.7485V8.75H0.498497V7.25ZM13.2485 7.25H15.4985V8.75H13.2485V7.25ZM2.16425 12.7722L3.75425 11.1807L4.8155 12.2413L3.2255 13.8327L2.16425 12.7722ZM11.18 3.758L12.7715 2.1665L13.832 3.227L12.2405 4.8185L11.18 3.758ZM3.7565 4.81925L2.165 3.22775L3.22625 2.16725L4.81625 3.75875L3.7565 4.81925ZM13.832 12.773L12.7715 13.8335L11.18 12.242L12.2405 11.1815L13.832 12.773Z" fill="currentColor"/>
</svg>
