<svg width="16" height="16" viewBox="0 0 16 16" fill="none" xmlns="http://www.w3.org/2000/svg">
<path d="M14.5565 8.78375C14.0483 8.91874 13.5246 8.98706 12.9988 8.987C11.3975 8.987 9.89375 8.3645 8.76425 7.235C8.02254 6.48901 7.4893 5.56165 7.21769 4.54535C6.94608 3.52905 6.94559 2.45931 7.21625 1.44275C7.25006 1.31565 7.24984 1.1819 7.21563 1.05491C7.18142 0.927914 7.11442 0.812151 7.02134 0.719229C6.92827 0.626307 6.8124 0.559494 6.68535 0.525492C6.5583 0.491489 6.42455 0.491493 6.2975 0.525502C5.02487 0.86464 3.8638 1.53247 2.93075 2.462C0.00725371 5.3855 0.00725371 10.1443 2.93075 13.0693C3.62565 13.768 4.45223 14.322 5.36266 14.6992C6.27309 15.0764 7.24928 15.2693 8.23475 15.2668C9.21996 15.2695 10.1959 15.0768 11.1061 14.6997C12.0163 14.3226 12.8426 13.7687 13.5373 13.07C14.4675 12.1368 15.1356 10.9751 15.4745 9.70175C15.5082 9.57471 15.5079 9.44105 15.4737 9.31414C15.4395 9.18724 15.3726 9.07153 15.2797 8.9786C15.1867 8.88566 15.071 8.81875 14.9441 8.78456C14.8172 8.75037 14.6835 8.75009 14.5565 8.78375V8.78375ZM12.4775 12.0095C11.9217 12.5683 11.2606 13.0114 10.5325 13.313C9.80437 13.6146 9.02364 13.7689 8.2355 13.7668C7.4471 13.7687 6.66612 13.6144 5.93775 13.3126C5.20937 13.0108 4.54804 12.5677 3.992 12.0088C1.6535 9.6695 1.6535 5.8625 3.992 3.52325C4.44388 3.07188 4.96558 2.69631 5.537 2.411C5.45336 3.4903 5.60372 4.57493 5.9778 5.59077C6.35188 6.60661 6.94086 7.52972 7.7045 8.297C8.4701 9.06303 9.39294 9.65365 10.4092 10.028C11.4255 10.4024 12.5109 10.5516 13.5905 10.4653C13.3036 11.0357 12.928 11.557 12.4775 12.0095V12.0095Z" fill="currentColor"/>
</svg>
