<svg width="16" height="16" viewBox="0 0 16 16" fill="none" xmlns="http://www.w3.org/2000/svg">
<path d="M13.3333 7.33333H8C5.33333 7.33333 5.33333 6.12266 5.33333 5.66666C5.33333 5.25466 5.33333 4 8 4C9.86667 4 9.99333 5.11866 10 5.34266L10.6667 5.33333H11.3333C11.3333 4.41066 10.6367 2.66666 8 2.66666C4.38933 2.66666 4 4.76466 4 5.66666C4 6.152 4.09867 6.778 4.49067 7.33333H2.66667V8.66666H13.3333V7.33333ZM8 12C5.47133 12 5.34 10.79 5.33333 10.6667H4C4 10.6933 4.046 13.3333 8 13.3333C11.4807 13.3333 12 11.454 12 10.3333C12 10.236 11.994 10.122 11.9813 10H10.644C10.6653 10.1333 10.6667 10.2507 10.6667 10.3333C10.6667 10.7893 10.6667 12 8 12Z" fill="currentColor"/>
</svg>
