<svg width="335" height="71" viewBox="0 0 335 71" fill="none" xmlns="http://www.w3.org/2000/svg">
<path fill-rule="evenodd" clip-rule="evenodd" d="M35.2632 22.8214H0.251831L10.327 33.4714V48.1786L35.2632 22.8214ZM15.1127 53.25H50.1241L40.0489 42.6V27.8928L15.1127 53.25Z" fill="url(#paint0_radial_3_22)"/>
<path d="M63.3145 12.07H71.5539V53.25H63.3145V12.07ZM81.4448 10.4228C82.8082 10.4228 83.9379 10.8738 84.834 11.7758C85.73 12.6387 86.1781 13.7368 86.1781 15.0702C86.1781 16.4037 85.73 17.5214 84.834 18.4235C83.9379 19.3255 82.8082 19.7765 81.4448 19.7765C80.0811 19.7765 78.932 19.3255 77.997 18.4235C77.1008 17.5214 76.653 16.4037 76.653 15.0702C76.653 13.7368 77.1008 12.6387 77.997 11.7758C78.932 10.8738 80.0811 10.4228 81.4448 10.4228ZM77.2958 23.0121H85.5353V53.25H77.2958V23.0121ZM88.3553 23.0121H97.1792L104.425 44.7787L111.554 23.0121H120.203L109.392 53.25H99.166L88.3553 23.0121ZM120.639 38.1899C120.639 35.0524 121.262 32.3265 122.509 30.0127C123.795 27.6596 125.567 25.8554 127.827 24.6005C130.125 23.3062 132.774 22.6591 135.774 22.6591C138.813 22.6591 141.481 23.267 143.78 24.4828C146.117 25.6594 147.929 27.3459 149.214 29.5421C150.539 31.6992 151.22 34.2484 151.259 37.1898C151.259 38.2487 151.181 39.19 151.026 40.0136H129.229V40.2489C129.424 42.4451 130.125 44.1709 131.333 45.4258C132.54 46.6807 134.196 47.3083 136.3 47.3083C137.975 47.3083 139.358 46.9553 140.449 46.2494C141.579 45.5041 142.319 44.4257 142.669 43.0138H150.792C150.48 45.014 149.721 46.8181 148.513 48.426C147.305 50.0339 145.708 51.3086 143.721 52.2499C141.734 53.1519 139.455 53.603 136.884 53.603C133.534 53.603 130.632 52.9754 128.177 51.7204C125.762 50.4655 123.892 48.6809 122.567 46.367C121.282 44.0139 120.639 41.2883 120.639 38.1899ZM143.02 34.6013C142.747 32.7581 141.988 31.3462 140.741 30.3657C139.533 29.3461 137.995 28.8361 136.125 28.8361C134.332 28.8361 132.813 29.3656 131.567 30.4245C130.359 31.4441 129.638 32.8365 129.404 34.6013H143.02ZM173.059 22.6591C175.747 22.6591 178.143 23.2866 180.247 24.5416C182.351 25.7575 183.987 27.5419 185.155 29.895C186.363 32.2089 186.967 34.9348 186.967 38.0722C186.967 41.1313 186.363 43.8374 185.155 46.1906C183.987 48.5437 182.351 50.3674 180.247 51.6616C178.143 52.9558 175.767 53.603 173.118 53.603C171.014 53.603 169.183 53.2107 167.625 52.4264C166.066 51.6028 164.781 50.5046 163.768 49.132L162.95 53.25H155.762V12.07H164.002V26.836C166.3 24.0514 169.319 22.6591 173.059 22.6591ZM171.189 46.8377C173.41 46.8377 175.202 46.0336 176.565 44.4257C177.929 42.8178 178.611 40.7195 178.611 38.131C178.611 35.5426 177.929 33.4443 176.565 31.8364C175.202 30.2285 173.41 29.4244 171.189 29.4244C168.969 29.4244 167.196 30.2285 165.872 31.8364C164.547 33.4052 163.885 35.4838 163.885 38.0722C163.885 40.7 164.547 42.8178 165.872 44.4257C167.196 46.0336 168.969 46.8377 171.189 46.8377ZM191.543 12.07H199.782V53.25H191.543V12.07ZM220.192 53.603C217.036 53.603 214.251 52.9754 211.835 51.7204C209.459 50.4262 207.608 48.6025 206.284 46.2494C204.998 43.8962 204.355 41.1901 204.355 38.131C204.355 35.072 204.998 32.3658 206.284 30.0127C207.608 27.6596 209.459 25.8554 211.835 24.6005C214.251 23.3062 217.036 22.6591 220.192 22.6591C223.347 22.6591 226.113 23.3062 228.49 24.6005C230.905 25.8554 232.755 27.6596 234.041 30.0127C235.365 32.3658 236.028 35.072 236.028 38.131C236.028 41.2294 235.365 43.9551 234.041 46.3082C232.755 48.6221 230.905 50.4262 228.49 51.7204C226.113 52.9754 223.347 53.603 220.192 53.603ZM220.192 46.8377C222.49 46.8377 224.302 46.0336 225.626 44.4257C226.99 42.8178 227.671 40.7195 227.671 38.131C227.671 35.5426 226.99 33.4443 225.626 31.8364C224.302 30.2285 222.49 29.4244 220.192 29.4244C217.932 29.4244 216.121 30.2285 214.757 31.8364C213.432 33.4443 212.77 35.5426 212.77 38.131C212.77 40.7195 213.432 42.8178 214.757 44.4257C216.121 46.0336 217.932 46.8377 220.192 46.8377ZM269.431 41.7784C268.884 45.4651 267.327 48.3672 264.756 50.485C262.224 52.5636 258.932 53.603 254.88 53.603C251.763 53.603 249.036 52.9754 246.699 51.7204C244.361 50.4262 242.55 48.6025 241.264 46.2494C240.018 43.8962 239.394 41.1901 239.394 38.131C239.394 35.0327 240.018 32.3265 241.264 30.0127C242.55 27.6596 244.361 25.8554 246.699 24.6005C249.075 23.3062 251.822 22.6591 254.937 22.6591C258.95 22.6591 262.224 23.6984 264.756 25.777C267.287 27.8165 268.846 30.6598 269.431 34.3072H260.899C260.549 32.8169 259.847 31.6404 258.796 30.7775C257.743 29.8755 256.439 29.4244 254.88 29.4244C252.736 29.4244 251.023 30.2285 249.737 31.8364C248.452 33.4443 247.809 35.5426 247.809 38.131C247.809 40.7195 248.452 42.8178 249.737 44.4257C251.023 46.0336 252.736 46.8377 254.88 46.8377C256.476 46.8377 257.801 46.3866 258.854 45.4846C259.945 44.5827 260.645 43.3473 260.957 41.7784H269.431ZM273.889 12.07H282.13V35.8956L293.933 23.0121H303.167L292.473 34.8366L303.752 53.25H294.226L286.629 41.0136L282.13 45.8964V53.25H273.889V12.07ZM311.94 43.1903C312.056 44.5238 312.699 45.6023 313.867 46.4259C315.036 47.2495 316.537 47.6613 318.368 47.6613C320.121 47.6613 321.504 47.3867 322.517 46.8377C323.529 46.2494 324.036 45.4258 324.036 44.3669C324.036 43.5826 323.801 42.9943 323.335 42.602C322.867 42.2097 322.204 41.9354 321.348 41.7784C320.492 41.5824 319.089 41.3666 317.139 41.1313C314.492 40.7783 312.29 40.3272 310.537 39.7782C308.784 39.2293 307.381 38.3664 306.328 37.1898C305.278 36.0132 304.752 34.4444 304.752 32.4835C304.752 30.5226 305.278 28.7968 306.328 27.3066C307.422 25.777 308.94 24.6005 310.887 23.7769C312.835 22.9533 315.076 22.5415 317.608 22.5415C321.698 22.5807 324.99 23.4631 327.484 25.1888C330.015 26.9143 331.38 29.3068 331.574 32.3658H323.743C323.628 31.2286 323.023 30.3068 321.932 29.6009C320.88 28.8557 319.517 28.4832 317.842 28.4832C316.283 28.4832 315.018 28.7773 314.044 29.3656C313.109 29.9539 312.641 30.7382 312.641 31.7187C312.641 32.4247 312.895 32.9541 313.401 33.3071C313.908 33.6601 314.57 33.9149 315.386 34.0719C316.205 34.2288 317.57 34.4053 319.477 34.6013C323.529 35.072 326.627 35.9544 328.768 37.2486C330.95 38.5035 332.04 40.6802 332.04 43.7786C332.04 45.7395 331.456 47.4653 330.287 48.9555C329.159 50.4457 327.562 51.6028 325.497 52.4264C323.471 53.2107 321.114 53.603 318.426 53.603C314.258 53.603 310.867 52.6812 308.258 50.838C305.648 48.9555 304.266 46.4063 304.109 43.1903H311.94Z" fill="white"/>
<defs>
<radialGradient id="paint0_radial_3_22" cx="0" cy="0" r="1" gradientUnits="userSpaceOnUse" gradientTransform="translate(-7.04654 15.2143) rotate(31.719) scale(62.6991 48.8272)">
<stop stop-color="#FF0099"/>
<stop offset="1" stop-color="#FF7A00"/>
</radialGradient>
</defs>
</svg>
