<svg width="16" height="16" viewBox="0 0 16 16" fill="none" xmlns="http://www.w3.org/2000/svg">
<path d="M11.374 7.48C11.7773 6.96132 11.9974 6.32367 12 5.66666C12 4.01266 10.654 2.66666 9 2.66666H4V12.6667H9.33333C10.9873 12.6667 12.3333 11.3207 12.3333 9.66666C12.3324 9.2558 12.2468 8.84954 12.0817 8.47329C11.9166 8.09704 11.6757 7.75889 11.374 7.48V7.48ZM9 4.66666C9.55133 4.66666 10 5.11533 10 5.66666C10 6.218 9.55133 6.66666 9 6.66666H6V4.66666H9ZM9.33333 10.6667H6V8.66666H9.33333C9.88467 8.66666 10.3333 9.11533 10.3333 9.66666C10.3333 10.218 9.88467 10.6667 9.33333 10.6667Z" fill="currentColor"/>
</svg>
