<svg width="16" height="16" viewBox="0 0 16 16" fill="none" xmlns="http://www.w3.org/2000/svg">
<path fill-rule="evenodd" clip-rule="evenodd" d="M5.61 0C3.97867 0 2.66667 1.36867 2.66667 3.04533C2.66667 4.06467 3.152 4.97 3.898 5.52267C3.51352 5.81072 3.20187 6.18485 2.98804 6.61506C2.77421 7.04527 2.66415 7.51959 2.66667 8C2.66667 9.02 3.152 9.92467 3.898 10.4773C3.51352 10.7654 3.20187 11.1395 2.98804 11.5697C2.77421 11.9999 2.66415 12.4743 2.66667 12.9547C2.66667 14.6313 3.97867 16 5.61 16C7.24067 16 8.55333 14.6313 8.55333 12.9547V10.38C9.06889 10.8099 9.71875 11.0455 10.39 11.046C12.0213 11.0453 13.3333 9.67667 13.3333 8C13.336 7.51956 13.226 7.04519 13.0122 6.61495C12.7983 6.18472 12.4866 5.81061 12.102 5.52267C12.4865 5.23461 12.7981 4.86048 13.012 4.43027C13.2258 4.00007 13.3359 3.52575 13.3333 3.04533C13.3333 1.36867 12.0213 0 10.39 0H5.61V0ZM3.77267 3.04533C3.77267 1.98467 4.60067 1.13533 5.61 1.13533H7.44667V4.95533H5.61C4.60067 4.95533 3.77267 4.10533 3.77267 3.04533V3.04533ZM10.39 4.95467H8.55333V1.13467H10.39C11.4 1.13467 12.2273 1.98467 12.2273 3.04533C12.2273 4.10533 11.4 4.95467 10.39 4.95467ZM3.77333 8C3.77333 6.94 4.60134 6.09 5.61067 6.09H7.44733V9.91H5.61C4.6 9.91 3.77267 9.06 3.77267 8H3.77333ZM8.55333 8C8.55333 6.94 9.38134 6.09 10.3907 6.09C11.4007 6.09 12.228 6.93933 12.228 8C12.228 9.06 11.4007 9.91 10.3907 9.91C9.38134 9.91 8.554 9.06067 8.554 8H8.55333ZM3.77333 12.9547C3.77333 11.8947 4.60134 11.0453 5.61067 11.0453H7.44733V12.9547C7.44733 14.0153 6.62067 14.8647 5.61067 14.8647C4.60134 14.8647 3.77333 14.0153 3.77333 12.9547Z" fill="currentColor"/>
</svg>
