<svg width="16" height="16" viewBox="0 0 16 16" fill="none" xmlns="http://www.w3.org/2000/svg">
<path d="M13.0887 5.33133C13.0973 5.448 13.0973 5.564 13.0973 5.68C13.0973 9.23 10.3953 13.3207 5.45733 13.3207C3.936 13.3207 2.52267 12.88 1.33333 12.1147C1.54933 12.1393 1.75733 12.148 1.982 12.148C3.19066 12.1509 4.3651 11.7468 5.316 11.0007C4.75561 10.9905 4.21238 10.8056 3.76216 10.4718C3.31193 10.138 2.97719 9.67193 2.80467 9.13867C2.97067 9.16333 3.13733 9.18 3.312 9.18C3.55267 9.18 3.79467 9.14667 4.01933 9.08867C3.41117 8.96588 2.86431 8.63623 2.47174 8.15579C2.07917 7.67535 1.86513 7.07376 1.866 6.45333V6.42C2.224 6.61933 2.63933 6.744 3.07933 6.76067C2.71072 6.51572 2.40848 6.18335 2.19956 5.79319C1.99064 5.40304 1.88154 4.96724 1.882 4.52467C1.882 4.026 2.01467 3.56867 2.24733 3.17C2.92209 4.00001 3.76367 4.67904 4.71756 5.16311C5.67144 5.64717 6.71637 5.92548 7.78467 5.98C7.74333 5.78 7.718 5.57267 7.718 5.36467C7.71782 5.01197 7.78716 4.66271 7.92205 4.33683C8.05694 4.01095 8.25473 3.71485 8.50412 3.46546C8.75352 3.21607 9.04961 3.01827 9.37549 2.88339C9.70137 2.7485 10.0506 2.67916 10.4033 2.67933C11.1767 2.67933 11.8747 3.00333 12.3653 3.52733C12.9665 3.41108 13.543 3.19161 14.0693 2.87867C13.8689 3.49921 13.4492 4.0254 12.8887 4.35867C13.4219 4.29785 13.943 4.15763 14.4347 3.94267C14.0674 4.47807 13.6123 4.94756 13.0887 5.33133V5.33133Z" fill="currentColor"/>
</svg>
