<svg width="16" height="16" viewBox="0 0 16 16" fill="none" xmlns="http://www.w3.org/2000/svg">
<path d="M2 5.5C2 4.83696 2.26339 4.20107 2.73223 3.73223C3.20107 3.26339 3.83696 3 4.5 3H11.5C12.163 3 12.7989 3.26339 13.2678 3.73223C13.7366 4.20107 14 4.83696 14 5.5V10.5C14 11.163 13.7366 11.7989 13.2678 12.2678C12.7989 12.7366 12.163 13 11.5 13H4.5C3.83696 13 3.20107 12.7366 2.73223 12.2678C2.26339 11.7989 2 11.163 2 10.5V5.5ZM6.5 5.82V10.18C6.5 10.43 6.774 10.583 6.987 10.453L10.246 8.461C10.325 8.41279 10.3903 8.34507 10.4357 8.26434C10.481 8.18361 10.5048 8.09258 10.5048 8C10.5048 7.90742 10.481 7.81639 10.4357 7.73566C10.3903 7.65493 10.325 7.58721 10.246 7.539L6.986 5.548C6.93751 5.51858 6.88208 5.50257 6.82537 5.50162C6.76867 5.50067 6.71273 5.5148 6.66328 5.54258C6.61383 5.57036 6.57266 5.61077 6.54397 5.6597C6.51528 5.70862 6.5001 5.76429 6.5 5.821V5.82Z" fill="#565459"/>
</svg>
