<svg xmlns="http://www.w3.org/2000/svg" width="1800" height="600">
  <path d="M617.086 380h-23.383l.006 138h23.377V380ZM660 419.637h-23V518h23v-98.363ZM660 380h-23v24h23v-24Zm34.78 39.637h-25.123L705.024 518h26.087l35.367-98.363H741.74l-14.783 46.821c-.385 1.218-1.77 5.983-4.155 14.284l-4.735 15.928a1209.72 1209.72 0 0 0-8.788-30.212l-14.499-46.821Zm167.455 30.893c-1.936-6.628-4.771-12.263-8.511-16.898-4.19-5.203-9.499-9.23-15.937-12.062-6.38-2.897-13.465-4.34-21.258-4.34-14.814 0-26.668 4.63-35.557 13.895a47.053 47.053 0 0 0-9.955 16.608c-2.189 6.367-3.284 13.415-3.284 21.137 0 16.538 4.415 29.314 13.245 38.325 8.948 9.135 20.867 13.705 35.746 13.705 12.754 0 23.087-2.861 31.017-8.591 7.925-5.729 13.173-14.22 15.748-25.482l-22.803-1.739c-1.094 6.114-3.609 10.684-7.539 13.705-3.93 2.963-9.47 4.447-16.618 4.447-16.358 0-24.733-9.206-25.117-27.612h73.622l.1-3.281c0-7.917-.97-15.189-2.899-21.817Zm-65.609-6.947c4.124-5.794 10.759-8.692 19.903-8.692 4.444 0 8.184.609 11.209 1.833 3.03 1.224 5.64 3.186 7.829 5.889a22.395 22.395 0 0 1 3.865 7.047 30.78 30.78 0 0 1 1.74 8.301h-49.571c.58-5.728 2.255-10.523 5.025-14.378Zm159.335-20.079c-6.634-4.316-14.298-6.469-22.992-6.469h-.013c-6.308 0-12.073 1.283-17.292 3.861a32.954 32.954 0 0 0-12.759 11.003V380h-23.378v139h23.383v-14.122a32.654 32.654 0 0 0 12.174 11.677c5.22 2.897 10.984 4.345 17.293 4.345 8.764 0 16.524-2.093 23.3-6.273 6.758-4.18 12.008-10.169 15.742-17.957 3.799-7.851 5.705-17.051 5.705-27.605 0-10.299-1.876-19.369-5.604-27.221-3.675-7.917-8.86-14.03-15.559-18.34Zm-9.955 71.719c-3.734 5.663-10.108 8.49-19.133 8.49-8.12 0-14.233-2.927-18.352-8.781-4.125-5.853-6.185-14.414-6.185-25.677 0-10.879 1.834-19.369 5.504-25.484 3.74-6.178 10.019-9.264 18.844-9.264 9.019 0 15.428 2.832 19.228 8.49 3.805 5.599 5.699 14.29 5.699 26.068 0 11.772-1.864 20.493-5.605 26.158ZM1015.1 380h-23.382v138h23.382V380Zm37.88 134.721c7.6 4.121 16.62 6.179 27.06 6.179 10.04 0 18.87-2.157 26.47-6.462a44.113 44.113 0 0 0 17.68-18.151c4.19-7.853 6.28-16.928 6.28-27.222 0-9.909-2.06-18.796-6.18-26.642a45.252 45.252 0 0 0-17.59-18.535c-7.6-4.44-16.49-6.663-26.66-6.663-10.25 0-19.2 2.223-26.87 6.663a45.399 45.399 0 0 0-17.59 18.435c-4.05 7.787-6.08 16.703-6.08 26.742 0 10.684 1.99 19.914 5.99 27.7a42.387 42.387 0 0 0 17.49 17.956Zm46.47-19.399c-3.93 5.535-10.4 8.302-19.41 8.302-6.12 0-11.05-1.224-14.79-3.672-3.74-2.507-6.44-6.273-8.12-11.292-1.67-5.086-2.51-11.619-2.51-19.601 0-11.966 1.97-20.717 5.9-26.251 3.99-5.534 10.5-8.301 19.52-8.301 8.95 0 15.39 2.767 19.32 8.301 3.99 5.534 5.99 14.285 5.99 26.257 0 11.968-1.97 20.718-5.9 26.257Zm62.91 19.399c7.54 4.121 16.52 6.179 26.96 6.179 8.11 0 15.36-1.413 21.74-4.245 6.38-2.832 11.56-6.788 15.55-11.872a38.672 38.672 0 0 0 7.64-17.768l-22.52-2.311c-1.54 6.172-4.12 10.778-7.73 13.8-3.6 3.027-8.5 4.54-14.68 4.54-6.31 0-11.27-1.288-14.88-3.866-3.61-2.637-6.12-6.397-7.54-11.293-1.42-4.955-2.12-11.228-2.12-18.82 0-7.467.7-13.645 2.12-18.535 1.42-4.955 3.9-8.751 7.44-11.393 3.61-2.703 8.6-4.051 14.98-4.051 6.82 0 11.88 1.898 15.17 5.694 3.35 3.731 5.73 8.845 7.15 15.349l22.13-3.962c-2.13-10.554-6.93-19.014-14.41-25.382-7.4-6.374-17.42-9.555-30.04-9.555-10.31 0-19.23 2.188-26.77 6.563a43.618 43.618 0 0 0-17.29 18.341c-4 7.787-6 16.762-6 26.931 0 10.743 1.97 20.014 5.9 27.801 3.99 7.786 9.73 13.74 17.2 17.855Zm107.74-32.915 10.92-10.429L1310 518h26.96l-40.1-61.587 38.85-36.776h-30.35l-35.26 36.108V380h-23.39v138h23.39v-36.194Zm87.35 35.522c6.57 2.383 13.88 3.571 21.93 3.571 12.31 0 22.45-2.448 30.44-7.331 8.05-4.895 12.08-12.877 12.08-23.946 0-7.208-1.87-12.871-5.6-16.986-3.74-4.186-8.19-7.179-13.34-8.981-5.09-1.863-12.01-3.761-20.77-5.694-5.09-1.094-9.11-2.123-12.08-3.087-2.96-.969-5.35-2.223-7.15-3.766-1.73-1.549-2.61-3.542-2.61-5.984 0-3.606 1.61-6.337 4.83-8.206 3.22-1.868 7.22-2.802 11.98-2.802 6.31 0 11.24 1.513 14.79 4.54 3.6 3.027 5.54 7.562 5.79 13.611l21.65-3.571c-1.04-11.068-5.38-19.08-13.05-24.04-7.6-4.949-17.33-7.432-29.18-7.432-6.96 0-13.39 1.058-19.32 3.186-5.86 2.058-10.59 5.31-14.2 9.756-3.61 4.434-5.41 10.033-5.41 16.792 0 6.243 1.54 11.292 4.63 15.153a31.008 31.008 0 0 0 11.79 8.975c4.77 2.064 10.75 4.027 17.97 5.889l6 1.449c3.99.947 7.96 2.042 11.88 3.281 2.7.84 4.92 1.999 6.66 3.477 1.75 1.478 2.61 3.412 2.61 5.794 0 4.181-1.74 7.402-5.22 9.65-3.41 2.258-8.4 3.381-14.97 3.381-6.7 0-12.05-1.673-16.04-5.019-3.99-3.347-6.02-8.172-6.09-14.481l-22.02 2.508c.25 7.597 2.34 13.936 6.27 19.02 4 5.085 9.24 8.846 15.75 11.293ZM490 427.509H379l33.031 33-.031 46 78-79ZM433 518h111l-33-32.491v-45L433 518Z" fill="#000"/>
  <g>
    <g transform="translate(-14,-18)" opacity="0">
        <path d="m7.562 3.067 25.65 9h.036c.22.081.411.225.546.413a1.098 1.098 0 0 1 0 1.278 1.16 1.16 0 0 1-.546.413l-11.194 4.32-4.477 10.8c-.086.21-.236.389-.43.515a1.196 1.196 0 0 1-1.324-.01 1.131 1.131 0 0 1-.426-.538L6.069 4.506c-.075-.201-.09-.419-.041-.627.048-.209.157-.4.314-.55.156-.152.354-.256.57-.303.216-.047.441-.033.65.04Z" fill="hsla(256, 80%, 62%, 1)"/>
        <animate
          id="cursor-animation-1"
          attributeName="opacity"
          values="0;0;1;1;0;0"
          keyTimes="0;0.1;0.2;0.8;0.9;1"
          dur="5s"
          begin="0s;cursor-animation-1.end+5s"
          repeatCount="1"
        />
      </g>
      <animateMotion
        dur="5s"
        begin="0s;cursor-animation-1.end+5s"
        calcMode="spline"
        repeatCount="1"
        path="M3 508c132.5 0 174-108 251.5-134.5-7.5-74.5-65.5-153-65.5-208C237.5 139 622.5 191 892 191s623.5-74 679.5-91.5c52 3 139.5 65.5 231.5 65.5"
        keyPoints="0; 0.136; 0.238; 0.888; 1"
        keyTimes="0; 0.3; 0.5; 0.8; 1"
        keySplines="0.6 0 0.4 1; 0.6 0 0.4 1; 0.6 0 0.4 1; 0.6 0 0.4 1"
      />
    </g>
  <g>
    <g transform="translate(-14,-18)" opacity="0">
      <path d="m7.562 3.067 25.65 9h.036c.22.081.411.225.546.413a1.098 1.098 0 0 1 0 1.278 1.16 1.16 0 0 1-.546.413l-11.194 4.32-4.477 10.8c-.086.21-.236.389-.43.515a1.196 1.196 0 0 1-1.324-.01 1.131 1.131 0 0 1-.426-.538L6.069 4.506c-.075-.201-.09-.419-.041-.627.048-.209.157-.4.314-.55.156-.152.354-.256.57-.303.216-.047.441-.033.65.04Z" fill="hsla(165, 80%, 62%, 1)"/>
      <animate
        id="cursor-animation-2"
        begin="3s;cursor-animation-2.end+7s"
        attributeName="opacity"
        values="0;0;1;1;0;0"
        keyTimes="0;0.1;0.2;0.8;0.9;1"
        dur="3s"
        repeatCount="1"
      />
    </g>
    <animateMotion
      dur="3s"
      begin="3s;cursor-animation-2.end+7s"
      calcMode="spline"
      repeatCount="1"
      path="M1033 2c-52 120-336.5 201.5-508.5 226C466 166 336.619 83.563 209 120 80.158 156.786 65 344 3 381"
      keyPoints="0; 0.455; 1"
      keyTimes="0; 0.6; 1"
      keySplines="0.6 0 0.4 1; 0.6 0 0.4 1"
    />
  </g>
  <g>
    <g transform="translate(-14,-18)" opacity="0">
      <path d="m7.562 3.067 25.65 9h.036c.22.081.411.225.546.413a1.098 1.098 0 0 1 0 1.278 1.16 1.16 0 0 1-.546.413l-11.194 4.32-4.477 10.8c-.086.21-.236.389-.43.515a1.196 1.196 0 0 1-1.324-.01 1.131 1.131 0 0 1-.426-.538L6.069 4.506c-.075-.201-.09-.419-.041-.627.048-.209.157-.4.314-.55.156-.152.354-.256.57-.303.216-.047.441-.033.65.04Z" fill="hsla(209, 80%, 62%, 1)"/>
      <animate
        id="cursor-animation-3"
        begin="5s;cursor-animation-3.end+6s"
        attributeName="opacity"
        values="0;0;1;1;0;0"
        keyTimes="0;0.1;0.2;0.8;0.9;1"
        dur="4s"
        repeatCount="1"
      />
    </g>
    <animateMotion
      dur="4s"
      begin="5s;cursor-animation-3.end+6s"
      calcMode="spline"
      repeatCount="1"
      path="M1694 2c-22.5 85.5-82.5 165-114.5 243.5-45.5-38-106-71-131.5-96-68.26 9.3-81.85 79.916-97.5 147 229 0 368.5 203.5 452.5 203.5"
      keyPoints="0; 0.24; 0.382; 0.55; 1"
      keyTimes="0; 0.3; 0.5; 0.7; 1"
      keySplines="0.6 0 0.4 1; 0.6 0 0.4 1; 0.6 0 0.4 1; 0.6 0 0.4 1"
    />
  </g>
  <g>
    <g transform="translate(-14,-18)" opacity="0">
      <path d="m7.562 3.067 25.65 9h.036c.22.081.411.225.546.413a1.098 1.098 0 0 1 0 1.278 1.16 1.16 0 0 1-.546.413l-11.194 4.32-4.477 10.8c-.086.21-.236.389-.43.515a1.196 1.196 0 0 1-1.324-.01 1.131 1.131 0 0 1-.426-.538L6.069 4.506c-.075-.201-.09-.419-.041-.627.048-.209.157-.4.314-.55.156-.152.354-.256.57-.303.216-.047.441-.033.65.04Z" fill="hsla(331, 100%, 67%, 1)"/>
      <animate
        id="cursor-animation-4"
        begin="6s;cursor-animation-4.end+4s"
        attributeName="opacity"
        values="0;0;1;1;0;0"
        keyTimes="0;0.1;0.2;0.8;0.9;1"
        dur="6s"
        repeatCount="1"
      />
    </g>
    <animateMotion
      dur="6s"
      begin="6s;cursor-animation-4.end+4s"
      calcMode="spline"
      repeatCount="1"
      path="M270,2C314.52,112.714 327.5,250 384,285.5C619.5,245 664,224 726.5,250C673.5,348 517.814,217.564 449.5,109C646,85 981.5,48 1089,125C1158.5,309.5 1450.74,233.398 1624,285.5C1710,311.362 1736.65,324.217 1800,361"
      keyPoints="0; 0.128; 0.268; 0.416; 0.678; 1"
      keyTimes="0; 0.2; 0.4; 0.6; 0.8; 1"
      keySplines="0.6 0 0.4 1; 0.6 0 0.4 1; 0.6 0 0.4 1; 0.6 0 0.4 1; 0.6 0 0.4 1"
    />
  </g>
</svg>