<svg xmlns="http://www.w3.org/2000/svg" width="1800" height="600">
  <path
    fill-rule="evenodd"
    clip-rule="evenodd"
    d="M472.492 420.199H358l32.947 34.53v47.684l81.545-82.214Zm-65.895 98.657h114.492l-32.947-34.53v-47.684l-81.545 82.214Z"
    fill="url(#gradient-orange)"
  />
  <path
    d="M564.224 385.341h26.944v133.515h-26.944V385.341ZM623.512 380c4.459 0 8.154 1.462 11.084 4.387 2.93 2.797 4.395 6.358 4.395 10.681 0 4.323-1.465 7.947-4.395 10.872-2.93 2.925-6.625 4.387-11.084 4.387s-8.217-1.462-11.274-4.387c-2.931-2.925-4.396-6.549-4.396-10.872 0-4.323 1.465-7.884 4.396-10.681 3.057-2.925 6.815-4.387 11.274-4.387Zm-13.568 40.817h26.945v98.039h-26.945v-98.039ZM646.111 420.817h28.855l23.696 70.573 23.313-70.573h28.282l-35.352 98.039h-33.442l-35.352-98.039ZM751.683 470.027c0-10.172 2.038-19.01 6.115-26.512 4.204-7.629 10-13.479 17.389-17.548 7.517-4.196 16.18-6.294 25.989-6.294 9.937 0 18.664 1.971 26.18 5.913 7.644 3.815 13.568 9.282 17.772 16.403 4.331 6.994 6.561 15.259 6.688 24.796 0 3.433-.255 6.485-.764 9.155h-71.278v.763c.637 7.121 2.93 12.716 6.879 16.785 3.949 4.069 9.364 6.103 16.243 6.103 5.478 0 10.001-1.144 13.568-3.433 3.694-2.416 6.115-5.913 7.261-10.49h26.562c-1.019 6.485-3.503 12.334-7.452 17.547-3.95 5.214-9.173 9.346-15.67 12.398-6.497 2.925-13.95 4.387-22.358 4.387-10.956 0-20.447-2.035-28.473-6.104-7.899-4.069-14.014-9.854-18.345-17.356-4.204-7.63-6.306-16.467-6.306-26.513Zm73.189-11.635c-.892-5.976-3.376-10.554-7.453-13.733-3.949-3.306-8.981-4.959-15.096-4.959-5.86 0-10.829 1.717-14.906 5.15-3.949 3.306-6.306 7.82-7.07 13.542h44.525ZM923.105 419.673c8.79 0 16.625 2.035 23.504 6.104 6.88 3.941 12.231 9.727 16.052 17.357 3.95 7.502 5.924 16.339 5.924 26.512 0 9.918-1.974 18.692-5.924 26.321-3.821 7.63-9.172 13.543-16.052 17.739-6.879 4.196-14.65 6.294-23.313 6.294-6.879 0-12.867-1.272-17.963-3.815-5.096-2.67-9.3-6.23-12.612-10.681l-2.675 13.352h-23.505V385.341h26.944v47.874c7.517-9.028 17.39-13.542 29.62-13.542Zm-6.115 78.392c7.261 0 13.122-2.606 17.581-7.82 4.458-5.213 6.688-12.016 6.688-20.408 0-8.393-2.23-15.196-6.688-20.409-4.459-5.214-10.32-7.82-17.581-7.82-7.262 0-13.058 2.606-17.39 7.82-4.331 5.086-6.497 11.825-6.497 20.218 0 8.519 2.166 15.386 6.497 20.599 4.332 5.214 10.128 7.82 17.39 7.82ZM983.549 385.341h26.941v133.515h-26.941V385.341ZM1077.23 520c-10.31 0-19.42-2.035-27.32-6.104-7.77-4.196-13.82-10.109-18.16-17.738-4.2-7.629-6.3-16.403-6.3-26.321 0-9.919 2.1-18.693 6.3-26.322 4.34-7.629 10.39-13.479 18.16-17.548 7.9-4.196 17.01-6.294 27.32-6.294 10.32 0 19.37 2.098 27.14 6.294 7.9 4.069 13.95 9.919 18.15 17.548 4.34 7.629 6.5 16.403 6.5 26.322 0 10.045-2.16 18.882-6.5 26.512-4.2 7.502-10.25 13.351-18.15 17.547-7.77 4.069-16.82 6.104-27.14 6.104Zm0-21.935c7.52 0 13.44-2.606 17.78-7.82 4.46-5.213 6.68-12.016 6.68-20.408 0-8.393-2.22-15.196-6.68-20.409-4.34-5.214-10.26-7.82-17.78-7.82-7.38 0-13.31 2.606-17.77 7.82-4.33 5.213-6.49 12.016-6.49 20.409 0 8.392 2.16 15.195 6.49 20.408 4.46 5.214 10.39 7.82 17.77 7.82ZM1238.25 481.662c-1.78 11.953-6.88 21.363-15.29 28.229-8.28 6.739-19.04 10.109-32.29 10.109-10.19 0-19.11-2.035-26.75-6.104-7.65-4.196-13.57-10.109-17.78-17.738-4.07-7.629-6.11-16.403-6.11-26.321 0-10.046 2.04-18.82 6.11-26.322 4.21-7.629 10.13-13.479 17.78-17.548 7.77-4.196 16.75-6.294 26.94-6.294 13.12 0 23.82 3.37 32.1 10.109 8.29 6.612 13.38 15.831 15.29 27.657h-27.9c-1.14-4.832-3.44-8.647-6.88-11.444-3.44-2.925-7.7-4.387-12.8-4.387-7.01 0-12.61 2.606-16.82 7.82-4.2 5.213-6.3 12.016-6.3 20.409 0 8.392 2.1 15.195 6.3 20.408 4.21 5.214 9.81 7.82 16.82 7.82 5.22 0 9.55-1.462 12.99-4.387 3.57-2.924 5.86-6.93 6.88-12.016h27.71ZM1252.84 385.341h26.94v77.248l38.6-41.772h30.19l-34.97 38.338 36.88 59.701h-31.14l-24.85-39.673-14.71 15.831v23.842h-26.94V385.341ZM1377.26 486.24c.39 4.323 2.49 7.82 6.31 10.49 3.82 2.671 8.73 4.006 14.71 4.006 5.74 0 10.26-.89 13.57-2.671 3.31-1.907 4.97-4.577 4.97-8.01 0-2.544-.76-4.451-2.29-5.723-1.53-1.271-3.7-2.161-6.5-2.67-2.8-.636-7.39-1.335-13.76-2.098-8.66-1.144-15.86-2.607-21.59-4.387-5.74-1.78-10.32-4.578-13.76-8.392-3.44-3.815-5.16-8.901-5.16-15.259 0-6.358 1.72-11.953 5.16-16.785 3.57-4.959 8.53-8.774 14.9-11.444 6.37-2.67 13.7-4.005 21.98-4.005 13.38.127 24.14 2.988 32.29 8.583 8.28 5.595 12.74 13.351 13.38 23.269h-25.61c-.38-3.687-2.35-6.675-5.92-8.964-3.44-2.416-7.9-3.624-13.38-3.624-5.09 0-9.23.954-12.42 2.861-3.06 1.907-4.58 4.45-4.58 7.629 0 2.289.82 4.006 2.48 5.15 1.66 1.145 3.82 1.971 6.5 2.48 2.67.508 7.13 1.081 13.37 1.716 13.25 1.526 23.38 4.387 30.39 8.583 7.13 4.07 10.7 11.127 10.7 21.172 0 6.358-1.91 11.953-5.73 16.785-3.7 4.832-8.92 8.583-15.67 11.253-6.63 2.543-14.34 3.815-23.13 3.815-13.63 0-24.71-2.988-33.25-8.965-8.53-6.103-13.05-14.368-13.56-24.795h25.6Z"
    fill="#222"
  />
  <g filter="url(#cursor-shadow)">
    <g transform="translate(-14,-18)" opacity="0">
      <path
        fill-rule="evenodd"
        clip-rule="evenodd"
        d="M9.774 6.262a3 3 0 0 1 3.225.5l22 19.656A3 3 0 0 1 33 31.655H20.811l-7.48 9.233A3 3 0 0 1 8 39V9a3 3 0 0 1 1.774-2.738Z"
        fill="#fff"
      />
      <path d="M11 39V9l22 19.655H19.381L11 39Z" fill="#f81" />
      <animate
        id="cursor-animation-1"
        attributeName="opacity"
        values="0;0;1;1;0;0"
        keyTimes="0;0.1;0.2;0.8;0.9;1"
        dur="5s"
        begin="0s;cursor-animation-1.end+5s"
        repeatCount="1"
      />
    </g>
    <animateMotion
      dur="5s"
      begin="0s;cursor-animation-1.end+5s"
      calcMode="spline"
      repeatCount="1"
      path="M3 508c132.5 0 174-108 251.5-134.5-7.5-74.5-65.5-153-65.5-208C237.5 139 622.5 191 892 191s623.5-74 679.5-91.5c52 3 139.5 65.5 231.5 65.5"
      keyPoints="0; 0.136; 0.238; 0.888; 1"
      keyTimes="0; 0.3; 0.5; 0.8; 1"
      keySplines="0.6 0 0.4 1; 0.6 0 0.4 1; 0.6 0 0.4 1; 0.6 0 0.4 1"
    />
  </g>
  <g filter="url(#cursor-shadow)">
    <g transform="translate(-14,-18)" opacity="0">
      <path
        fill-rule="evenodd"
        clip-rule="evenodd"
        d="M9.774 6.262a3 3 0 0 1 3.225.5l22 19.656A3 3 0 0 1 33 31.655H20.811l-7.48 9.233A3 3 0 0 1 8 39V9a3 3 0 0 1 1.774-2.738Z"
        fill="#fff"
      />
      <path d="M11 39V9l22 19.655H19.381L11 39Z" fill="#8c1" />
      <animate
        id="cursor-animation-2"
        begin="3s;cursor-animation-2.end+7s"
        attributeName="opacity"
        values="0;0;1;1;0;0"
        keyTimes="0;0.1;0.2;0.8;0.9;1"
        dur="3s"
        repeatCount="1"
      />
    </g>
    <animateMotion
      dur="3s"
      begin="3s;cursor-animation-2.end+7s"
      calcMode="spline"
      repeatCount="1"
      path="M1033 2c-52 120-336.5 201.5-508.5 226C466 166 336.619 83.563 209 120 80.158 156.786 65 344 3 381"
      keyPoints="0; 0.455; 1"
      keyTimes="0; 0.6; 1"
      keySplines="0.6 0 0.4 1; 0.6 0 0.4 1"
    />
  </g>
  <g filter="url(#cursor-shadow)">
    <g transform="translate(-14,-18)" opacity="0">
      <path
        fill-rule="evenodd"
        clip-rule="evenodd"
        d="M9.774 6.262a3 3 0 0 1 3.225.5l22 19.656A3 3 0 0 1 33 31.655H20.811l-7.48 9.233A3 3 0 0 1 8 39V9a3 3 0 0 1 1.774-2.738Z"
        fill="#fff"
      />
      <path d="M11 39V9l22 19.655H19.381L11 39Z" fill="#0bf" />
      <animate
        id="cursor-animation-3"
        begin="5s;cursor-animation-3.end+6s"
        attributeName="opacity"
        values="0;0;1;1;0;0"
        keyTimes="0;0.1;0.2;0.8;0.9;1"
        dur="4s"
        repeatCount="1"
      />
    </g>
    <animateMotion
      dur="4s"
      begin="5s;cursor-animation-3.end+6s"
      calcMode="spline"
      repeatCount="1"
      path="M1694 2c-22.5 85.5-82.5 165-114.5 243.5-45.5-38-106-71-131.5-96-68.26 9.3-81.85 79.916-97.5 147 229 0 368.5 203.5 452.5 203.5"
      keyPoints="0; 0.24; 0.382; 0.55; 1"
      keyTimes="0; 0.3; 0.5; 0.7; 1"
      keySplines="0.6 0 0.4 1; 0.6 0 0.4 1; 0.6 0 0.4 1; 0.6 0 0.4 1"
    />
  </g>
  <g filter="url(#cursor-shadow)">
    <g transform="translate(-14,-18)" opacity="0">
      <path
        fill-rule="evenodd"
        clip-rule="evenodd"
        d="M9.774 6.262a3 3 0 0 1 3.225.5l22 19.656A3 3 0 0 1 33 31.655H20.811l-7.48 9.233A3 3 0 0 1 8 39V9a3 3 0 0 1 1.774-2.738Z"
        fill="#fff"
      />
      <path d="M11 39V9l22 19.655H19.381L11 39Z" fill="#e4b" />
      <animate
        id="cursor-animation-4"
        begin="6s;cursor-animation-4.end+4s"
        attributeName="opacity"
        values="0;0;1;1;0;0"
        keyTimes="0;0.1;0.2;0.8;0.9;1"
        dur="6s"
        repeatCount="1"
      />
    </g>
    <animateMotion
      dur="6s"
      begin="6s;cursor-animation-4.end+4s"
      calcMode="spline"
      repeatCount="1"
      path="M270,2C314.52,112.714 327.5,250 384,285.5C619.5,245 664,224 726.5,250C673.5,348 517.814,217.564 449.5,109C646,85 981.5,48 1089,125C1158.5,309.5 1450.74,233.398 1624,285.5C1710,311.362 1736.65,324.217 1800,361"
      keyPoints="0; 0.128; 0.268; 0.416; 0.678; 1"
      keyTimes="0; 0.2; 0.4; 0.6; 0.8; 1"
      keySplines="0.6 0 0.4 1; 0.6 0 0.4 1; 0.6 0 0.4 1; 0.6 0 0.4 1; 0.6 0 0.4 1"
    />
  </g>
  <defs>
    <radialGradient
      id="gradient-orange"
      cx="0"
      cy="0"
      r="1"
      gradientUnits="userSpaceOnUse"
      gradientTransform="matrix(174.41066 106.87774 -82.9104 135.29908 334.133 355.535)"
    >
      <stop stop-color="#f09" />
      <stop offset="1" stop-color="#f70" />
    </radialGradient>
    <filter id="cursor-shadow" x="-50%" y="-30%" width="200%" height="200%">
      <feDropShadow
        dx="0"
        dy="2"
        stdDeviation="6"
        flood-color="#000"
        flood-opacity="0.2"
      />
    </filter>
  </defs>
</svg>