<svg width="1710" height="1180" viewBox="0 0 1710 1180" fill="none" xmlns="http://www.w3.org/2000/svg"><path fill="url(#a)" d="M0 0h1710v1180H0z"/><path d="M260 175v919M856 175v919M1452 175v919" stroke="#AFA9B2" stroke-width="2" stroke-dasharray="6 6"/><path d="M385 86H133a8 8 0 0 0-8 8v72a8 8 0 0 0 8 8h252a8 8 0 0 0 8-8V94a8 8 0 0 0-8-8Z" fill="#6C6C6C"/><path d="M385 86H133a8 8 0 0 0-8 8v72a8 8 0 0 0 8 8h252a8 8 0 0 0 8-8V94a8 8 0 0 0-8-8Z" fill="url(#b)" fill-opacity=".2"/><path d="M981 86H729a8 8 0 0 0-8 8v72a8 8 0 0 0 8 8h252a8 8 0 0 0 8-8V94a8 8 0 0 0-8-8Z" fill="#56A5FD"/><path d="M981 86H729a8 8 0 0 0-8 8v72a8 8 0 0 0 8 8h252a8 8 0 0 0 8-8V94a8 8 0 0 0-8-8Z" fill="url(#c)" fill-opacity=".2"/><path d="M1577 86h-252c-4.42 0-8 3.582-8 8v72a8 8 0 0 0 8 8h252a8 8 0 0 0 8-8V94c0-4.418-3.58-8-8-8Z" fill="#8B5CF6"/><path d="M1577 86h-252c-4.42 0-8 3.582-8 8v72a8 8 0 0 0 8 8h252a8 8 0 0 0 8-8V94c0-4.418-3.58-8-8-8Z" fill="url(#d)" fill-opacity=".2"/><g filter="url(#e)"><path d="M482 229H133a8 8 0 0 0-8 8v34a8 8 0 0 0 8 8h349a8 8 0 0 0 8-8v-34a8 8 0 0 0-8-8Z" fill="#fff"/></g><path d="M153.633 261.332a7.28 7.28 0 0 1-1.793.75 6.876 6.876 0 0 1-1.875.258c-2.031 0-3.621-.61-4.77-1.828-1.14-1.219-1.711-2.907-1.711-5.063 0-2.156.571-3.844 1.711-5.062 1.149-1.219 2.739-1.828 4.77-1.828a7 7 0 0 1 1.851.246 8.008 8.008 0 0 1 1.817.761v2.262c-.571-.508-1.145-.875-1.723-1.101-.57-.227-1.219-.34-1.945-.34-1.352 0-2.391.437-3.117 1.312-.727.875-1.09 2.125-1.09 3.75 0 1.617.363 2.867 1.09 3.75.734.875 1.773 1.313 3.117 1.313.75 0 1.422-.114 2.015-.34a5.108 5.108 0 0 0 1.653-1.078v2.238Zm10.453-4.078c0 .969.176 1.699.527 2.191.36.493.887.739 1.582.739h2.52V262h-2.731c-1.289 0-2.289-.41-3-1.23-.703-.829-1.054-2-1.054-3.516v-11.871h-3.457v-1.688h5.613v13.559Zm9.738-8.332h5.52v11.402h4.277V262H172.91v-1.676h4.277v-9.726h-3.363v-1.676Zm3.363-5.098h2.157v2.719h-2.157v-2.719Zm20.52 10.535v1.055h-9.34v.07c-.062 1.789.277 3.075 1.02 3.856.75.781 1.804 1.172 3.164 1.172.687 0 1.406-.11 2.156-.328.75-.219 1.551-.551 2.402-.996v2.144c-.82.336-1.613.586-2.379.75a9.936 9.936 0 0 1-2.203.258c-2.039 0-3.633-.61-4.781-1.828-1.148-1.227-1.723-2.914-1.723-5.063 0-2.094.563-3.765 1.688-5.015 1.125-1.25 2.625-1.875 4.5-1.875 1.672 0 2.988.566 3.949 1.699.969 1.133 1.484 2.5 1.547 4.101Zm-2.156-.632c-.094-.907-.426-1.688-.996-2.344-.563-.664-1.375-.996-2.438-.996-1.039 0-1.894.343-2.566 1.031-.672.687-1.039 1.461-1.102 2.32l7.102-.011Zm15.808.14V262h-2.168v-8.133c0-1.179-.207-2.047-.621-2.601-.414-.555-1.062-.832-1.945-.832-1.008 0-1.785.359-2.332 1.078-.539.711-.809 1.734-.809 3.07V262h-2.156v-13.125h2.156v1.969c.383-.75.903-1.317 1.559-1.699.656-.391 1.434-.586 2.332-.586 1.336 0 2.332.441 2.988 1.324.664.875.996 2.203.996 3.984Zm9.34-8.719v3.727h4.899v1.676h-4.899v7.125c0 .969.184 1.644.551 2.027.367.383 1.008.574 1.922.574h2.426V262h-2.637c-1.617 0-2.758-.324-3.422-.973-.664-.648-.996-1.765-.996-3.351v-7.125h-3.504v-1.676h3.504v-3.727h2.156Zm11.824 12.118h4.125V262h-4.125v-4.734Zm23.028-2.907v1.055h-9.34v.07c-.063 1.789.277 3.075 1.019 3.856.75.781 1.805 1.172 3.165 1.172.687 0 1.406-.11 2.156-.328.75-.219 1.551-.551 2.402-.996v2.144c-.82.336-1.613.586-2.379.75a9.943 9.943 0 0 1-2.203.258c-2.039 0-3.633-.61-4.781-1.828-1.149-1.227-1.723-2.914-1.723-5.063 0-2.094.563-3.765 1.688-5.015 1.125-1.25 2.625-1.875 4.5-1.875 1.672 0 2.988.566 3.949 1.699.969 1.133 1.484 2.5 1.547 4.101Zm-2.156-.632c-.094-.907-.426-1.688-.997-2.344-.562-.664-1.375-.996-2.437-.996-1.039 0-1.895.343-2.566 1.031-.672.687-1.04 1.461-1.102 2.32l7.102-.011Zm15.808.14V262h-2.168v-8.133c0-1.179-.207-2.047-.621-2.601-.414-.555-1.062-.832-1.945-.832-1.008 0-1.785.359-2.332 1.078-.539.711-.809 1.734-.809 3.07V262h-2.156v-13.125h2.156v1.969c.383-.75.902-1.317 1.559-1.699.656-.391 1.433-.586 2.332-.586 1.336 0 2.332.441 2.988 1.324.664.875.996 2.203.996 3.984Zm9.34-8.719v3.727h4.898v1.676h-4.898v7.125c0 .969.184 1.644.551 2.027.367.383 1.008.574 1.922.574h2.425V262h-2.636c-1.617 0-2.758-.324-3.422-.973-.664-.648-.996-1.765-.996-3.351v-7.125h-3.504v-1.676h3.504v-3.727h2.156Zm20.391 9.211v1.055h-9.34v.07c-.063 1.789.277 3.075 1.019 3.856.75.781 1.805 1.172 3.164 1.172.688 0 1.407-.11 2.157-.328.75-.219 1.55-.551 2.402-.996v2.144c-.82.336-1.613.586-2.379.75a9.943 9.943 0 0 1-2.203.258c-2.039 0-3.633-.61-4.781-1.828-1.149-1.227-1.723-2.914-1.723-5.063 0-2.094.562-3.765 1.688-5.015 1.124-1.25 2.624-1.875 4.5-1.875 1.671 0 2.988.566 3.949 1.699.968 1.133 1.484 2.5 1.547 4.101Zm-2.157-.632c-.093-.907-.425-1.688-.996-2.344-.562-.664-1.375-.996-2.437-.996-1.039 0-1.895.343-2.567 1.031-.672.687-1.039 1.461-1.101 2.32l7.101-.011Zm17.028-2.145a4.885 4.885 0 0 0-1.407-.785c-.476-.164-1-.246-1.57-.246-1.344 0-2.371.422-3.082 1.265-.711.844-1.066 2.063-1.066 3.657V262h-2.168v-13.125h2.168v2.566c.359-.929.91-1.64 1.652-2.132.75-.5 1.637-.75 2.66-.75.531 0 1.028.066 1.488.199.461.133.903.34 1.325.621v2.203Zm10.945-8.965c-1.039 1.781-1.816 3.559-2.332 5.332a19.241 19.241 0 0 0-.762 5.344c0 1.789.254 3.57.762 5.344.516 1.773 1.293 3.558 2.332 5.355h-1.875c-1.18-1.859-2.059-3.668-2.637-5.426-.578-1.765-.867-3.523-.867-5.273 0-1.742.289-3.496.867-5.262.578-1.765 1.457-3.57 2.637-5.414h1.875Zm15.27 8.051h-2.954v-2.426l2.297-4.476h1.805l-1.148 4.476v2.426Zm-5.379 0h-2.977v-2.426l2.332-4.476h1.793l-1.148 4.476v2.426Zm22.547.914a4.885 4.885 0 0 0-1.407-.785c-.476-.164-1-.246-1.57-.246-1.344 0-2.371.422-3.082 1.265-.711.844-1.067 2.063-1.067 3.657V262h-2.167v-13.125h2.167v2.566c.36-.929.911-1.64 1.653-2.132.75-.5 1.637-.75 2.66-.75.531 0 1.027.066 1.488.199.461.133.903.34 1.325.621v2.203Zm8.144-1.195c-1.094 0-1.922.425-2.484 1.277-.563.852-.844 2.113-.844 3.785 0 1.664.281 2.926.844 3.785.562.852 1.39 1.278 2.484 1.278 1.102 0 1.934-.426 2.496-1.278.563-.859.844-2.121.844-3.785 0-1.672-.281-2.933-.844-3.785-.562-.852-1.394-1.277-2.496-1.277Zm0-1.828c1.82 0 3.211.589 4.172 1.769.969 1.18 1.453 2.887 1.453 5.121 0 2.242-.48 3.953-1.441 5.133-.961 1.172-2.356 1.758-4.184 1.758-1.82 0-3.211-.586-4.172-1.758-.961-1.18-1.441-2.891-1.441-5.133 0-2.234.48-3.941 1.441-5.121.961-1.18 2.352-1.769 4.172-1.769Zm14.461 1.828c-1.094 0-1.922.425-2.484 1.277-.563.852-.844 2.113-.844 3.785 0 1.664.281 2.926.844 3.785.562.852 1.39 1.278 2.484 1.278 1.102 0 1.934-.426 2.496-1.278.563-.859.844-2.121.844-3.785 0-1.672-.281-2.933-.844-3.785-.562-.852-1.394-1.277-2.496-1.277Zm0-1.828c1.82 0 3.211.589 4.172 1.769.969 1.18 1.453 2.887 1.453 5.121 0 2.242-.48 3.953-1.441 5.133-.961 1.172-2.356 1.758-4.184 1.758-1.82 0-3.211-.586-4.172-1.758-.961-1.18-1.441-2.891-1.441-5.133 0-2.234.48-3.941 1.441-5.121.961-1.18 2.352-1.769 4.172-1.769Zm15.164 1.652c.266-.563.602-.977 1.008-1.242.414-.274.91-.41 1.488-.41 1.055 0 1.797.41 2.227 1.23.437.813.656 2.348.656 4.606V262h-1.969v-7.512c0-1.851-.105-3-.316-3.445-.203-.453-.578-.68-1.125-.68-.625 0-1.055.242-1.289.727-.227.476-.34 1.609-.34 3.398V262h-1.969v-7.512c0-1.875-.113-3.031-.34-3.468-.218-.438-.617-.657-1.195-.657-.57 0-.969.242-1.195.727-.219.476-.328 1.609-.328 3.398V262h-1.958v-13.125h1.958V250c.257-.469.578-.824.96-1.066.391-.25.832-.375 1.325-.375.593 0 1.086.136 1.476.41.399.273.707.687.926 1.242Zm7.734 3.305h12.422v1.98h-12.422v-1.98Zm16.969-4.594h5.52v11.402h4.277V262h-10.711v-1.676h4.277v-9.726h-3.363v-1.676Zm3.363-5.098h2.157v2.719h-2.157v-2.719Zm17.45 6.727v-6.785h2.156V262h-2.156v-1.652c-.36.648-.84 1.144-1.442 1.488-.593.336-1.281.504-2.062.504-1.586 0-2.836-.613-3.75-1.84-.907-1.234-1.36-2.934-1.36-5.098 0-2.132.457-3.804 1.371-5.015.915-1.219 2.161-1.828 3.739-1.828.789 0 1.484.171 2.086.515a3.55 3.55 0 0 1 1.418 1.477Zm-6.34 4.898c0 1.672.265 2.934.797 3.785.531.852 1.316 1.278 2.355 1.278s1.828-.43 2.367-1.289c.547-.86.821-2.118.821-3.774 0-1.664-.274-2.922-.821-3.773-.539-.86-1.328-1.289-2.367-1.289s-1.824.425-2.355 1.277c-.532.852-.797 2.113-.797 3.785Zm19.746-11.683h2.953v2.414l-2.309 4.488h-1.793l1.149-4.488v-2.414Zm-5.379 0h2.953v2.414l-2.297 4.488h-1.804l1.148-4.488v-2.414Zm14.918-1.149h1.875c1.18 1.844 2.059 3.649 2.637 5.414.578 1.766.867 3.52.867 5.262 0 1.758-.289 3.519-.867 5.285-.578 1.766-1.457 3.57-2.637 5.414h-1.875c1.039-1.812 1.812-3.605 2.32-5.379a18.96 18.96 0 0 0 .774-5.32c0-1.781-.258-3.559-.774-5.332-.508-1.773-1.281-3.555-2.32-5.344Z" fill="#191819"/><g filter="url(#f)"><path d="M705 314H414a8 8 0 0 0-8 8v34a8 8 0 0 0 8 8h291a8 8 0 0 0 8-8v-34a8 8 0 0 0-8-8Z" fill="#fff"/></g><path d="M426.797 331.449v6.574h2.742c1.094 0 1.945-.289 2.555-.867.617-.578.926-1.386.926-2.426 0-1.039-.305-1.843-.915-2.414-.609-.578-1.464-.867-2.566-.867h-2.742Zm-2.367-1.945h5.109c1.953 0 3.434.445 4.441 1.336 1.008.883 1.512 2.18 1.512 3.89 0 1.727-.504 3.032-1.512 3.915-1 .882-2.48 1.324-4.441 1.324h-2.742V347h-2.367v-17.496Zm22.758 8.766c0-2.571-.266-4.407-.797-5.508-.524-1.102-1.387-1.653-2.59-1.653-1.196 0-2.059.551-2.59 1.653-.523 1.101-.785 2.937-.785 5.508 0 2.562.262 4.394.785 5.496.531 1.101 1.394 1.652 2.59 1.652 1.203 0 2.066-.547 2.59-1.641.531-1.101.797-2.937.797-5.507Zm2.472 0c0 3.046-.484 5.32-1.453 6.82-.961 1.5-2.43 2.25-4.406 2.25-1.977 0-3.446-.746-4.406-2.238-.961-1.493-1.442-3.77-1.442-6.832 0-3.055.481-5.332 1.442-6.832.968-1.5 2.437-2.25 4.406-2.25 1.976 0 3.445.75 4.406 2.25.969 1.5 1.453 3.777 1.453 6.832Zm13.242-8.168v2.402a9.287 9.287 0 0 0-2.168-1.043 6.997 6.997 0 0 0-2.179-.352c-1.117 0-2 .262-2.649.786-.648.515-.972 1.214-.972 2.097 0 .774.211 1.363.632 1.77.43.406 1.227.746 2.391 1.019l1.242.281c1.641.383 2.836.985 3.586 1.805.75.821 1.125 1.938 1.125 3.352 0 1.664-.515 2.933-1.547 3.808-1.031.875-2.531 1.313-4.5 1.313-.82 0-1.644-.09-2.472-.27a13.46 13.46 0 0 1-2.496-.785v-2.519c.898.57 1.746.988 2.543 1.254a7.708 7.708 0 0 0 2.425.398c1.196 0 2.125-.266 2.789-.797.664-.539.996-1.289.996-2.25 0-.875-.23-1.543-.691-2.004-.453-.461-1.246-.816-2.379-1.066l-1.266-.293c-1.624-.367-2.804-.922-3.539-1.664-.734-.742-1.101-1.739-1.101-2.989 0-1.562.523-2.812 1.57-3.75 1.055-.945 2.453-1.417 4.196-1.417.671 0 1.378.078 2.121.234a15.38 15.38 0 0 1 2.343.68Zm3.153-.598h13.347v1.992h-5.472V347h-2.379v-15.504h-5.496v-1.992Zm38.789 0h2.226l-9.211 19.723h-2.238l9.223-19.723Zm12.269 10.898h-.715c-1.257 0-2.207.223-2.847.668-.633.438-.949 1.094-.949 1.969 0 .789.238 1.402.714 1.84.477.437 1.137.656 1.981.656 1.187 0 2.121-.41 2.801-1.23.679-.828 1.023-1.969 1.031-3.422v-.481h-2.016Zm4.184-.89V347h-2.168v-1.945c-.461.781-1.043 1.359-1.746 1.734-.695.367-1.543.551-2.543.551-1.336 0-2.402-.375-3.199-1.125-.797-.758-1.196-1.77-1.196-3.035 0-1.461.489-2.571 1.465-3.328.985-.758 2.426-1.137 4.324-1.137h2.895v-.34c-.008-1.047-.274-1.805-.797-2.273-.523-.477-1.359-.715-2.508-.715a8.19 8.19 0 0 0-2.226.316c-.75.211-1.481.52-2.192.926v-2.156a14.554 14.554 0 0 1 2.285-.68 10.266 10.266 0 0 1 2.133-.234c1.086 0 2.012.16 2.778.48.773.32 1.398.801 1.875 1.441.296.391.507.875.632 1.454.125.57.188 1.429.188 2.578Zm4.336 2.519v-8.133h2.156v8.133c0 1.18.207 2.047.621 2.602.422.555 1.07.832 1.945.832 1.016 0 1.793-.356 2.333-1.067.539-.718.808-1.746.808-3.082v-7.418h2.168V347h-2.168v-1.969c-.383.758-.906 1.332-1.57 1.723-.656.391-1.426.586-2.309.586-1.344 0-2.344-.438-3-1.313-.656-.882-.984-2.215-.984-3.996Zm19.371-11.883v3.727h4.898v1.676h-4.898v7.125c0 .969.184 1.644.551 2.027.367.383 1.007.574 1.922.574h2.425V347h-2.636c-1.618 0-2.758-.324-3.422-.973-.664-.648-.996-1.765-.996-3.351v-7.125h-3.504v-1.676h3.504v-3.727h2.156Zm19.582 8.719V347h-2.168v-8.133c0-1.179-.207-2.047-.621-2.601-.414-.555-1.063-.832-1.945-.832-1.008 0-1.786.359-2.332 1.078-.54.711-.809 1.734-.809 3.07V347h-2.156v-18.234h2.156v7.078c.383-.75.902-1.317 1.559-1.699.656-.391 1.433-.586 2.332-.586 1.336 0 2.332.441 2.988 1.324.664.875.996 2.203.996 3.984Zm3.34-.351h12.422v1.98h-12.422v-1.98Zm26.39.843v1.055h-9.339v.07c-.063 1.789.277 3.075 1.019 3.856.75.781 1.805 1.172 3.164 1.172a7.72 7.72 0 0 0 2.156-.328c.75-.219 1.551-.551 2.403-.996v2.144c-.821.336-1.614.586-2.379.75a9.943 9.943 0 0 1-2.203.258c-2.039 0-3.633-.61-4.782-1.828-1.148-1.227-1.722-2.914-1.722-5.063 0-2.094.562-3.765 1.687-5.015 1.125-1.25 2.625-1.875 4.5-1.875 1.672 0 2.989.566 3.95 1.699.968 1.133 1.484 2.5 1.546 4.101Zm-2.156-.632c-.094-.907-.426-1.688-.996-2.344-.562-.664-1.375-.996-2.437-.996-1.039 0-1.895.343-2.567 1.031-.672.687-1.039 1.461-1.101 2.32l7.101-.011Zm15.809.14V347h-2.168v-8.133c0-1.179-.207-2.047-.621-2.601-.414-.555-1.063-.832-1.946-.832-1.007 0-1.785.359-2.332 1.078-.539.711-.808 1.734-.808 3.07V347h-2.156v-13.125h2.156v1.969c.383-.75.902-1.317 1.558-1.699.657-.391 1.434-.586 2.332-.586 1.336 0 2.332.441 2.989 1.324.664.875.996 2.203.996 3.984Zm12.199-3.316v-6.785h2.156V347h-2.156v-1.652a3.783 3.783 0 0 1-1.441 1.488c-.594.336-1.282.504-2.063.504-1.586 0-2.836-.613-3.75-1.84-.906-1.234-1.359-2.934-1.359-5.098 0-2.132.457-3.804 1.371-5.015.914-1.219 2.16-1.828 3.738-1.828.789 0 1.484.171 2.086.515.602.336 1.074.828 1.418 1.477Zm-6.34 4.898c0 1.672.266 2.934.797 3.785.531.852 1.316 1.278 2.355 1.278 1.04 0 1.829-.43 2.368-1.289.547-.86.82-2.118.82-3.774 0-1.664-.273-2.922-.82-3.773-.539-.86-1.328-1.289-2.368-1.289-1.039 0-1.824.425-2.355 1.277-.531.852-.797 2.113-.797 3.785Zm15.141 4.899v6.644h-2.168v-18.117h2.168v1.676c.359-.649.836-1.141 1.429-1.477.602-.344 1.293-.515 2.075-.515 1.586 0 2.828.613 3.726 1.839.906 1.227 1.36 2.926 1.36 5.098 0 2.133-.454 3.809-1.36 5.027-.906 1.211-2.148 1.817-3.726 1.817-.797 0-1.496-.168-2.098-.504a3.643 3.643 0 0 1-1.406-1.488Zm6.328-4.899c0-1.672-.266-2.933-.797-3.785-.523-.852-1.305-1.277-2.344-1.277-1.047 0-1.84.429-2.379 1.289-.539.851-.808 2.109-.808 3.773 0 1.656.269 2.914.808 3.774.539.859 1.332 1.289 2.379 1.289 1.039 0 1.821-.426 2.344-1.278.531-.851.797-2.113.797-3.785Zm10.957-5.062c-1.094 0-1.922.425-2.484 1.277-.563.852-.844 2.113-.844 3.785 0 1.664.281 2.926.844 3.785.562.852 1.39 1.278 2.484 1.278 1.101 0 1.934-.426 2.496-1.278.562-.859.844-2.121.844-3.785 0-1.672-.282-2.933-.844-3.785-.562-.852-1.395-1.277-2.496-1.277Zm0-1.828c1.82 0 3.211.589 4.172 1.769.969 1.18 1.453 2.887 1.453 5.121 0 2.242-.481 3.953-1.441 5.133-.961 1.172-2.356 1.758-4.184 1.758-1.82 0-3.211-.586-4.172-1.758-.961-1.18-1.441-2.891-1.441-5.133 0-2.234.48-3.941 1.441-5.121.961-1.18 2.352-1.769 4.172-1.769Zm10.945.363h5.52v11.402h4.277V347h-10.711v-1.676h4.277v-9.726h-3.363v-1.676Zm3.363-5.098h2.157v2.719h-2.157v-2.719Zm19.711 10.043V347h-2.168v-8.133c0-1.179-.207-2.047-.621-2.601-.414-.555-1.062-.832-1.945-.832-1.008 0-1.785.359-2.332 1.078-.539.711-.809 1.734-.809 3.07V347h-2.156v-13.125h2.156v1.969c.383-.75.903-1.317 1.559-1.699.656-.391 1.434-.586 2.332-.586 1.336 0 2.332.441 2.988 1.324.664.875.996 2.203.996 3.984Zm9.34-8.719v3.727h4.899v1.676h-4.899v7.125c0 .969.184 1.644.551 2.027.367.383 1.008.574 1.922.574h2.426V347h-2.637c-1.617 0-2.758-.324-3.422-.973-.664-.648-.996-1.765-.996-3.351v-7.125h-3.504v-1.676h3.504v-3.727h2.156Z" fill="#191819"/><g filter="url(#g)"><path d="M654 753H464a8 8 0 0 0-8 8v34a8 8 0 0 0 8 8h190a8 8 0 0 0 8-8v-34a8 8 0 0 0-8-8Z" fill="#fff"/></g><path d="M485.77 775.582a4.885 4.885 0 0 0-1.407-.785c-.476-.164-1-.246-1.57-.246-1.344 0-2.371.422-3.082 1.265-.711.844-1.066 2.063-1.066 3.657V786h-2.168v-13.125h2.168v2.566c.359-.929.91-1.64 1.652-2.132.75-.5 1.637-.75 2.66-.75.531 0 1.027.066 1.488.199.461.133.903.34 1.325.621v2.203Zm14.05 2.777v1.055h-9.34v.07c-.062 1.789.278 3.075 1.02 3.856.75.781 1.805 1.172 3.164 1.172a7.72 7.72 0 0 0 2.156-.328c.75-.219 1.551-.551 2.403-.996v2.144c-.821.336-1.614.586-2.379.75a9.943 9.943 0 0 1-2.203.258c-2.039 0-3.633-.61-4.782-1.828-1.148-1.227-1.722-2.914-1.722-5.063 0-2.094.562-3.765 1.687-5.015 1.125-1.25 2.625-1.875 4.5-1.875 1.672 0 2.988.566 3.949 1.699.969 1.133 1.485 2.5 1.547 4.101Zm-2.156-.632c-.094-.907-.426-1.688-.996-2.344-.563-.664-1.375-.996-2.438-.996-1.039 0-1.894.343-2.566 1.031-.672.687-1.039 1.461-1.102 2.32l7.102-.011Zm10.688-8.579v3.727h4.898v1.676h-4.898v7.125c0 .969.183 1.644.55 2.027.368.383 1.008.574 1.922.574h2.426V786h-2.637c-1.617 0-2.758-.324-3.422-.973-.664-.648-.996-1.765-.996-3.351v-7.125h-3.504v-1.676h3.504v-3.727h2.157Zm9.55 11.883v-8.133h2.157v8.133c0 1.18.207 2.047.621 2.602.422.555 1.07.832 1.945.832 1.016 0 1.793-.356 2.332-1.067.539-.718.809-1.746.809-3.082v-7.418h2.168V786h-2.168v-1.969c-.383.758-.907 1.332-1.571 1.723-.656.391-1.425.586-2.308.586-1.344 0-2.344-.438-3-1.313-.657-.882-.985-2.215-.985-3.996Zm25.711-5.449a4.88 4.88 0 0 0-1.406-.785 4.8 4.8 0 0 0-1.57-.246c-1.344 0-2.371.422-3.082 1.265-.711.844-1.067 2.063-1.067 3.657V786h-2.168v-13.125h2.168v2.566c.36-.929.91-1.64 1.653-2.132.75-.5 1.636-.75 2.66-.75.531 0 1.027.066 1.488.199.461.133.902.34 1.324.621v2.203Zm13.242 2.285V786h-2.167v-8.133c0-1.179-.208-2.047-.622-2.601-.414-.555-1.062-.832-1.945-.832-1.008 0-1.785.359-2.332 1.078-.539.711-.809 1.734-.809 3.07V786h-2.156v-13.125h2.156v1.969c.383-.75.903-1.317 1.559-1.699.656-.391 1.434-.586 2.332-.586 1.336 0 2.332.441 2.988 1.324.664.875.996 2.203.996 3.984Zm23.801-8.719v3.727h4.899v1.676h-4.899v7.125c0 .969.184 1.644.551 2.027.367.383 1.008.574 1.922.574h2.426V786h-2.637c-1.617 0-2.758-.324-3.422-.973-.664-.648-.996-1.765-.996-3.351v-7.125h-3.504v-1.676h3.504v-3.727h2.156Zm14.485 5.239c-1.094 0-1.922.425-2.485 1.277-.562.852-.844 2.113-.844 3.785 0 1.664.282 2.926.844 3.785.563.852 1.391 1.278 2.485 1.278 1.101 0 1.933-.426 2.496-1.278.562-.859.843-2.121.843-3.785 0-1.672-.281-2.933-.843-3.785-.563-.852-1.395-1.277-2.496-1.277Zm0-1.828c1.82 0 3.211.589 4.171 1.769.969 1.18 1.454 2.887 1.454 5.121 0 2.242-.481 3.953-1.442 5.133-.961 1.172-2.355 1.758-4.183 1.758-1.821 0-3.211-.586-4.172-1.758-.961-1.18-1.442-2.891-1.442-5.133 0-2.234.481-3.941 1.442-5.121.961-1.18 2.351-1.769 4.172-1.769Zm10.007-4.793h2.227v10.558l5.66-5.449h2.625l-5.168 4.945 5.977 8.18h-2.637l-4.852-6.773-1.605 1.511V786h-2.227v-18.234Zm24.821 10.593v1.055h-9.34v.07c-.063 1.789.277 3.075 1.019 3.856.75.781 1.805 1.172 3.164 1.172.688 0 1.407-.11 2.157-.328.75-.219 1.551-.551 2.402-.996v2.144c-.82.336-1.613.586-2.379.75a9.943 9.943 0 0 1-2.203.258c-2.039 0-3.633-.61-4.781-1.828-1.149-1.227-1.723-2.914-1.723-5.063 0-2.094.563-3.765 1.688-5.015 1.125-1.25 2.625-1.875 4.5-1.875 1.672 0 2.988.566 3.949 1.699.969 1.133 1.484 2.5 1.547 4.101Zm-2.157-.632c-.093-.907-.425-1.688-.996-2.344-.562-.664-1.375-.996-2.437-.996-1.039 0-1.895.343-2.567 1.031-.671.687-1.039 1.461-1.101 2.32l7.101-.011Zm15.809.14V786h-2.168v-8.133c0-1.179-.207-2.047-.621-2.601-.414-.555-1.062-.832-1.945-.832-1.008 0-1.785.359-2.332 1.078-.539.711-.809 1.734-.809 3.07V786h-2.156v-13.125h2.156v1.969c.383-.75.902-1.317 1.559-1.699.656-.391 1.433-.586 2.332-.586 1.336 0 2.332.441 2.988 1.324.664.875.996 2.203.996 3.984Z" fill="#191819"/><g filter="url(#h)"><path d="M1248 643h-190a8 8 0 0 0-8 8v34a8 8 0 0 0 8 8h190a8 8 0 0 0 8-8v-34a8 8 0 0 0-8-8Z" fill="#fff"/></g><path d="M1079.77 665.582a4.848 4.848 0 0 0-1.41-.785 4.77 4.77 0 0 0-1.57-.246c-1.34 0-2.37.422-3.08 1.265-.71.844-1.06 2.063-1.06 3.657V676h-2.17v-13.125h2.17v2.566c.35-.929.91-1.64 1.65-2.132.75-.5 1.63-.75 2.66-.75.53 0 1.02.066 1.49.199.46.133.9.34 1.32.621v2.203Zm14.05 2.777v1.055h-9.34v.07c-.06 1.789.28 3.075 1.02 3.856.75.781 1.81 1.172 3.16 1.172.69 0 1.41-.11 2.16-.328.75-.219 1.55-.551 2.4-.996v2.144c-.82.336-1.61.586-2.38.75a9.87 9.87 0 0 1-2.2.258c-2.04 0-3.63-.61-4.78-1.828-1.15-1.227-1.72-2.914-1.72-5.063 0-2.094.56-3.765 1.68-5.015 1.13-1.25 2.63-1.875 4.5-1.875 1.68 0 2.99.566 3.95 1.699.97 1.133 1.49 2.5 1.55 4.101Zm-2.16-.632c-.09-.907-.42-1.688-.99-2.344-.56-.664-1.38-.996-2.44-.996-1.04 0-1.89.343-2.57 1.031-.67.687-1.03 1.461-1.1 2.32l7.1-.011Zm10.69-8.579v3.727h4.9v1.676h-4.9v7.125c0 .969.19 1.644.55 2.027.37.383 1.01.574 1.92.574h2.43V676h-2.64c-1.61 0-2.75-.324-3.42-.973-.66-.648-.99-1.765-.99-3.351v-7.125h-3.51v-1.676h3.51v-3.727h2.15Zm9.55 11.883v-8.133h2.16v8.133c0 1.18.21 2.047.62 2.602.42.555 1.07.832 1.95.832 1.01 0 1.79-.356 2.33-1.067.54-.718.81-1.746.81-3.082v-7.418h2.16V676h-2.16v-1.969c-.39.758-.91 1.332-1.57 1.723s-1.43.586-2.31.586c-1.35 0-2.35-.438-3-1.313-.66-.882-.99-2.215-.99-3.996Zm25.71-5.449a4.933 4.933 0 0 0-1.4-.785c-.48-.164-1-.246-1.57-.246-1.35 0-2.37.422-3.09 1.265-.71.844-1.06 2.063-1.06 3.657V676h-2.17v-13.125h2.17v2.566c.36-.929.91-1.64 1.65-2.132.75-.5 1.64-.75 2.66-.75.53 0 1.03.066 1.49.199.46.133.9.34 1.32.621v2.203Zm13.25 2.285V676h-2.17v-8.133c0-1.179-.21-2.047-.62-2.601-.42-.555-1.07-.832-1.95-.832-1.01 0-1.78.359-2.33 1.078-.54.711-.81 1.734-.81 3.07V676h-2.16v-13.125h2.16v1.969c.38-.75.9-1.317 1.56-1.699.66-.391 1.43-.586 2.33-.586 1.34 0 2.33.441 2.99 1.324.66.875 1 2.203 1 3.984Zm23.8-8.719v3.727h4.89v1.676h-4.89v7.125c0 .969.18 1.644.55 2.027.36.383 1 .574 1.92.574h2.42V676h-2.63c-1.62 0-2.76-.324-3.42-.973-.67-.648-1-1.765-1-3.351v-7.125h-3.5v-1.676h3.5v-3.727h2.16Zm14.48 5.239c-1.09 0-1.92.425-2.48 1.277-.57.852-.85 2.113-.85 3.785 0 1.664.28 2.926.85 3.785.56.852 1.39 1.278 2.48 1.278 1.1 0 1.93-.426 2.5-1.278.56-.859.84-2.121.84-3.785 0-1.672-.28-2.933-.84-3.785-.57-.852-1.4-1.277-2.5-1.277Zm0-1.828c1.82 0 3.21.589 4.17 1.769.97 1.18 1.46 2.887 1.46 5.121 0 2.242-.48 3.953-1.45 5.133-.96 1.172-2.35 1.758-4.18 1.758-1.82 0-3.21-.586-4.17-1.758-.96-1.18-1.44-2.891-1.44-5.133 0-2.234.48-3.941 1.44-5.121.96-1.18 2.35-1.769 4.17-1.769Zm10.01-4.793h2.23v10.558l5.66-5.449h2.62l-5.17 4.945 5.98 8.18h-2.64l-4.85-6.773-1.6 1.511V676h-2.23v-18.234Zm24.82 10.593v1.055h-9.34v.07c-.06 1.789.28 3.075 1.02 3.856.75.781 1.8 1.172 3.16 1.172.69 0 1.41-.11 2.16-.328.75-.219 1.55-.551 2.4-.996v2.144c-.82.336-1.61.586-2.38.75-.76.172-1.49.258-2.2.258-2.04 0-3.63-.61-4.78-1.828-1.15-1.227-1.72-2.914-1.72-5.063 0-2.094.56-3.765 1.68-5.015 1.13-1.25 2.63-1.875 4.5-1.875 1.67 0 2.99.566 3.95 1.699.97 1.133 1.49 2.5 1.55 4.101Zm-2.16-.632c-.09-.907-.42-1.688-.99-2.344-.57-.664-1.38-.996-2.44-.996-1.04 0-1.9.343-2.57 1.031-.67.687-1.04 1.461-1.1 2.32l7.1-.011Zm15.81.14V676h-2.17v-8.133c0-1.179-.2-2.047-.62-2.601-.41-.555-1.06-.832-1.94-.832-1.01 0-1.79.359-2.34 1.078-.53.711-.8 1.734-.8 3.07V676h-2.16v-13.125h2.16v1.969c.38-.75.9-1.317 1.55-1.699.66-.391 1.44-.586 2.34-.586 1.33 0 2.33.441 2.98 1.324.67.875 1 2.203 1 3.984Z" fill="#191819"/><g filter="url(#i)"><path d="M1313 414H993a8 8 0 0 0-8 8v152a8 8 0 0 0 8 8h320a8 8 0 0 0 8-8V422a8 8 0 0 0-8-8Z" fill="#fff"/></g><path d="M1009.23 448.402h-.72c-1.26 0-2.2.223-2.85.668-.63.438-.94 1.094-.94 1.969 0 .789.23 1.402.71 1.84.48.437 1.14.656 1.98.656 1.19 0 2.12-.41 2.8-1.23.68-.828 1.02-1.969 1.03-3.422v-.481h-2.01Zm4.18-.89V455h-2.17v-1.945c-.46.781-1.04 1.359-1.74 1.734-.7.367-1.55.551-2.55.551-1.33 0-2.4-.375-3.2-1.125-.79-.758-1.19-1.77-1.19-3.035 0-1.461.49-2.571 1.46-3.328.99-.758 2.43-1.137 4.33-1.137h2.89v-.34c-.01-1.047-.27-1.805-.79-2.273-.53-.477-1.36-.715-2.51-.715-.74 0-1.48.105-2.23.316a9.69 9.69 0 0 0-2.19.926v-2.156c.8-.305 1.56-.532 2.28-.68.74-.156 1.45-.234 2.14-.234 1.08 0 2.01.16 2.78.48.77.32 1.39.801 1.87 1.441.3.391.51.875.63 1.454.13.57.19 1.429.19 2.578Zm4.34 2.519v-8.133h2.15v8.133c0 1.18.21 2.047.62 2.602.43.555 1.07.832 1.95.832 1.01 0 1.79-.356 2.33-1.067.54-.718.81-1.746.81-3.082v-7.418h2.17V455h-2.17v-1.969c-.38.758-.91 1.332-1.57 1.723s-1.43.586-2.31.586c-1.34 0-2.34-.438-3-1.313-.66-.882-.98-2.215-.98-3.996Zm19.37-11.883v3.727h4.9v1.676h-4.9v7.125c0 .969.18 1.644.55 2.027.37.383 1.01.574 1.92.574h2.43V455h-2.64c-1.62 0-2.76-.324-3.42-.973-.67-.648-1-1.765-1-3.351v-7.125h-3.5v-1.676h3.5v-3.727h2.16Zm19.58 8.719V455h-2.17v-8.133c0-1.179-.21-2.047-.62-2.601-.41-.555-1.06-.832-1.94-.832-1.01 0-1.79.359-2.34 1.078-.54.711-.81 1.734-.81 3.07V455h-2.15v-18.234h2.15v7.078c.39-.75.91-1.317 1.56-1.699.66-.391 1.44-.586 2.34-.586 1.33 0 2.33.441 2.98 1.324.67.875 1 2.203 1 3.984Zm9.36-3.48c-1.09 0-1.92.425-2.48 1.277-.56.852-.85 2.113-.85 3.785 0 1.664.29 2.926.85 3.785.56.852 1.39 1.278 2.48 1.278 1.1 0 1.94-.426 2.5-1.278.56-.859.84-2.121.84-3.785 0-1.672-.28-2.933-.84-3.785-.56-.852-1.4-1.277-2.5-1.277Zm0-1.828c1.82 0 3.21.589 4.17 1.769.97 1.18 1.46 2.887 1.46 5.121 0 2.242-.48 3.953-1.44 5.133-.97 1.172-2.36 1.758-4.19 1.758-1.82 0-3.21-.586-4.17-1.758-.96-1.18-1.44-2.891-1.44-5.133 0-2.234.48-3.941 1.44-5.121.96-1.18 2.35-1.769 4.17-1.769Zm20.78 3.023a4.848 4.848 0 0 0-1.41-.785 4.77 4.77 0 0 0-1.57-.246c-1.34 0-2.37.422-3.08 1.265-.71.844-1.06 2.063-1.06 3.657V455h-2.17v-13.125h2.17v2.566c.35-.929.91-1.64 1.65-2.132.75-.5 1.63-.75 2.66-.75.53 0 1.02.066 1.49.199.46.133.9.34 1.32.621v2.203Zm4.63-2.66h5.52v11.402h4.28V455h-10.72v-1.676h4.28v-9.726h-3.36v-1.676Zm3.36-5.098h2.16v2.719h-2.16v-2.719Zm10.06 5.028h9.52v1.968l-7.53 9.422h7.53V455h-9.81v-1.992l7.54-9.434h-7.25v-1.722Zm24.92 5.507v1.055h-9.34v.07c-.06 1.789.28 3.075 1.02 3.856.75.781 1.81 1.172 3.17 1.172.68 0 1.4-.11 2.15-.328.75-.219 1.55-.551 2.4-.996v2.144c-.82.336-1.61.586-2.37.75-.76.172-1.5.258-2.21.258-2.04 0-3.63-.61-4.78-1.828-1.15-1.227-1.72-2.914-1.72-5.063 0-2.094.56-3.765 1.69-5.015 1.12-1.25 2.62-1.875 4.5-1.875 1.67 0 2.98.566 3.95 1.699.96 1.133 1.48 2.5 1.54 4.101Zm-2.15-.632c-.1-.907-.43-1.688-1-2.344-.56-.664-1.37-.996-2.44-.996-1.04 0-1.89.343-2.56 1.031-.68.687-1.04 1.461-1.11 2.32l7.11-.011Zm13.51-11.11c-1.04 1.781-1.82 3.559-2.33 5.332a19.178 19.178 0 0 0-.77 5.344c0 1.789.26 3.57.77 5.344.51 1.773 1.29 3.558 2.33 5.355h-1.88c-1.18-1.859-2.06-3.668-2.63-5.426-.58-1.765-.87-3.523-.87-5.273 0-1.742.29-3.496.87-5.262.57-1.765 1.45-3.57 2.63-5.414h1.88Zm16.53 19.981v1.687h-.75c-1.94 0-3.25-.289-3.91-.867-.66-.578-.99-1.73-.99-3.457v-2.344c0-.851-.24-1.586-.72-2.203-.48-.617-1.22-.926-2.23-.926h-1.43v-1.676h1.43c1.1 0 1.87-.261 2.3-.785.44-.523.65-1.293.65-2.308v-3.047c0-1.727.33-2.875.99-3.445.66-.579 1.97-.868 3.91-.868h.75v1.676h-.82c-1.09 0-1.81.172-2.14.516-.33.336-.49 1.058-.49 2.168v3.14c0 1.375-.27 2.301-.81 2.778-.54.468-1.59.808-3.15 1.019 1.51.18 2.55.528 3.11 1.043.56.508.85 1.43.85 2.766v2.449c0 1.117.16 1.844.49 2.18.33.336 1.05.504 2.14.504h.82Zm-114.24 22.984a4.848 4.848 0 0 0-1.41-.785c-.48-.164-1-.246-1.57-.246-1.34 0-2.37.422-3.08 1.265-.71.844-1.07 2.063-1.07 3.657V489h-2.17v-13.125h2.17v2.566c.36-.929.91-1.64 1.65-2.132.75-.5 1.64-.75 2.67-.75.53 0 1.02.066 1.48.199.46.133.9.34 1.33.621v2.203Zm8.14-1.195c-1.09 0-1.92.425-2.48 1.277-.56.852-.85 2.113-.85 3.785 0 1.664.29 2.926.85 3.785.56.852 1.39 1.278 2.48 1.278 1.1 0 1.94-.426 2.5-1.278.56-.859.84-2.121.84-3.785 0-1.672-.28-2.933-.84-3.785-.56-.852-1.4-1.277-2.5-1.277Zm0-1.828c1.82 0 3.21.589 4.17 1.769.97 1.18 1.46 2.887 1.46 5.121 0 2.242-.48 3.953-1.45 5.133-.96 1.172-2.35 1.758-4.18 1.758-1.82 0-3.21-.586-4.17-1.758-.96-1.18-1.44-2.891-1.44-5.133 0-2.234.48-3.941 1.44-5.121.96-1.18 2.35-1.769 4.17-1.769Zm14.46 1.828c-1.09 0-1.92.425-2.48 1.277-.56.852-.85 2.113-.85 3.785 0 1.664.29 2.926.85 3.785.56.852 1.39 1.278 2.48 1.278 1.1 0 1.94-.426 2.5-1.278.56-.859.84-2.121.84-3.785 0-1.672-.28-2.933-.84-3.785-.56-.852-1.4-1.277-2.5-1.277Zm0-1.828c1.82 0 3.21.589 4.17 1.769.97 1.18 1.46 2.887 1.46 5.121 0 2.242-.48 3.953-1.44 5.133-.97 1.172-2.36 1.758-4.19 1.758-1.82 0-3.21-.586-4.17-1.758-.96-1.18-1.44-2.891-1.44-5.133 0-2.234.48-3.941 1.44-5.121.96-1.18 2.35-1.769 4.17-1.769Zm15.17 1.652c.26-.563.6-.977 1-1.242.42-.274.92-.41 1.49-.41 1.06 0 1.8.41 2.23 1.23.44.813.65 2.348.65 4.606V489h-1.96v-7.512c0-1.851-.11-3-.32-3.445-.2-.453-.58-.68-1.12-.68-.63 0-1.06.242-1.29.727-.23.476-.34 1.609-.34 3.398V489h-1.97v-7.512c0-1.875-.12-3.031-.34-3.468-.22-.438-.62-.657-1.2-.657-.57 0-.97.242-1.19.727-.22.476-.33 1.609-.33 3.398V489h-1.96v-13.125h1.96V477c.26-.469.58-.824.96-1.066.39-.25.83-.375 1.32-.375.6 0 1.09.136 1.48.41.4.273.71.687.93 1.242Zm11.56-1.324h3.66v4.23h-3.66v-4.23Zm0 8.847h3.66V489h-3.66v-4.266Zm37.43-6.152a4.933 4.933 0 0 0-1.4-.785c-.48-.164-1-.246-1.57-.246-1.35 0-2.37.422-3.09 1.265-.71.844-1.06 2.063-1.06 3.657V489h-2.17v-13.125h2.17v2.566c.36-.929.91-1.64 1.65-2.132.75-.5 1.64-.75 2.66-.75.53 0 1.03.066 1.49.199.46.133.9.34 1.32.621v2.203Zm8.15-1.195c-1.1 0-1.92.425-2.49 1.277-.56.852-.84 2.113-.84 3.785 0 1.664.28 2.926.84 3.785.57.852 1.39 1.278 2.49 1.278 1.1 0 1.93-.426 2.49-1.278.57-.859.85-2.121.85-3.785 0-1.672-.28-2.933-.85-3.785-.56-.852-1.39-1.277-2.49-1.277Zm0-1.828c1.82 0 3.21.589 4.17 1.769.97 1.18 1.45 2.887 1.45 5.121 0 2.242-.48 3.953-1.44 5.133-.96 1.172-2.35 1.758-4.18 1.758-1.82 0-3.21-.586-4.17-1.758-.97-1.18-1.45-2.891-1.45-5.133 0-2.234.48-3.941 1.45-5.121.96-1.18 2.35-1.769 4.17-1.769Zm14.46 1.828c-1.1 0-1.92.425-2.49 1.277-.56.852-.84 2.113-.84 3.785 0 1.664.28 2.926.84 3.785.57.852 1.39 1.278 2.49 1.278 1.1 0 1.93-.426 2.49-1.278.57-.859.85-2.121.85-3.785 0-1.672-.28-2.933-.85-3.785-.56-.852-1.39-1.277-2.49-1.277Zm0-1.828c1.82 0 3.21.589 4.17 1.769.97 1.18 1.45 2.887 1.45 5.121 0 2.242-.48 3.953-1.44 5.133-.96 1.172-2.35 1.758-4.18 1.758-1.82 0-3.21-.586-4.17-1.758-.96-1.18-1.45-2.891-1.45-5.133 0-2.234.49-3.941 1.45-5.121.96-1.18 2.35-1.769 4.17-1.769Zm15.16 1.652c.27-.563.6-.977 1.01-1.242.41-.274.91-.41 1.49-.41 1.05 0 1.8.41 2.22 1.23.44.813.66 2.348.66 4.606V489h-1.97v-7.512c0-1.851-.1-3-.31-3.445-.21-.453-.58-.68-1.13-.68-.62 0-1.05.242-1.29.727-.22.476-.34 1.609-.34 3.398V489h-1.97v-7.512c0-1.875-.11-3.031-.34-3.468-.22-.438-.61-.657-1.19-.657-.57 0-.97.242-1.2.727-.22.476-.33 1.609-.33 3.398V489h-1.95v-13.125h1.95V477c.26-.469.58-.824.97-1.066.39-.25.83-.375 1.32-.375.59 0 1.09.136 1.48.41.39.273.7.687.92 1.242Zm11.72 7.559h3.66v3.105l-2.6 5.051-2.35.012 1.29-5.063v-3.105Zm-138.39 25.562v2.109a7.95 7.95 0 0 0-1.86-.808c-.62-.18-1.26-.27-1.91-.27-.98 0-1.71.16-2.19.481-.48.312-.71.793-.71 1.441 0 .586.17 1.024.53 1.313.36.289 1.26.57 2.69.843l.86.164c1.08.204 1.88.61 2.43 1.219.55.61.83 1.403.83 2.379 0 1.297-.46 2.313-1.38 3.047-.92.727-2.2 1.09-3.84 1.09-.65 0-1.33-.07-2.04-.211-.71-.133-1.48-.336-2.31-.609v-2.227c.8.414 1.57.727 2.31.937.73.204 1.43.305 2.08.305.96 0 1.69-.191 2.22-.574.52-.391.78-.934.78-1.629 0-1-.96-1.691-2.87-2.074l-.09-.024-.81-.164c-1.24-.242-2.15-.648-2.72-1.218-.57-.579-.85-1.364-.85-2.356 0-1.258.42-2.226 1.27-2.906.85-.688 2.07-1.031 3.65-1.031.7 0 1.38.066 2.02.199.65.125 1.29.316 1.91.574Zm16.19 5.027v1.055h-9.34v.07c-.06 1.789.27 3.075 1.02 3.856.75.781 1.8 1.172 3.16 1.172.69 0 1.41-.11 2.16-.328.75-.219 1.55-.551 2.4-.996v2.144c-.82.336-1.61.586-2.38.75-.76.172-1.49.258-2.2.258-2.04 0-3.64-.61-4.78-1.828-1.15-1.227-1.73-2.914-1.73-5.063 0-2.094.57-3.765 1.69-5.015 1.13-1.25 2.63-1.875 4.5-1.875 1.67 0 2.99.566 3.95 1.699.97 1.133 1.48 2.5 1.55 4.101Zm-2.16-.632c-.09-.907-.42-1.688-1-2.344-.56-.664-1.37-.996-2.43-.996-1.04 0-1.9.343-2.57 1.031-.67.687-1.04 1.461-1.1 2.32l7.1-.011Zm15.93 7.605a7.31 7.31 0 0 1-1.8.75c-.6.172-1.23.258-1.87.258-2.03 0-3.62-.61-4.77-1.828-1.14-1.219-1.71-2.907-1.71-5.063 0-2.156.57-3.844 1.71-5.062 1.15-1.219 2.74-1.828 4.77-1.828.63 0 1.25.082 1.85.246.6.164 1.21.418 1.82.761v2.262c-.57-.508-1.15-.875-1.73-1.101-.57-.227-1.21-.34-1.94-.34-1.35 0-2.39.437-3.12 1.312-.72.875-1.09 2.125-1.09 3.75 0 1.617.37 2.867 1.09 3.75.74.875 1.78 1.313 3.12 1.313.75 0 1.42-.114 2.01-.34.6-.234 1.15-.594 1.66-1.078v2.238Zm15.56-9.75a4.848 4.848 0 0 0-1.41-.785 4.77 4.77 0 0 0-1.57-.246c-1.34 0-2.37.422-3.08 1.265-.71.844-1.06 2.063-1.06 3.657V523h-2.17v-13.125h2.17v2.566c.35-.929.91-1.64 1.65-2.132.75-.5 1.63-.75 2.66-.75.53 0 1.02.066 1.49.199.46.133.9.34 1.32.621v2.203Zm14.05 2.777v1.055h-9.34v.07c-.06 1.789.28 3.075 1.02 3.856.75.781 1.81 1.172 3.16 1.172.69 0 1.41-.11 2.16-.328.75-.219 1.55-.551 2.4-.996v2.144c-.82.336-1.61.586-2.38.75a9.87 9.87 0 0 1-2.2.258c-2.04 0-3.63-.61-4.78-1.828-1.15-1.227-1.72-2.914-1.72-5.063 0-2.094.56-3.765 1.69-5.015 1.12-1.25 2.62-1.875 4.5-1.875 1.67 0 2.98.566 3.94 1.699.97 1.133 1.49 2.5 1.55 4.101Zm-2.16-.632c-.09-.907-.42-1.688-.99-2.344-.56-.664-1.38-.996-2.44-.996-1.04 0-1.89.343-2.57 1.031-.67.687-1.04 1.461-1.1 2.32l7.1-.011Zm10.69-8.579v3.727h4.9v1.676h-4.9v7.125c0 .969.19 1.644.55 2.027.37.383 1.01.574 1.93.574h2.42V523h-2.64c-1.61 0-2.75-.324-3.42-.973-.66-.648-.99-1.765-.99-3.351v-7.125h-3.51v-1.676h3.51v-3.727h2.15Zm12.3 3.739h3.65v4.23h-3.65v-4.23Zm0 8.847h3.65V523h-3.65v-4.266Zm35.75-12.632v2.402a9.28 9.28 0 0 0-2.17-1.043 6.984 6.984 0 0 0-2.18-.352c-1.12 0-2 .262-2.65.786-.65.515-.97 1.214-.97 2.097 0 .774.21 1.363.63 1.77.43.406 1.23.746 2.39 1.019l1.25.281c1.64.383 2.83.985 3.58 1.805.75.821 1.13 1.938 1.13 3.352 0 1.664-.52 2.933-1.55 3.808s-2.53 1.313-4.5 1.313c-.82 0-1.64-.09-2.47-.27-.83-.172-1.66-.433-2.5-.785v-2.519c.9.57 1.75.988 2.54 1.254.81.265 1.62.398 2.43.398 1.19 0 2.12-.266 2.79-.797.66-.539.99-1.289.99-2.25 0-.875-.23-1.543-.69-2.004-.45-.461-1.24-.816-2.38-1.066l-1.26-.293c-1.63-.367-2.81-.922-3.54-1.664-.73-.742-1.1-1.739-1.1-2.989 0-1.562.52-2.812 1.57-3.75 1.05-.945 2.45-1.417 4.19-1.417.68 0 1.38.078 2.12.234.75.148 1.53.375 2.35.68Zm4.91-.598h10.38v1.992h-8.01v4.711h7.66v1.992h-7.66v6.809h8.23V523h-10.6v-17.496Zm24.73 16.875c-.61.32-1.22.559-1.86.715-.63.164-1.3.246-2.01.246-2.24 0-3.99-.793-5.23-2.379-1.23-1.586-1.85-3.816-1.85-6.691 0-2.86.62-5.086 1.86-6.68 1.25-1.602 2.99-2.402 5.22-2.402.71 0 1.38.082 2.01.246.64.156 1.25.394 1.86.714v2.426c-.58-.476-1.2-.84-1.87-1.09a5.62 5.62 0 0 0-2-.375c-1.54 0-2.69.594-3.46 1.782-.76 1.187-1.15 2.98-1.15 5.379 0 2.39.39 4.179 1.15 5.367.77 1.187 1.92 1.781 3.46 1.781.69 0 1.36-.125 2.01-.375.67-.25 1.29-.613 1.86-1.09v2.426Zm10.79-7.641a3.29 3.29 0 0 1 1.56.891c.43.43.96 1.293 1.6 2.59l2.38 4.781h-2.54l-2.09-4.418c-.6-1.258-1.14-2.066-1.63-2.426-.47-.367-1.1-.551-1.87-.551h-2.26V523h-2.38v-17.496h4.87c1.92 0 3.4.434 4.42 1.301s1.54 2.121 1.54 3.761c0 1.157-.32 2.102-.95 2.836-.63.727-1.51 1.172-2.65 1.336Zm-4.85-7.289v6.211h2.59c1.13 0 1.97-.254 2.53-.762.55-.507.83-1.285.83-2.332 0-1.007-.3-1.777-.89-2.308-.59-.539-1.44-.809-2.57-.809h-2.49Zm12.71-1.945h10.38v1.992h-8.01v4.711h7.66v1.992h-7.66v6.809h8.24V523h-10.61v-17.496Zm12.7 0h13.35v1.992h-5.47V523h-2.38v-15.504h-5.5v-1.992Zm28.26 19.723v1.992h-14.34v-1.992h14.34Zm1.72-19.723h2.38v7.781l7.39-7.781h2.78l-6.81 7.148 7.01 10.348h-2.86l-5.71-8.766-1.8 1.922V523h-2.38v-17.496Zm15.17 0h10.38v1.992h-8.02v4.711h7.67v1.992h-7.67v6.809h8.24V523h-10.6v-17.496Zm12.58 0h2.52l4.27 7.723 4.25-7.723h2.54l-5.61 9.644V523h-2.38v-7.852l-5.59-9.644Zm19.21 13.266h3.65v3.105l-2.6 5.051-2.34.012 1.29-5.063v-3.105Zm-291.01 38.828c1.09 0 1.8-.168 2.13-.504.34-.336.5-1.063.5-2.18v-2.449c0-1.336.29-2.258.85-2.766.56-.515 1.6-.863 3.11-1.043-1.56-.211-2.61-.551-3.15-1.019-.54-.477-.81-1.403-.81-2.778v-3.14c0-1.11-.16-1.832-.5-2.168-.33-.344-1.04-.516-2.13-.516h-.82v-1.676h.75c1.94 0 3.24.289 3.9.868.66.57 1 1.718 1 3.445v3.047c0 1.015.21 1.785.64 2.308.44.524 1.21.785 2.31.785h1.43v1.676h-1.43c-1.01 0-1.76.309-2.24.926-.48.617-.71 1.352-.71 2.203v2.344c0 1.727-.34 2.879-1 3.457-.66.578-1.96.867-3.9.867h-.75v-1.687h.82Zm15.15-19.981h1.87c1.18 1.844 2.06 3.649 2.64 5.414.58 1.766.87 3.52.87 5.262 0 1.758-.29 3.519-.87 5.285-.58 1.766-1.46 3.57-2.64 5.414h-1.87c1.04-1.812 1.81-3.605 2.32-5.379a18.81 18.81 0 0 0 0-10.652c-.51-1.773-1.28-3.555-2.32-5.344Z" fill="#191819"/><g filter="url(#j)"><path d="M971 863H738a8 8 0 0 0-8 8v34a8 8 0 0 0 8 8h233a8 8 0 0 0 8-8v-34a8 8 0 0 0-8-8Z" fill="#fff"/></g><path d="M747.766 889.285v-10.781h2.379v11.859c0 .852.023 1.461.07 1.828.047.36.129.637.246.832.25.461.609.809 1.078 1.043.477.235 1.051.352 1.723.352.679 0 1.254-.117 1.722-.352a2.506 2.506 0 0 0 1.09-1.043c.117-.195.199-.472.246-.832.047-.359.071-.961.071-1.804v-11.883h2.367v10.781c0 1.789-.113 3.063-.34 3.82a3.938 3.938 0 0 1-1.148 1.864A5.107 5.107 0 0 1 755.5 896c-.664.227-1.41.34-2.238.34-.821 0-1.563-.113-2.227-.34a5.22 5.22 0 0 1-1.781-1.031c-.539-.485-.922-1.11-1.149-1.875-.226-.774-.339-2.043-.339-3.809Zm17.132 5.063v6.644h-2.168v-18.117h2.168v1.676c.36-.649.836-1.141 1.43-1.477.602-.344 1.293-.515 2.074-.515 1.586 0 2.828.613 3.727 1.839.906 1.227 1.359 2.926 1.359 5.098 0 2.133-.453 3.809-1.359 5.027-.906 1.211-2.149 1.817-3.727 1.817-.797 0-1.496-.168-2.097-.504a3.652 3.652 0 0 1-1.407-1.488Zm6.329-4.899c0-1.672-.266-2.933-.797-3.785-.524-.852-1.305-1.277-2.344-1.277-1.047 0-1.84.429-2.379 1.289-.539.851-.809 2.109-.809 3.773 0 1.656.27 2.914.809 3.774.539.859 1.332 1.289 2.379 1.289 1.039 0 1.82-.426 2.344-1.278.531-.851.797-2.113.797-3.785Zm13.793-4.898v-6.785h2.156V896h-2.156v-1.652c-.36.648-.84 1.144-1.442 1.488-.594.336-1.281.504-2.062.504-1.586 0-2.836-.613-3.75-1.84-.907-1.234-1.36-2.934-1.36-5.098 0-2.132.457-3.804 1.371-5.015.914-1.219 2.161-1.828 3.739-1.828.789 0 1.484.171 2.086.515a3.55 3.55 0 0 1 1.418 1.477Zm-6.34 4.898c0 1.672.265 2.934.797 3.785.531.852 1.316 1.278 2.355 1.278s1.828-.43 2.367-1.289c.547-.86.821-2.118.821-3.774 0-1.664-.274-2.922-.821-3.773-.539-.86-1.328-1.289-2.367-1.289s-1.824.425-2.355 1.277c-.532.852-.797 2.113-.797 3.785Zm18.972-.047h-.714c-1.258 0-2.208.223-2.848.668-.633.438-.949 1.094-.949 1.969 0 .789.238 1.402.714 1.84.477.437 1.137.656 1.981.656 1.187 0 2.121-.41 2.801-1.23.679-.828 1.023-1.969 1.031-3.422v-.481h-2.016Zm4.184-.89V896h-2.168v-1.945c-.461.781-1.043 1.359-1.746 1.734-.695.367-1.543.551-2.543.551-1.336 0-2.402-.375-3.199-1.125-.797-.758-1.196-1.77-1.196-3.035 0-1.461.489-2.571 1.465-3.328.985-.758 2.426-1.137 4.324-1.137h2.895v-.34c-.008-1.047-.273-1.805-.797-2.273-.523-.477-1.359-.715-2.508-.715a8.19 8.19 0 0 0-2.226.316c-.75.211-1.481.52-2.192.926v-2.156a14.554 14.554 0 0 1 2.285-.68 10.266 10.266 0 0 1 2.133-.234c1.086 0 2.012.16 2.778.48.773.32 1.398.801 1.875 1.441.296.391.507.875.632 1.454.125.57.188 1.429.188 2.578Zm9.246-9.364v3.727h4.898v1.676h-4.898v7.125c0 .969.184 1.644.551 2.027.367.383 1.008.574 1.922.574h2.425V896h-2.636c-1.617 0-2.758-.324-3.422-.973-.664-.648-.996-1.765-.996-3.351v-7.125h-3.504v-1.676h3.504v-3.727h2.156Zm20.391 9.211v1.055h-9.34v.07c-.063 1.789.277 3.075 1.019 3.856.75.781 1.805 1.172 3.164 1.172.688 0 1.407-.11 2.157-.328.75-.219 1.55-.551 2.402-.996v2.144c-.82.336-1.613.586-2.379.75a9.943 9.943 0 0 1-2.203.258c-2.039 0-3.633-.61-4.781-1.828-1.149-1.227-1.723-2.914-1.723-5.063 0-2.094.563-3.765 1.688-5.015 1.125-1.25 2.625-1.875 4.5-1.875 1.671 0 2.988.566 3.949 1.699.969 1.133 1.484 2.5 1.547 4.101Zm-2.157-.632c-.093-.907-.425-1.688-.996-2.344-.562-.664-1.375-.996-2.437-.996-1.039 0-1.895.343-2.567 1.031-.671.687-1.039 1.461-1.101 2.32l7.101-.011Zm22.348 6.621v6.644h-2.168v-18.117h2.168v1.676c.359-.649.836-1.141 1.43-1.477.601-.344 1.293-.515 2.074-.515 1.586 0 2.828.613 3.727 1.839.906 1.227 1.359 2.926 1.359 5.098 0 2.133-.453 3.809-1.359 5.027-.907 1.211-2.149 1.817-3.727 1.817-.797 0-1.496-.168-2.098-.504a3.656 3.656 0 0 1-1.406-1.488Zm6.328-4.899c0-1.672-.265-2.933-.797-3.785-.523-.852-1.304-1.277-2.343-1.277-1.047 0-1.84.429-2.379 1.289-.539.851-.809 2.109-.809 3.773 0 1.656.27 2.914.809 3.774.539.859 1.332 1.289 2.379 1.289 1.039 0 1.82-.426 2.343-1.278.532-.851.797-2.113.797-3.785Zm17.274-3.867a4.885 4.885 0 0 0-1.407-.785c-.476-.164-1-.246-1.57-.246-1.344 0-2.371.422-3.082 1.265-.711.844-1.066 2.063-1.066 3.657V896h-2.168v-13.125h2.168v2.566c.359-.929.91-1.64 1.652-2.132.75-.5 1.637-.75 2.66-.75.531 0 1.027.066 1.488.199.461.133.903.34 1.325.621v2.203Zm14.05 2.777v1.055h-9.339v.07c-.063 1.789.277 3.075 1.019 3.856.75.781 1.805 1.172 3.164 1.172a7.72 7.72 0 0 0 2.156-.328c.75-.219 1.551-.551 2.403-.996v2.144c-.821.336-1.614.586-2.379.75a9.943 9.943 0 0 1-2.203.258c-2.039 0-3.633-.61-4.782-1.828-1.148-1.227-1.722-2.914-1.722-5.063 0-2.094.562-3.765 1.687-5.015 1.125-1.25 2.625-1.875 4.5-1.875 1.672 0 2.989.566 3.95 1.699.968 1.133 1.484 2.5 1.546 4.101Zm-2.156-.632c-.094-.907-.426-1.688-.996-2.344-.562-.664-1.375-.996-2.437-.996-1.039 0-1.895.343-2.567 1.031-.672.687-1.039 1.461-1.101 2.32l7.101-.011Zm14.895-4.395v2.109a8.2 8.2 0 0 0-1.864-.808 6.865 6.865 0 0 0-1.91-.27c-.976 0-1.707.16-2.191.481-.477.312-.715.793-.715 1.441 0 .586.18 1.024.539 1.313.359.289 1.254.57 2.684.843l.867.164c1.07.204 1.879.61 2.426 1.219.554.61.832 1.403.832 2.379 0 1.297-.461 2.313-1.383 3.047-.922.727-2.203 1.09-3.844 1.09-.648 0-1.328-.07-2.039-.211a18.035 18.035 0 0 1-2.309-.609v-2.227c.805.414 1.575.727 2.309.937.734.204 1.43.305 2.086.305.953 0 1.691-.191 2.215-.574.523-.391.785-.934.785-1.629 0-1-.957-1.691-2.871-2.074l-.094-.024-.808-.164c-1.243-.242-2.149-.648-2.719-1.218-.571-.579-.856-1.364-.856-2.356 0-1.258.426-2.226 1.278-2.906.851-.688 2.066-1.031 3.644-1.031.703 0 1.379.066 2.028.199a9.92 9.92 0 0 1 1.91.574Zm16.183 5.027v1.055h-9.34v.07c-.062 1.789.278 3.075 1.02 3.856.75.781 1.805 1.172 3.164 1.172a7.72 7.72 0 0 0 2.156-.328c.75-.219 1.551-.551 2.403-.996v2.144c-.821.336-1.614.586-2.379.75a9.943 9.943 0 0 1-2.203.258c-2.039 0-3.633-.61-4.782-1.828-1.148-1.227-1.722-2.914-1.722-5.063 0-2.094.562-3.765 1.687-5.015 1.125-1.25 2.625-1.875 4.5-1.875 1.672 0 2.988.566 3.949 1.699.969 1.133 1.485 2.5 1.547 4.101Zm-2.156-.632c-.094-.907-.426-1.688-.996-2.344-.563-.664-1.375-.996-2.438-.996-1.039 0-1.894.343-2.566 1.031-.672.687-1.039 1.461-1.102 2.32l7.102-.011Zm15.809.14V896h-2.168v-8.133c0-1.179-.207-2.047-.621-2.601-.414-.555-1.063-.832-1.946-.832-1.008 0-1.785.359-2.332 1.078-.539.711-.808 1.734-.808 3.07V896h-2.157v-13.125h2.157v1.969c.382-.75.902-1.317 1.558-1.699.656-.391 1.434-.586 2.332-.586 1.336 0 2.332.441 2.989 1.324.664.875.996 2.203.996 3.984Zm14.578 7.465a7.28 7.28 0 0 1-1.793.75 6.876 6.876 0 0 1-1.875.258c-2.031 0-3.621-.61-4.77-1.828-1.14-1.219-1.711-2.907-1.711-5.063 0-2.156.571-3.844 1.711-5.062 1.149-1.219 2.739-1.828 4.77-1.828a7 7 0 0 1 1.851.246 8.008 8.008 0 0 1 1.817.761v2.262c-.571-.508-1.145-.875-1.723-1.101-.57-.227-1.219-.34-1.945-.34-1.352 0-2.391.437-3.117 1.312-.727.875-1.09 2.125-1.09 3.75 0 1.617.363 2.867 1.09 3.75.734.875 1.773 1.313 3.117 1.313.75 0 1.422-.114 2.015-.34a5.108 5.108 0 0 0 1.653-1.078v2.238Zm15.152-6.973v1.055h-9.34v.07c-.062 1.789.278 3.075 1.02 3.856.75.781 1.804 1.172 3.164 1.172.687 0 1.406-.11 2.156-.328.75-.219 1.551-.551 2.402-.996v2.144c-.82.336-1.613.586-2.378.75a9.952 9.952 0 0 1-2.204.258c-2.039 0-3.632-.61-4.781-1.828-1.148-1.227-1.722-2.914-1.722-5.063 0-2.094.562-3.765 1.687-5.015 1.125-1.25 2.625-1.875 4.5-1.875 1.672 0 2.988.566 3.949 1.699.969 1.133 1.485 2.5 1.547 4.101Zm-2.156-.632c-.094-.907-.426-1.688-.996-2.344-.563-.664-1.375-.996-2.438-.996-1.039 0-1.894.343-2.566 1.031-.672.687-1.039 1.461-1.102 2.32l7.102-.011Z" fill="#191819"/><g filter="url(#k)"><path d="M1074 969H638a8 8 0 0 0-8 8v34a8 8 0 0 0 8 8h436c4.42 0 8-3.58 8-8v-34a8 8 0 0 0-8-8Z" fill="#fff"/></g><path d="M658.176 985.102v2.402a9.325 9.325 0 0 0-2.168-1.043 7.008 7.008 0 0 0-2.18-.352c-1.117 0-2 .262-2.648.786-.649.515-.973 1.214-.973 2.097 0 .774.211 1.363.633 1.77.43.406 1.226.746 2.39 1.019l1.243.281c1.64.383 2.836.985 3.586 1.805.75.821 1.125 1.938 1.125 3.352 0 1.664-.516 2.931-1.547 3.811-1.032.87-2.532 1.31-4.5 1.31-.821 0-1.645-.09-2.473-.27-.828-.17-1.66-.43-2.496-.79v-2.514c.898.57 1.746.988 2.543 1.254.805.27 1.613.4 2.426.4 1.195 0 2.125-.27 2.789-.799.664-.539.996-1.289.996-2.25 0-.875-.231-1.543-.692-2.004-.453-.461-1.246-.816-2.378-1.066l-1.266-.293c-1.625-.367-2.805-.922-3.539-1.664-.735-.742-1.102-1.739-1.102-2.989 0-1.562.524-2.812 1.571-3.75 1.054-.945 2.453-1.417 4.195-1.417.672 0 1.379.078 2.121.234.742.148 1.523.375 2.344.68Zm15.726 9.257v1.055h-9.34v.07c-.062 1.789.278 3.075 1.02 3.856.75.78 1.805 1.17 3.164 1.17.688 0 1.406-.11 2.156-.33.75-.215 1.551-.547 2.403-.992v2.142c-.821.34-1.614.59-2.379.75-.758.17-1.492.26-2.203.26-2.039 0-3.633-.61-4.782-1.83-1.148-1.225-1.722-2.912-1.722-5.061 0-2.094.562-3.765 1.687-5.015 1.125-1.25 2.625-1.875 4.5-1.875 1.672 0 2.989.566 3.949 1.699.969 1.133 1.485 2.5 1.547 4.101Zm-2.156-.632c-.094-.907-.426-1.688-.996-2.344-.562-.664-1.375-.996-2.438-.996-1.039 0-1.894.343-2.566 1.031-.672.687-1.039 1.461-1.101 2.32l7.101-.011Zm15.809.14V1002h-2.168v-8.133c0-1.179-.207-2.047-.621-2.601-.414-.555-1.063-.832-1.946-.832-1.008 0-1.785.359-2.332 1.078-.539.711-.808 1.734-.808 3.07V1002h-2.157v-13.125h2.157v1.969c.382-.75.902-1.317 1.558-1.699.657-.391 1.434-.586 2.332-.586 1.336 0 2.332.441 2.989 1.324.664.875.996 2.203.996 3.984Zm12.199-3.316v-6.785h2.156V1002h-2.156v-1.65a3.81 3.81 0 0 1-1.442 1.49c-.593.33-1.281.5-2.062.5-1.586 0-2.836-.61-3.75-1.84-.906-1.234-1.359-2.934-1.359-5.098 0-2.132.457-3.804 1.371-5.015.914-1.219 2.16-1.828 3.738-1.828.789 0 1.484.171 2.086.515.602.336 1.074.828 1.418 1.477Zm-6.34 4.898c0 1.672.266 2.934.797 3.785.531.856 1.316 1.276 2.355 1.276s1.829-.43 2.368-1.287c.546-.86.82-2.118.82-3.774 0-1.664-.274-2.922-.82-3.773-.539-.86-1.329-1.289-2.368-1.289s-1.824.425-2.355 1.277c-.531.852-.797 2.113-.797 3.785Zm27.492 1.582v-8.133h2.156v8.133c0 1.18.208 2.047.622 2.602.421.557 1.07.837 1.945.837 1.016 0 1.793-.36 2.332-1.072.539-.718.809-1.746.809-3.082v-7.418h2.168V1002h-2.168v-1.97c-.383.76-.907 1.33-1.571 1.72-.656.4-1.426.59-2.308.59-1.344 0-2.344-.44-3-1.31-.657-.89-.985-2.218-.985-3.999Zm16.571 3.319v6.64h-2.168v-18.115h2.168v1.676c.359-.649.835-1.141 1.429-1.477.602-.344 1.293-.515 2.074-.515 1.586 0 2.829.613 3.727 1.839.906 1.227 1.359 2.926 1.359 5.098 0 2.133-.453 3.809-1.359 5.024-.906 1.21-2.148 1.82-3.727 1.82-.796 0-1.496-.17-2.097-.5a3.673 3.673 0 0 1-1.406-1.49Zm6.328-4.901c0-1.672-.266-2.933-.797-3.785-.524-.852-1.305-1.277-2.344-1.277-1.047 0-1.84.429-2.379 1.289-.539.851-.808 2.109-.808 3.773 0 1.656.269 2.914.808 3.774.539.857 1.332 1.287 2.379 1.287 1.039 0 1.82-.42 2.344-1.276.531-.851.797-2.113.797-3.785Zm13.793-4.898v-6.785h2.156V1002h-2.156v-1.65c-.36.65-.84 1.14-1.442 1.49-.594.33-1.281.5-2.062.5-1.586 0-2.836-.61-3.75-1.84-.906-1.234-1.36-2.934-1.36-5.098 0-2.132.457-3.804 1.371-5.015.915-1.219 2.161-1.828 3.739-1.828.789 0 1.484.171 2.086.515a3.55 3.55 0 0 1 1.418 1.477Zm-6.34 4.898c0 1.672.265 2.934.797 3.785.531.856 1.316 1.276 2.355 1.276s1.828-.43 2.367-1.287c.547-.86.821-2.118.821-3.774 0-1.664-.274-2.922-.821-3.773-.539-.86-1.328-1.289-2.367-1.289s-1.824.425-2.355 1.277c-.532.852-.797 2.113-.797 3.785Zm18.972-.047h-.714c-1.258 0-2.207.223-2.848.668-.633.438-.949 1.094-.949 1.969 0 .789.238 1.402.715 1.84.476.441 1.136.651 1.98.651 1.188 0 2.121-.41 2.801-1.225.68-.828 1.023-1.969 1.031-3.422v-.481h-2.016Zm4.184-.89V1002h-2.168v-1.95c-.461.79-1.043 1.36-1.746 1.74-.695.37-1.543.55-2.543.55-1.336 0-2.402-.37-3.199-1.12-.797-.76-1.196-1.775-1.196-3.04 0-1.461.489-2.571 1.465-3.328.985-.758 2.426-1.137 4.325-1.137h2.894v-.34c-.008-1.047-.273-1.805-.797-2.273-.523-.477-1.359-.715-2.508-.715a8.19 8.19 0 0 0-2.226.316c-.75.211-1.481.52-2.192.926v-2.156a14.533 14.533 0 0 1 2.286-.68 10.25 10.25 0 0 1 2.132-.234c1.086 0 2.012.16 2.778.48.773.32 1.398.801 1.875 1.441.297.391.508.875.633 1.454.125.57.187 1.429.187 2.578Zm9.246-9.364v3.727h4.899v1.676h-4.899v7.125c0 .969.184 1.644.551 2.027.367.387 1.008.577 1.922.577h2.426v1.72h-2.637c-1.617 0-2.758-.32-3.422-.97-.664-.65-.996-1.768-.996-3.354v-7.125H778v-1.676h3.504v-3.727h2.156Zm20.391 9.211v1.055h-9.34v.07c-.063 1.789.277 3.075 1.019 3.856.75.78 1.805 1.17 3.165 1.17.687 0 1.406-.11 2.156-.33.75-.215 1.551-.547 2.402-.992v2.142c-.82.34-1.613.59-2.379.75-.758.17-1.492.26-2.203.26-2.039 0-3.633-.61-4.781-1.83-1.149-1.225-1.723-2.912-1.723-5.061 0-2.094.563-3.765 1.688-5.015 1.125-1.25 2.625-1.875 4.5-1.875 1.672 0 2.988.566 3.949 1.699.969 1.133 1.484 2.5 1.547 4.101Zm-2.156-.632c-.094-.907-.426-1.688-.997-2.344-.562-.664-1.375-.996-2.437-.996-1.039 0-1.895.343-2.566 1.031-.672.687-1.04 1.461-1.102 2.32l7.102-.011Zm14.894-4.395v2.109a8.193 8.193 0 0 0-1.863-.808 6.87 6.87 0 0 0-1.91-.27c-.977 0-1.707.16-2.192.481-.476.312-.715.793-.715 1.441 0 .586.18 1.024.539 1.313.36.289 1.254.57 2.684.843l.867.164c1.071.204 1.879.61 2.426 1.219.555.61.832 1.403.832 2.379 0 1.297-.461 2.317-1.383 3.047-.922.73-2.203 1.09-3.844 1.09-.648 0-1.328-.07-2.039-.21-.711-.13-1.48-.34-2.308-.61v-2.227a12.75 12.75 0 0 0 2.308.937c.735.2 1.43.3 2.086.3.953 0 1.692-.19 2.215-.569.524-.391.785-.934.785-1.629 0-1-.957-1.691-2.871-2.074l-.094-.024-.808-.164c-1.242-.242-2.149-.648-2.719-1.218-.57-.579-.855-1.364-.855-2.356 0-1.258.425-2.226 1.277-2.906.852-.688 2.066-1.031 3.645-1.031.703 0 1.378.066 2.027.199a9.92 9.92 0 0 1 1.91.574Zm29.977-5.566v1.793h-2.45c-.773 0-1.312.16-1.617.48-.297.313-.445.871-.445 1.676v1.16h4.512v1.676h-4.512V1002h-2.156v-11.449h-3.504v-1.676h3.504v-.914c0-1.438.328-2.496.984-3.176.664-.68 1.695-1.019 3.094-1.019h2.59Zm15.539 7.816a4.885 4.885 0 0 0-1.407-.785c-.476-.164-1-.246-1.57-.246-1.344 0-2.371.422-3.082 1.265-.711.844-1.066 2.063-1.066 3.657V1002h-2.168v-13.125h2.168v2.566c.359-.929.91-1.64 1.652-2.132.75-.5 1.637-.75 2.66-.75.531 0 1.028.066 1.488.199.461.133.903.34 1.325.621v2.203Zm8.144-1.195c-1.094 0-1.922.425-2.484 1.277-.563.852-.844 2.113-.844 3.785 0 1.664.281 2.926.844 3.785.562.856 1.39 1.276 2.484 1.276 1.102 0 1.934-.42 2.496-1.276.563-.859.844-2.121.844-3.785 0-1.672-.281-2.933-.844-3.785-.562-.852-1.394-1.277-2.496-1.277Zm0-1.828c1.821 0 3.211.589 4.172 1.769.969 1.18 1.453 2.887 1.453 5.121 0 2.242-.48 3.953-1.441 5.131-.961 1.17-2.356 1.76-4.184 1.76-1.82 0-3.211-.59-4.172-1.76-.961-1.178-1.441-2.889-1.441-5.131 0-2.234.48-3.941 1.441-5.121.961-1.18 2.352-1.769 4.172-1.769Zm15.164 1.652c.266-.563.602-.977 1.008-1.242.414-.274.91-.41 1.488-.41 1.055 0 1.797.41 2.227 1.23.437.813.656 2.348.656 4.606V1002h-1.969v-7.512c0-1.851-.105-3-.316-3.445-.203-.453-.578-.68-1.125-.68-.625 0-1.055.242-1.289.727-.227.476-.34 1.609-.34 3.398V1002h-1.969v-7.512c0-1.875-.113-3.031-.339-3.468-.219-.438-.618-.657-1.196-.657-.57 0-.969.242-1.195.727-.219.476-.328 1.609-.328 3.398V1002h-1.957v-13.125h1.957V990c.258-.469.578-.824.961-1.066.39-.25.832-.375 1.324-.375.594 0 1.086.136 1.477.41.398.273.707.687.925 1.242Zm28.219.176c-1.094 0-1.922.425-2.484 1.277-.563.852-.844 2.113-.844 3.785 0 1.664.281 2.926.844 3.785.562.856 1.39 1.276 2.484 1.276 1.102 0 1.934-.42 2.496-1.276.563-.859.844-2.121.844-3.785 0-1.672-.281-2.933-.844-3.785-.562-.852-1.394-1.277-2.496-1.277Zm0-1.828c1.82 0 3.211.589 4.172 1.769.969 1.18 1.453 2.887 1.453 5.121 0 2.242-.48 3.953-1.441 5.131-.961 1.17-2.356 1.76-4.184 1.76-1.82 0-3.211-.59-4.172-1.76-.961-1.178-1.441-2.889-1.441-5.131 0-2.234.48-3.941 1.441-5.121.961-1.18 2.352-1.769 4.172-1.769Zm14.438-3.411v3.727h4.898v1.676h-4.898v7.125c0 .969.183 1.644.55 2.027.368.387 1.008.577 1.922.577h2.426v1.72h-2.637c-1.617 0-2.758-.32-3.422-.97-.664-.65-.996-1.768-.996-3.354v-7.125h-3.504v-1.676h3.504v-3.727h2.157Zm19.582 8.719V1002h-2.168v-8.133c0-1.179-.207-2.047-.622-2.601-.414-.555-1.062-.832-1.945-.832-1.008 0-1.785.359-2.332 1.078-.539.711-.808 1.734-.808 3.07V1002h-2.157v-18.234h2.157v7.078c.382-.75.902-1.317 1.558-1.699.656-.391 1.434-.586 2.332-.586 1.336 0 2.332.441 2.988 1.324.665.875.997 2.203.997 3.984Zm15.269.492v1.055h-9.34v.07c-.062 1.789.278 3.075 1.02 3.856.75.78 1.804 1.17 3.164 1.17.687 0 1.406-.11 2.156-.33.75-.215 1.551-.547 2.402-.992v2.142c-.82.34-1.613.59-2.378.75-.758.17-1.493.26-2.204.26-2.039 0-3.632-.61-4.781-1.83-1.148-1.225-1.722-2.912-1.722-5.061 0-2.094.562-3.765 1.687-5.015 1.125-1.25 2.625-1.875 4.5-1.875 1.672 0 2.988.566 3.949 1.699.969 1.133 1.485 2.5 1.547 4.101Zm-2.156-.632c-.094-.907-.426-1.688-.996-2.344-.563-.664-1.375-.996-2.438-.996-1.039 0-1.894.343-2.566 1.031-.672.687-1.039 1.461-1.102 2.32l7.102-.011Zm17.027-2.145a4.894 4.894 0 0 0-1.406-.785 4.8 4.8 0 0 0-1.57-.246c-1.344 0-2.371.422-3.082 1.265-.711.844-1.067 2.063-1.067 3.657V1002h-2.168v-13.125h2.168v2.566c.36-.929.91-1.64 1.653-2.132.75-.5 1.636-.75 2.66-.75.531 0 1.027.066 1.488.199.461.133.902.34 1.324.621v2.203Zm17.672 5.449v-8.133h2.156v8.133c0 1.18.207 2.047.621 2.602.422.557 1.071.837 1.949.837 1.01 0 1.79-.36 2.33-1.072.54-.718.81-1.746.81-3.082v-7.418h2.17V1002h-2.17v-1.97c-.39.76-.91 1.33-1.57 1.72-.66.4-1.43.59-2.312.59-1.343 0-2.343-.44-3-1.31-.656-.89-.984-2.218-.984-3.999Zm23.576-7.699v2.109a8.328 8.328 0 0 0-1.86-.808c-.63-.18-1.26-.27-1.91-.27-.98 0-1.71.16-2.19.481-.48.312-.72.793-.72 1.441 0 .586.18 1.024.54 1.313.36.289 1.25.57 2.68.843l.87.164c1.07.204 1.88.61 2.43 1.219.55.61.83 1.403.83 2.379 0 1.297-.46 2.317-1.38 3.047-.93.73-2.21 1.09-3.85 1.09-.64 0-1.32-.07-2.03-.21-.72-.13-1.49-.34-2.31-.61v-2.227c.8.414 1.57.727 2.31.937.73.2 1.42.3 2.08.3.95 0 1.69-.19 2.22-.569.52-.391.78-.934.78-1.629 0-1-.96-1.691-2.87-2.074l-.09-.024-.81-.164c-1.25-.242-2.15-.648-2.72-1.218-.57-.579-.86-1.364-.86-2.356 0-1.258.43-2.226 1.28-2.906.85-.688 2.07-1.031 3.64-1.031.71 0 1.38.066 2.03.199.65.125 1.29.316 1.91.574Zm16.19 5.027v1.055h-9.34v.07c-.07 1.789.27 3.075 1.01 3.856.75.78 1.81 1.17 3.17 1.17.69 0 1.41-.11 2.16-.33.75-.215 1.55-.547 2.4-.992v2.142c-.82.34-1.62.59-2.38.75-.76.17-1.49.26-2.2.26-2.04 0-3.64-.61-4.78-1.83-1.15-1.225-1.73-2.912-1.73-5.061 0-2.094.56-3.765 1.69-5.015 1.12-1.25 2.62-1.875 4.5-1.875 1.67 0 2.99.566 3.95 1.699.97 1.133 1.48 2.5 1.55 4.101Zm-2.16-.632a4.11 4.11 0 0 0-1-2.344c-.56-.664-1.37-.996-2.43-.996-1.04 0-1.9.343-2.57 1.031-.67.687-1.04 1.461-1.1 2.32l7.1-.011Zm17.03-2.145a4.848 4.848 0 0 0-1.41-.785c-.48-.164-1-.246-1.57-.246-1.34 0-2.37.422-3.08 1.265-.71.844-1.07 2.063-1.07 3.657V1002H1041v-13.125h2.17v2.566c.36-.929.91-1.64 1.65-2.132.75-.5 1.64-.75 2.66-.75.54 0 1.03.066 1.49.199.46.133.91.34 1.33.621v2.203Zm12.32-2.25v2.109a7.95 7.95 0 0 0-1.86-.808c-.62-.18-1.26-.27-1.91-.27-.97 0-1.71.16-2.19.481-.48.312-.71.793-.71 1.441 0 .586.17 1.024.53 1.313.36.289 1.26.57 2.69.843l.86.164c1.07.204 1.88.61 2.43 1.219.56.61.83 1.403.83 2.379 0 1.297-.46 2.317-1.38 3.047-.92.73-2.2 1.09-3.84 1.09-.65 0-1.33-.07-2.04-.21-.71-.13-1.48-.34-2.31-.61v-2.227c.8.414 1.57.727 2.31.937.73.2 1.43.3 2.08.3.96 0 1.69-.19 2.22-.569.52-.391.78-.934.78-1.629 0-1-.95-1.691-2.87-2.074l-.09-.024-.81-.164c-1.24-.242-2.15-.648-2.72-1.218-.57-.579-.85-1.364-.85-2.356 0-1.258.42-2.226 1.27-2.906.86-.688 2.07-1.031 3.65-1.031.7 0 1.38.066 2.03.199a9.89 9.89 0 0 1 1.9.574Z" fill="#191819"/><path d="M835.707 380.707a.999.999 0 0 0 0-1.414l-6.364-6.364a.999.999 0 1 0-1.414 1.414l5.657 5.657-5.657 5.657a.999.999 0 1 0 1.414 1.414l6.364-6.364ZM279 381h556v-2H279v2Z" fill="#6C6C6C"/><path d="M1431.71 598.707a1 1 0 0 0 0-1.414l-6.37-6.364a.994.994 0 0 0-1.41 0 1 1 0 0 0 0 1.414l5.66 5.657-5.66 5.657a1 1 0 0 0 0 1.414.994.994 0 0 0 1.41 0l6.37-6.364ZM875 599h556v-2H875v2ZM278.293 818.293a.999.999 0 0 0 0 1.414l6.364 6.364a.999.999 0 1 0 1.414-1.414L280.414 819l5.657-5.657a.999.999 0 1 0-1.414-1.414l-6.364 6.364ZM279 820h556v-2H279v2Z" fill="#56A5FD"/><path d="M874.293 708.293a.999.999 0 0 0 0 1.414l6.364 6.364a.999.999 0 1 0 1.414-1.414L876.414 709l5.657-5.657a.999.999 0 1 0-1.414-1.414l-6.364 6.364ZM875 710h556v-2H875v2ZM278.293 1039.29a1.006 1.006 0 0 0 0 1.42l6.364 6.36a1 1 0 0 0 1.414 0 .994.994 0 0 0 0-1.41l-5.657-5.66 5.657-5.66a.994.994 0 0 0 0-1.41 1 1 0 0 0-1.414 0l-6.364 6.36ZM279 1041h1152v-2H279v2Z" fill="#8B5CF6"/><path d="M1431.71 929.707a1 1 0 0 0 0-1.414l-6.37-6.364a.994.994 0 0 0-1.41 0 1 1 0 0 0 0 1.414l5.66 5.657-5.66 5.657a1 1 0 0 0 0 1.414.994.994 0 0 0 1.41 0l6.37-6.364ZM279 930h1152v-2H279v2Z" fill="#6C6C6C"/><path d="M229.613 140.298c-1.525 0-2.834-.334-3.928-1.004-1.087-.669-1.925-1.594-2.515-2.774-.584-1.187-.875-2.552-.875-4.097 0-1.551.298-2.92.895-4.106.596-1.193 1.438-2.121 2.525-2.784 1.094-.67 2.387-1.005 3.878-1.005 1.24 0 2.337.229 3.291.686.961.451 1.727 1.091 2.297 1.92.57.821.895 1.783.975 2.883h-3.441a3.282 3.282 0 0 0-.994-1.839c-.517-.498-1.21-.746-2.078-.746-.736 0-1.382.199-1.939.596-.557.392-.991.955-1.303 1.691-.305.736-.457 1.617-.457 2.645 0 1.04.152 1.935.457 2.684.305.743.733 1.316 1.283 1.72.557.398 1.21.597 1.959.597.53 0 1.004-.099 1.422-.298a2.87 2.87 0 0 0 1.064-.885c.285-.385.48-.852.586-1.402h3.441c-.087 1.08-.405 2.038-.955 2.873-.55.829-1.299 1.479-2.247 1.949-.948.464-2.062.696-3.341.696Zm9.498-20.662h3.6v15.989c0 .57.086.978.258 1.223.172.245.477.361.915.348.239-.007.417-.02.537-.04.126-.026.238-.053.338-.079l.596 2.724a7.275 7.275 0 0 1-.795.189c-.312.06-.696.096-1.153.109-1.459.04-2.539-.265-3.242-.914-.703-.65-1.054-1.641-1.054-2.973v-16.576ZM247.15 140v-15.273h3.6V140h-3.6Zm1.81-17.44a2.1 2.1 0 0 1-1.472-.567c-.411-.385-.616-.845-.616-1.382 0-.544.205-1.004.616-1.382a2.079 2.079 0 0 1 1.472-.577c.577 0 1.067.192 1.471.577.411.378.617.838.617 1.382 0 .537-.206.997-.617 1.382a2.074 2.074 0 0 1-1.471.567Zm12.252 17.738c-1.531 0-2.853-.318-3.967-.954-1.107-.643-1.959-1.551-2.555-2.725-.597-1.18-.895-2.568-.895-4.166 0-1.571.298-2.95.895-4.136.603-1.193 1.445-2.121 2.525-2.784 1.081-.67 2.35-1.005 3.808-1.005.942 0 1.83.153 2.665.458a6.013 6.013 0 0 1 2.227 1.392c.65.63 1.161 1.432 1.532 2.406.371.968.557 2.121.557 3.46v1.104h-12.519v-2.426h9.068c-.006-.69-.156-1.303-.447-1.84a3.259 3.259 0 0 0-1.223-1.282c-.517-.312-1.12-.468-1.81-.468-.736 0-1.382.179-1.939.537a3.702 3.702 0 0 0-1.302 1.392 4.012 4.012 0 0 0-.468 1.88v2.118c0 .888.163 1.65.488 2.286.324.63.778 1.114 1.362 1.452.583.332 1.266.497 2.048.497.524 0 .998-.073 1.422-.218a3.168 3.168 0 0 0 1.104-.667c.311-.291.547-.653.706-1.083l3.36.377a5.232 5.232 0 0 1-1.213 2.327c-.59.656-1.345 1.167-2.267 1.531-.921.358-1.975.537-3.162.537Zm13.436-9.247V140h-3.599v-15.273h3.44v2.595h.179a4.363 4.363 0 0 1 1.68-2.038c.776-.504 1.734-.756 2.874-.756 1.054 0 1.972.226 2.754.677.789.45 1.399 1.103 1.83 1.958.437.855.653 1.893.646 3.113V140h-3.599v-9.168c0-1.02-.266-1.819-.796-2.396-.524-.577-1.249-.865-2.177-.865-.63 0-1.19.139-1.681.418a2.886 2.886 0 0 0-1.143 1.183c-.272.517-.408 1.143-.408 1.879Zm21.09-6.324v2.784h-8.78v-2.784h8.78Zm-6.613-3.659h3.6v14.338c0 .484.073.855.219 1.114.152.252.351.424.596.517.245.093.517.139.815.139.226 0 .431-.016.617-.05.192-.033.338-.063.437-.089l.607 2.814a8.19 8.19 0 0 1-.825.219 6.797 6.797 0 0 1-1.293.139c-.901.026-1.713-.11-2.436-.408a3.782 3.782 0 0 1-1.72-1.412c-.418-.636-.623-1.432-.617-2.386v-14.935ZM825.252 128.764l-3.281.358a2.635 2.635 0 0 0-.487-.934 2.41 2.41 0 0 0-.915-.706c-.384-.179-.855-.269-1.412-.269-.749 0-1.378.162-1.889.487-.504.325-.752.746-.746 1.263-.006.444.156.805.488 1.084.338.278.894.507 1.67.686l2.605.557c1.445.311 2.519.805 3.222 1.481.709.676 1.067 1.561 1.074 2.655-.007.961-.289 1.81-.846 2.546-.55.729-1.315 1.299-2.296 1.71-.981.411-2.108.616-3.381.616-1.869 0-3.374-.391-4.514-1.173-1.14-.789-1.82-1.886-2.039-3.291l3.51-.338c.159.689.497 1.209 1.014 1.561.518.351 1.19.527 2.019.527.855 0 1.541-.176 2.058-.527.524-.352.786-.786.786-1.303 0-.437-.169-.799-.507-1.084-.332-.285-.849-.503-1.552-.656l-2.605-.547c-1.465-.305-2.548-.818-3.251-1.541-.703-.729-1.051-1.65-1.044-2.764-.007-.941.248-1.757.766-2.446.523-.696 1.249-1.233 2.177-1.611.935-.384 2.012-.577 3.232-.577 1.789 0 3.198.382 4.225 1.144 1.035.762 1.674 1.793 1.919 3.092Zm10.058 11.534c-1.531 0-2.854-.318-3.967-.954-1.107-.643-1.959-1.551-2.556-2.725-.596-1.18-.895-2.568-.895-4.166 0-1.571.299-2.95.895-4.136.604-1.193 1.445-2.121 2.526-2.784 1.08-.67 2.35-1.005 3.808-1.005.941 0 1.83.153 2.665.458a6.013 6.013 0 0 1 2.227 1.392c.65.63 1.16 1.432 1.531 2.406.372.968.557 2.121.557 3.46v1.104h-12.518v-2.426h9.068c-.007-.69-.156-1.303-.448-1.84a3.245 3.245 0 0 0-1.223-1.282c-.517-.312-1.12-.468-1.809-.468-.736 0-1.382.179-1.939.537a3.713 3.713 0 0 0-1.303 1.392 4.011 4.011 0 0 0-.467 1.88v2.118c0 .888.162 1.65.487 2.286.325.63.779 1.114 1.362 1.452.584.332 1.267.497 2.049.497.523 0 .997-.073 1.422-.218a3.154 3.154 0 0 0 1.103-.667c.312-.291.547-.653.706-1.083l3.361.377a5.232 5.232 0 0 1-1.213 2.327c-.59.656-1.346 1.167-2.267 1.531-.921.358-1.975.537-3.162.537Zm9.836-.298v-15.273h3.49v2.546h.159c.279-.882.756-1.561 1.432-2.039.676-.484 1.455-.725 2.337-.725.411 0 .789.049 1.133.149.345.099.65.235.915.407l-1.113 2.983a3.385 3.385 0 0 0-.637-.228 3.142 3.142 0 0 0-.785-.09c-.623 0-1.187.139-1.691.418a3.175 3.175 0 0 0-1.203 1.163c-.291.491-.437 1.061-.437 1.71V140h-3.6Zm25.345-15.273L865.053 140h-3.978l-5.439-15.273h3.838l3.51 11.345h.159l3.52-11.345h3.828Zm8.733 15.571c-1.531 0-2.854-.318-3.967-.954-1.107-.643-1.959-1.551-2.556-2.725-.596-1.18-.895-2.568-.895-4.166 0-1.571.299-2.95.895-4.136.604-1.193 1.445-2.121 2.526-2.784 1.08-.67 2.35-1.005 3.808-1.005.941 0 1.83.153 2.665.458a6.013 6.013 0 0 1 2.227 1.392c.65.63 1.16 1.432 1.531 2.406.372.968.557 2.121.557 3.46v1.104h-12.518v-2.426h9.068c-.007-.69-.156-1.303-.447-1.84a3.259 3.259 0 0 0-1.223-1.282c-.518-.312-1.121-.468-1.81-.468-.736 0-1.382.179-1.939.537a3.713 3.713 0 0 0-1.303 1.392 4.011 4.011 0 0 0-.467 1.88v2.118c0 .888.162 1.65.487 2.286.325.63.779 1.114 1.362 1.452.584.332 1.267.497 2.049.497.523 0 .997-.073 1.422-.218a3.154 3.154 0 0 0 1.103-.667c.312-.291.547-.653.706-1.083l3.361.377a5.232 5.232 0 0 1-1.213 2.327c-.59.656-1.346 1.167-2.267 1.531-.921.358-1.975.537-3.162.537Zm9.836-.298v-15.273h3.49v2.546h.16c.278-.882.755-1.561 1.431-2.039.676-.484 1.455-.725 2.337-.725.411 0 .789.049 1.134.149.344.099.649.235.914.407l-1.113 2.983a3.385 3.385 0 0 0-.637-.228 3.142 3.142 0 0 0-.785-.09c-.623 0-1.187.139-1.691.418a3.175 3.175 0 0 0-1.203 1.163c-.291.491-.437 1.061-.437 1.71V140h-3.6Z" fill="#fff"/><path fill-rule="evenodd" clip-rule="evenodd" d="M1406.53 123H1388l5.33 5.6v7.733l13.2-13.333Zm-10.66 16h18.53l-5.33-5.6v-7.733L1395.87 139Z" fill="#fff"/><path d="m1440.25 128.764-3.28.358a2.476 2.476 0 0 0-.49-.934c-.22-.292-.53-.527-.91-.706-.39-.179-.86-.269-1.41-.269-.75 0-1.38.162-1.89.487-.51.325-.75.746-.75 1.263 0 .444.16.805.49 1.084.34.278.89.507 1.67.686l2.61.557c1.44.311 2.51.805 3.22 1.481.71.676 1.06 1.561 1.07 2.655-.01.961-.29 1.81-.84 2.546-.55.729-1.32 1.299-2.3 1.71-.98.411-2.11.616-3.38.616-1.87 0-3.38-.391-4.52-1.173-1.14-.789-1.82-1.886-2.03-3.291l3.51-.338c.15.689.49 1.209 1.01 1.561.52.351 1.19.527 2.02.527.85 0 1.54-.176 2.06-.527.52-.352.78-.786.78-1.303 0-.437-.17-.799-.51-1.084-.33-.285-.84-.503-1.55-.656l-2.6-.547c-1.47-.305-2.55-.818-3.25-1.541-.71-.729-1.05-1.65-1.05-2.764 0-.941.25-1.757.77-2.446.52-.696 1.25-1.233 2.18-1.611.93-.384 2.01-.577 3.23-.577 1.79 0 3.2.382 4.22 1.144 1.04.762 1.68 1.793 1.92 3.092Zm10.06 11.534c-1.53 0-2.85-.318-3.97-.954a6.452 6.452 0 0 1-2.55-2.725c-.6-1.18-.9-2.568-.9-4.166 0-1.571.3-2.95.9-4.136.6-1.193 1.44-2.121 2.52-2.784 1.08-.67 2.35-1.005 3.81-1.005.94 0 1.83.153 2.67.458.84.298 1.58.762 2.22 1.392.65.63 1.16 1.432 1.53 2.406.38.968.56 2.121.56 3.46v1.104h-12.52v-2.426h9.07c-.01-.69-.15-1.303-.45-1.84-.29-.543-.7-.971-1.22-1.282-.52-.312-1.12-.468-1.81-.468-.73 0-1.38.179-1.94.537-.55.352-.99.816-1.3 1.392-.31.57-.46 1.197-.47 1.88v2.118c0 .888.16 1.65.49 2.286.32.63.78 1.114 1.36 1.452.58.332 1.27.497 2.05.497.52 0 1-.073 1.42-.218.43-.153.79-.375 1.11-.667.31-.291.54-.653.7-1.083l3.36.377a5.177 5.177 0 0 1-1.21 2.327c-.59.656-1.35 1.167-2.27 1.531-.92.358-1.97.537-3.16.537Zm9.84-.298v-15.273h3.49v2.546h.16c.27-.882.75-1.561 1.43-2.039.67-.484 1.45-.725 2.33-.725.41 0 .79.049 1.14.149.34.099.65.235.91.407l-1.11 2.983a3.39 3.39 0 0 0-.64-.228c-.23-.06-.49-.09-.78-.09a3.4 3.4 0 0 0-1.69.418c-.51.278-.91.666-1.21 1.163-.29.491-.43 1.061-.43 1.71V140h-3.6Zm25.34-15.273L1480.05 140h-3.97l-5.44-15.273h3.83l3.51 11.345h.16l3.52-11.345h3.83Zm8.73 15.571c-1.53 0-2.85-.318-3.96-.954-1.11-.643-1.96-1.551-2.56-2.725-.6-1.18-.89-2.568-.89-4.166 0-1.571.29-2.95.89-4.136.6-1.193 1.45-2.121 2.53-2.784 1.08-.67 2.35-1.005 3.81-1.005.94 0 1.82.153 2.66.458.84.298 1.58.762 2.23 1.392.65.63 1.16 1.432 1.53 2.406.37.968.56 2.121.56 3.46v1.104h-12.52v-2.426h9.06c0-.69-.15-1.303-.44-1.84-.29-.543-.7-.971-1.23-1.282-.51-.312-1.12-.468-1.81-.468-.73 0-1.38.179-1.93.537-.56.352-1 .816-1.31 1.392-.3.57-.46 1.197-.46 1.88v2.118c0 .888.16 1.65.48 2.286.33.63.78 1.114 1.37 1.452.58.332 1.26.497 2.04.497.53 0 1-.073 1.43-.218.42-.153.79-.375 1.1-.667.31-.291.55-.653.71-1.083l3.36.377a5.295 5.295 0 0 1-1.22 2.327c-.59.656-1.34 1.167-2.26 1.531-.93.358-1.98.537-3.17.537Zm9.84-.298v-15.273h3.49v2.546h.16c.28-.882.76-1.561 1.43-2.039.68-.484 1.46-.725 2.34-.725.41 0 .79.049 1.13.149.35.099.65.235.92.407l-1.12 2.983c-.19-.093-.4-.169-.63-.228-.24-.06-.5-.09-.79-.09-.62 0-1.19.139-1.69.418-.5.278-.9.666-1.2 1.163-.29.491-.44 1.061-.44 1.71V140h-3.6Z" fill="#fff"/><defs><filter id="e" x="123" y="229" width="369" height="54" filterUnits="userSpaceOnUse" color-interpolation-filters="sRGB"><feFlood flood-opacity="0" result="BackgroundImageFix"/><feColorMatrix in="SourceAlpha" values="0 0 0 0 0 0 0 0 0 0 0 0 0 0 0 0 0 0 127 0" result="hardAlpha"/><feOffset dy="2"/><feGaussianBlur stdDeviation="1"/><feComposite in2="hardAlpha" operator="out"/><feColorMatrix values="0 0 0 0 0.137959 0 0 0 0 0.0432465 0 0 0 0 0.39842 0 0 0 0.15 0"/><feBlend in2="BackgroundImageFix" result="effect1_dropShadow_22_3216"/><feBlend in="SourceGraphic" in2="effect1_dropShadow_22_3216" result="shape"/></filter><filter id="f" x="404" y="314" width="311" height="54" filterUnits="userSpaceOnUse" color-interpolation-filters="sRGB"><feFlood flood-opacity="0" result="BackgroundImageFix"/><feColorMatrix in="SourceAlpha" values="0 0 0 0 0 0 0 0 0 0 0 0 0 0 0 0 0 0 127 0" result="hardAlpha"/><feOffset dy="2"/><feGaussianBlur stdDeviation="1"/><feComposite in2="hardAlpha" operator="out"/><feColorMatrix values="0 0 0 0 0.137959 0 0 0 0 0.0432465 0 0 0 0 0.39842 0 0 0 0.15 0"/><feBlend in2="BackgroundImageFix" result="effect1_dropShadow_22_3216"/><feBlend in="SourceGraphic" in2="effect1_dropShadow_22_3216" result="shape"/></filter><filter id="g" x="454" y="753" width="210" height="54" filterUnits="userSpaceOnUse" color-interpolation-filters="sRGB"><feFlood flood-opacity="0" result="BackgroundImageFix"/><feColorMatrix in="SourceAlpha" values="0 0 0 0 0 0 0 0 0 0 0 0 0 0 0 0 0 0 127 0" result="hardAlpha"/><feOffset dy="2"/><feGaussianBlur stdDeviation="1"/><feComposite in2="hardAlpha" operator="out"/><feColorMatrix values="0 0 0 0 0.137959 0 0 0 0 0.0432465 0 0 0 0 0.39842 0 0 0 0.15 0"/><feBlend in2="BackgroundImageFix" result="effect1_dropShadow_22_3216"/><feBlend in="SourceGraphic" in2="effect1_dropShadow_22_3216" result="shape"/></filter><filter id="h" x="1048" y="643" width="210" height="54" filterUnits="userSpaceOnUse" color-interpolation-filters="sRGB"><feFlood flood-opacity="0" result="BackgroundImageFix"/><feColorMatrix in="SourceAlpha" values="0 0 0 0 0 0 0 0 0 0 0 0 0 0 0 0 0 0 127 0" result="hardAlpha"/><feOffset dy="2"/><feGaussianBlur stdDeviation="1"/><feComposite in2="hardAlpha" operator="out"/><feColorMatrix values="0 0 0 0 0.137959 0 0 0 0 0.0432465 0 0 0 0 0.39842 0 0 0 0.15 0"/><feBlend in2="BackgroundImageFix" result="effect1_dropShadow_22_3216"/><feBlend in="SourceGraphic" in2="effect1_dropShadow_22_3216" result="shape"/></filter><filter id="i" x="983" y="414" width="340" height="172" filterUnits="userSpaceOnUse" color-interpolation-filters="sRGB"><feFlood flood-opacity="0" result="BackgroundImageFix"/><feColorMatrix in="SourceAlpha" values="0 0 0 0 0 0 0 0 0 0 0 0 0 0 0 0 0 0 127 0" result="hardAlpha"/><feOffset dy="2"/><feGaussianBlur stdDeviation="1"/><feComposite in2="hardAlpha" operator="out"/><feColorMatrix values="0 0 0 0 0.137959 0 0 0 0 0.0432465 0 0 0 0 0.39842 0 0 0 0.15 0"/><feBlend in2="BackgroundImageFix" result="effect1_dropShadow_22_3216"/><feBlend in="SourceGraphic" in2="effect1_dropShadow_22_3216" result="shape"/></filter><filter id="j" x="728" y="863" width="253" height="54" filterUnits="userSpaceOnUse" color-interpolation-filters="sRGB"><feFlood flood-opacity="0" result="BackgroundImageFix"/><feColorMatrix in="SourceAlpha" values="0 0 0 0 0 0 0 0 0 0 0 0 0 0 0 0 0 0 127 0" result="hardAlpha"/><feOffset dy="2"/><feGaussianBlur stdDeviation="1"/><feComposite in2="hardAlpha" operator="out"/><feColorMatrix values="0 0 0 0 0.137959 0 0 0 0 0.0432465 0 0 0 0 0.39842 0 0 0 0.15 0"/><feBlend in2="BackgroundImageFix" result="effect1_dropShadow_22_3216"/><feBlend in="SourceGraphic" in2="effect1_dropShadow_22_3216" result="shape"/></filter><filter id="k" x="628" y="969" width="456" height="54" filterUnits="userSpaceOnUse" color-interpolation-filters="sRGB"><feFlood flood-opacity="0" result="BackgroundImageFix"/><feColorMatrix in="SourceAlpha" values="0 0 0 0 0 0 0 0 0 0 0 0 0 0 0 0 0 0 127 0" result="hardAlpha"/><feOffset dy="2"/><feGaussianBlur stdDeviation="1"/><feComposite in2="hardAlpha" operator="out"/><feColorMatrix values="0 0 0 0 0.137959 0 0 0 0 0.0432465 0 0 0 0 0.39842 0 0 0 0.15 0"/><feBlend in2="BackgroundImageFix" result="effect1_dropShadow_22_3216"/><feBlend in="SourceGraphic" in2="effect1_dropShadow_22_3216" result="shape"/></filter><radialGradient id="b" cx="0" cy="0" r="1" gradientUnits="userSpaceOnUse" gradientTransform="rotate(23.47 -169.842 265.796) scale(162.169 123.142)"><stop stop-color="#fff"/><stop offset="1" stop-color="#fff" stop-opacity="0"/></radialGradient><radialGradient id="c" cx="0" cy="0" r="1" gradientUnits="userSpaceOnUse" gradientTransform="rotate(23.47 128.158 1700.363) scale(162.169 123.142)"><stop stop-color="#fff"/><stop offset="1" stop-color="#fff" stop-opacity="0"/></radialGradient><radialGradient id="d" cx="0" cy="0" r="1" gradientUnits="userSpaceOnUse" gradientTransform="rotate(23.47 426.159 3134.938) scale(162.169 123.142)"><stop stop-color="#fff"/><stop offset="1" stop-color="#fff" stop-opacity="0"/></radialGradient><linearGradient id="a" x1="-269.243" y1="-194.145" x2="1991.23" y2="1028.67" gradientUnits="userSpaceOnUse"><stop stop-color="#F9F7FC"/><stop offset="1" stop-color="#F9EFFF"/></linearGradient></defs></svg>