<svg width="1710" height="1180" viewBox="0 0 1710 1180" fill="none" xmlns="http://www.w3.org/2000/svg"><path fill="url(#a)" d="M0 0h1710v1180H0z"/><path fill="#fff" fill-opacity=".6" d="M0 0h1710v1180H0z"/><path d="M260 175v919M856 175v919M1452 175v919" stroke="#AFA9B2" stroke-width="2" stroke-dasharray="6 6"/><g filter="url(#b)"><path d="M385 86H133a8 8 0 0 0-8 8v72a8 8 0 0 0 8 8h252a8 8 0 0 0 8-8V94a8 8 0 0 0-8-8Z" fill="#1A1523"/><path d="M385 86H133a8 8 0 0 0-8 8v72a8 8 0 0 0 8 8h252a8 8 0 0 0 8-8V94a8 8 0 0 0-8-8Z" fill="url(#c)" fill-opacity=".08"/></g><g filter="url(#d)"><path d="M981 86H729a8 8 0 0 0-8 8v72a8 8 0 0 0 8 8h252a8 8 0 0 0 8-8V94a8 8 0 0 0-8-8Z" fill="#1A1523"/><path d="M981 86H729a8 8 0 0 0-8 8v72a8 8 0 0 0 8 8h252a8 8 0 0 0 8-8V94a8 8 0 0 0-8-8Z" fill="url(#e)" fill-opacity=".08"/></g><g filter="url(#f)"><path d="M1577 86h-252c-4.42 0-8 3.582-8 8v72a8 8 0 0 0 8 8h252a8 8 0 0 0 8-8V94c0-4.418-3.58-8-8-8Z" fill="#5746AF"/><path d="M1577 86h-252c-4.42 0-8 3.582-8 8v72a8 8 0 0 0 8 8h252a8 8 0 0 0 8-8V94c0-4.418-3.58-8-8-8Z" fill="url(#g)" fill-opacity=".05"/></g><g filter="url(#h)"><path d="M482 229H133a8 8 0 0 0-8 8v34a8 8 0 0 0 8 8h349a8 8 0 0 0 8-8v-34a8 8 0 0 0-8-8Z" fill="#FDFCFD"/><path d="M482 229H133a8 8 0 0 0-8 8v34a8 8 0 0 0 8 8h349a8 8 0 0 0 8-8v-34a8 8 0 0 0-8-8Z" fill="url(#i)" fill-opacity=".05"/><path d="M133 229.5h349a7.5 7.5 0 0 1 7.5 7.5v34a7.5 7.5 0 0 1-7.5 7.5H133a7.5 7.5 0 0 1-7.5-7.5v-34a7.5 7.5 0 0 1 7.5-7.5Z" stroke="url(#j)" stroke-opacity=".3"/></g><path d="M153.633 261.332a7.28 7.28 0 0 1-1.793.75 6.876 6.876 0 0 1-1.875.258c-2.031 0-3.621-.61-4.77-1.828-1.14-1.219-1.711-2.907-1.711-5.063 0-2.156.571-3.844 1.711-5.062 1.149-1.219 2.739-1.828 4.77-1.828a7 7 0 0 1 1.851.246 8.008 8.008 0 0 1 1.817.761v2.262c-.571-.508-1.145-.875-1.723-1.101-.57-.227-1.219-.34-1.945-.34-1.352 0-2.391.437-3.117 1.312-.727.875-1.09 2.125-1.09 3.75 0 1.617.363 2.867 1.09 3.75.734.875 1.773 1.313 3.117 1.313.75 0 1.422-.114 2.015-.34a5.108 5.108 0 0 0 1.653-1.078v2.238Zm10.453-4.078c0 .969.176 1.699.527 2.191.36.493.887.739 1.582.739h2.52V262h-2.731c-1.289 0-2.289-.41-3-1.23-.703-.829-1.054-2-1.054-3.516v-11.871h-3.457v-1.688h5.613v13.559Zm9.738-8.332h5.52v11.402h4.277V262H172.91v-1.676h4.277v-9.726h-3.363v-1.676Zm3.363-5.098h2.157v2.719h-2.157v-2.719Zm20.52 10.535v1.055h-9.34v.07c-.062 1.789.277 3.075 1.02 3.856.75.781 1.804 1.172 3.164 1.172.687 0 1.406-.11 2.156-.328.75-.219 1.551-.551 2.402-.996v2.144c-.82.336-1.613.586-2.379.75a9.936 9.936 0 0 1-2.203.258c-2.039 0-3.633-.61-4.781-1.828-1.148-1.227-1.723-2.914-1.723-5.063 0-2.094.563-3.765 1.688-5.015 1.125-1.25 2.625-1.875 4.5-1.875 1.672 0 2.988.566 3.949 1.699.969 1.133 1.484 2.5 1.547 4.101Zm-2.156-.632c-.094-.907-.426-1.688-.996-2.344-.563-.664-1.375-.996-2.438-.996-1.039 0-1.894.343-2.566 1.031-.672.687-1.039 1.461-1.102 2.32l7.102-.011Zm15.808.14V262h-2.168v-8.133c0-1.179-.207-2.047-.621-2.601-.414-.555-1.062-.832-1.945-.832-1.008 0-1.785.359-2.332 1.078-.539.711-.809 1.734-.809 3.07V262h-2.156v-13.125h2.156v1.969c.383-.75.903-1.317 1.559-1.699.656-.391 1.434-.586 2.332-.586 1.336 0 2.332.441 2.988 1.324.664.875.996 2.203.996 3.984Zm9.34-8.719v3.727h4.899v1.676h-4.899v7.125c0 .969.184 1.644.551 2.027.367.383 1.008.574 1.922.574h2.426V262h-2.637c-1.617 0-2.758-.324-3.422-.973-.664-.648-.996-1.765-.996-3.351v-7.125h-3.504v-1.676h3.504v-3.727h2.156Zm11.824 12.118h4.125V262h-4.125v-4.734Zm23.028-2.907v1.055h-9.34v.07c-.063 1.789.277 3.075 1.019 3.856.75.781 1.805 1.172 3.165 1.172.687 0 1.406-.11 2.156-.328.75-.219 1.551-.551 2.402-.996v2.144c-.82.336-1.613.586-2.379.75a9.943 9.943 0 0 1-2.203.258c-2.039 0-3.633-.61-4.781-1.828-1.149-1.227-1.723-2.914-1.723-5.063 0-2.094.563-3.765 1.688-5.015 1.125-1.25 2.625-1.875 4.5-1.875 1.672 0 2.988.566 3.949 1.699.969 1.133 1.484 2.5 1.547 4.101Zm-2.156-.632c-.094-.907-.426-1.688-.997-2.344-.562-.664-1.375-.996-2.437-.996-1.039 0-1.895.343-2.566 1.031-.672.687-1.04 1.461-1.102 2.32l7.102-.011Zm15.808.14V262h-2.168v-8.133c0-1.179-.207-2.047-.621-2.601-.414-.555-1.062-.832-1.945-.832-1.008 0-1.785.359-2.332 1.078-.539.711-.809 1.734-.809 3.07V262h-2.156v-13.125h2.156v1.969c.383-.75.902-1.317 1.559-1.699.656-.391 1.433-.586 2.332-.586 1.336 0 2.332.441 2.988 1.324.664.875.996 2.203.996 3.984Zm9.34-8.719v3.727h4.898v1.676h-4.898v7.125c0 .969.184 1.644.551 2.027.367.383 1.008.574 1.922.574h2.425V262h-2.636c-1.617 0-2.758-.324-3.422-.973-.664-.648-.996-1.765-.996-3.351v-7.125h-3.504v-1.676h3.504v-3.727h2.156Zm20.391 9.211v1.055h-9.34v.07c-.063 1.789.277 3.075 1.019 3.856.75.781 1.805 1.172 3.164 1.172.688 0 1.407-.11 2.157-.328.75-.219 1.55-.551 2.402-.996v2.144c-.82.336-1.613.586-2.379.75a9.943 9.943 0 0 1-2.203.258c-2.039 0-3.633-.61-4.781-1.828-1.149-1.227-1.723-2.914-1.723-5.063 0-2.094.562-3.765 1.688-5.015 1.124-1.25 2.624-1.875 4.5-1.875 1.671 0 2.988.566 3.949 1.699.968 1.133 1.484 2.5 1.547 4.101Zm-2.157-.632c-.093-.907-.425-1.688-.996-2.344-.562-.664-1.375-.996-2.437-.996-1.039 0-1.895.343-2.567 1.031-.672.687-1.039 1.461-1.101 2.32l7.101-.011Zm17.028-2.145a4.885 4.885 0 0 0-1.407-.785c-.476-.164-1-.246-1.57-.246-1.344 0-2.371.422-3.082 1.265-.711.844-1.066 2.063-1.066 3.657V262h-2.168v-13.125h2.168v2.566c.359-.929.91-1.64 1.652-2.132.75-.5 1.637-.75 2.66-.75.531 0 1.028.066 1.488.199.461.133.903.34 1.325.621v2.203Zm10.945-8.965c-1.039 1.781-1.816 3.559-2.332 5.332a19.241 19.241 0 0 0-.762 5.344c0 1.789.254 3.57.762 5.344.516 1.773 1.293 3.558 2.332 5.355h-1.875c-1.18-1.859-2.059-3.668-2.637-5.426-.578-1.765-.867-3.523-.867-5.273 0-1.742.289-3.496.867-5.262.578-1.765 1.457-3.57 2.637-5.414h1.875Zm15.27 8.051h-2.954v-2.426l2.297-4.476h1.805l-1.148 4.476v2.426Zm-5.379 0h-2.977v-2.426l2.332-4.476h1.793l-1.148 4.476v2.426Zm22.547.914a4.885 4.885 0 0 0-1.407-.785c-.476-.164-1-.246-1.57-.246-1.344 0-2.371.422-3.082 1.265-.711.844-1.067 2.063-1.067 3.657V262h-2.167v-13.125h2.167v2.566c.36-.929.911-1.64 1.653-2.132.75-.5 1.637-.75 2.66-.75.531 0 1.027.066 1.488.199.461.133.903.34 1.325.621v2.203Zm8.144-1.195c-1.094 0-1.922.425-2.484 1.277-.563.852-.844 2.113-.844 3.785 0 1.664.281 2.926.844 3.785.562.852 1.39 1.278 2.484 1.278 1.102 0 1.934-.426 2.496-1.278.563-.859.844-2.121.844-3.785 0-1.672-.281-2.933-.844-3.785-.562-.852-1.394-1.277-2.496-1.277Zm0-1.828c1.82 0 3.211.589 4.172 1.769.969 1.18 1.453 2.887 1.453 5.121 0 2.242-.48 3.953-1.441 5.133-.961 1.172-2.356 1.758-4.184 1.758-1.82 0-3.211-.586-4.172-1.758-.961-1.18-1.441-2.891-1.441-5.133 0-2.234.48-3.941 1.441-5.121.961-1.18 2.352-1.769 4.172-1.769Zm14.461 1.828c-1.094 0-1.922.425-2.484 1.277-.563.852-.844 2.113-.844 3.785 0 1.664.281 2.926.844 3.785.562.852 1.39 1.278 2.484 1.278 1.102 0 1.934-.426 2.496-1.278.563-.859.844-2.121.844-3.785 0-1.672-.281-2.933-.844-3.785-.562-.852-1.394-1.277-2.496-1.277Zm0-1.828c1.82 0 3.211.589 4.172 1.769.969 1.18 1.453 2.887 1.453 5.121 0 2.242-.48 3.953-1.441 5.133-.961 1.172-2.356 1.758-4.184 1.758-1.82 0-3.211-.586-4.172-1.758-.961-1.18-1.441-2.891-1.441-5.133 0-2.234.48-3.941 1.441-5.121.961-1.18 2.352-1.769 4.172-1.769Zm15.164 1.652c.266-.563.602-.977 1.008-1.242.414-.274.91-.41 1.488-.41 1.055 0 1.797.41 2.227 1.23.437.813.656 2.348.656 4.606V262h-1.969v-7.512c0-1.851-.105-3-.316-3.445-.203-.453-.578-.68-1.125-.68-.625 0-1.055.242-1.289.727-.227.476-.34 1.609-.34 3.398V262h-1.969v-7.512c0-1.875-.113-3.031-.34-3.468-.218-.438-.617-.657-1.195-.657-.57 0-.969.242-1.195.727-.219.476-.328 1.609-.328 3.398V262h-1.958v-13.125h1.958V250c.257-.469.578-.824.96-1.066.391-.25.832-.375 1.325-.375.593 0 1.086.136 1.476.41.399.273.707.687.926 1.242Zm7.734 3.305h12.422v1.98h-12.422v-1.98Zm16.969-4.594h5.52v11.402h4.277V262h-10.711v-1.676h4.277v-9.726h-3.363v-1.676Zm3.363-5.098h2.157v2.719h-2.157v-2.719Zm17.45 6.727v-6.785h2.156V262h-2.156v-1.652c-.36.648-.84 1.144-1.442 1.488-.593.336-1.281.504-2.062.504-1.586 0-2.836-.613-3.75-1.84-.907-1.234-1.36-2.934-1.36-5.098 0-2.132.457-3.804 1.371-5.015.915-1.219 2.161-1.828 3.739-1.828.789 0 1.484.171 2.086.515a3.55 3.55 0 0 1 1.418 1.477Zm-6.34 4.898c0 1.672.265 2.934.797 3.785.531.852 1.316 1.278 2.355 1.278s1.828-.43 2.367-1.289c.547-.86.821-2.118.821-3.774 0-1.664-.274-2.922-.821-3.773-.539-.86-1.328-1.289-2.367-1.289s-1.824.425-2.355 1.277c-.532.852-.797 2.113-.797 3.785Zm19.746-11.683h2.953v2.414l-2.309 4.488h-1.793l1.149-4.488v-2.414Zm-5.379 0h2.953v2.414l-2.297 4.488h-1.804l1.148-4.488v-2.414Zm14.918-1.149h1.875c1.18 1.844 2.059 3.649 2.637 5.414.578 1.766.867 3.52.867 5.262 0 1.758-.289 3.519-.867 5.285-.578 1.766-1.457 3.57-2.637 5.414h-1.875c1.039-1.812 1.812-3.605 2.32-5.379a18.96 18.96 0 0 0 .774-5.32c0-1.781-.258-3.559-.774-5.332-.508-1.773-1.281-3.555-2.32-5.344Z" fill="#35303F"/><g filter="url(#k)"><path d="M703 314H412a8 8 0 0 0-8 8v34a8 8 0 0 0 8 8h291a8 8 0 0 0 8-8v-34a8 8 0 0 0-8-8Z" fill="#FDFCFD"/><path d="M703 314H412a8 8 0 0 0-8 8v34a8 8 0 0 0 8 8h291a8 8 0 0 0 8-8v-34a8 8 0 0 0-8-8Z" fill="url(#l)" fill-opacity=".05"/><path d="M412 314.5h291a7.5 7.5 0 0 1 7.5 7.5v34a7.5 7.5 0 0 1-7.5 7.5H412a7.5 7.5 0 0 1-7.5-7.5v-34a7.5 7.5 0 0 1 7.5-7.5Z" stroke="url(#m)" stroke-opacity=".3"/></g><path d="M424.797 331.449v6.574h2.742c1.094 0 1.945-.289 2.555-.867.617-.578.926-1.386.926-2.426 0-1.039-.305-1.843-.915-2.414-.609-.578-1.464-.867-2.566-.867h-2.742Zm-2.367-1.945h5.109c1.953 0 3.434.445 4.441 1.336 1.008.883 1.512 2.18 1.512 3.89 0 1.727-.504 3.032-1.512 3.915-1 .882-2.48 1.324-4.441 1.324h-2.742V347h-2.367v-17.496Zm22.758 8.766c0-2.571-.266-4.407-.797-5.508-.524-1.102-1.387-1.653-2.59-1.653-1.196 0-2.059.551-2.59 1.653-.523 1.101-.785 2.937-.785 5.508 0 2.562.262 4.394.785 5.496.531 1.101 1.394 1.652 2.59 1.652 1.203 0 2.066-.547 2.59-1.641.531-1.101.797-2.937.797-5.507Zm2.472 0c0 3.046-.484 5.32-1.453 6.82-.961 1.5-2.43 2.25-4.406 2.25-1.977 0-3.446-.746-4.406-2.238-.961-1.493-1.442-3.77-1.442-6.832 0-3.055.481-5.332 1.442-6.832.968-1.5 2.437-2.25 4.406-2.25 1.976 0 3.445.75 4.406 2.25.969 1.5 1.453 3.777 1.453 6.832Zm13.242-8.168v2.402a9.287 9.287 0 0 0-2.168-1.043 6.997 6.997 0 0 0-2.179-.352c-1.117 0-2 .262-2.649.786-.648.515-.972 1.214-.972 2.097 0 .774.211 1.363.632 1.77.43.406 1.227.746 2.391 1.019l1.242.281c1.641.383 2.836.985 3.586 1.805.75.821 1.125 1.938 1.125 3.352 0 1.664-.515 2.933-1.547 3.808-1.031.875-2.531 1.313-4.5 1.313-.82 0-1.644-.09-2.472-.27a13.46 13.46 0 0 1-2.496-.785v-2.519c.898.57 1.746.988 2.543 1.254a7.708 7.708 0 0 0 2.425.398c1.196 0 2.125-.266 2.789-.797.664-.539.996-1.289.996-2.25 0-.875-.23-1.543-.691-2.004-.453-.461-1.246-.816-2.379-1.066l-1.266-.293c-1.624-.367-2.804-.922-3.539-1.664-.734-.742-1.101-1.739-1.101-2.989 0-1.562.523-2.812 1.57-3.75 1.055-.945 2.453-1.417 4.196-1.417.671 0 1.378.078 2.121.234a15.38 15.38 0 0 1 2.343.68Zm3.153-.598h13.347v1.992h-5.472V347h-2.379v-15.504h-5.496v-1.992Zm38.789 0h2.226l-9.211 19.723h-2.238l9.223-19.723Zm12.269 10.898h-.715c-1.257 0-2.207.223-2.847.668-.633.438-.949 1.094-.949 1.969 0 .789.238 1.402.714 1.84.477.437 1.137.656 1.981.656 1.187 0 2.121-.41 2.801-1.23.679-.828 1.023-1.969 1.031-3.422v-.481h-2.016Zm4.184-.89V347h-2.168v-1.945c-.461.781-1.043 1.359-1.746 1.734-.695.367-1.543.551-2.543.551-1.336 0-2.402-.375-3.199-1.125-.797-.758-1.196-1.77-1.196-3.035 0-1.461.489-2.571 1.465-3.328.985-.758 2.426-1.137 4.324-1.137h2.895v-.34c-.008-1.047-.274-1.805-.797-2.273-.523-.477-1.359-.715-2.508-.715a8.19 8.19 0 0 0-2.226.316c-.75.211-1.481.52-2.192.926v-2.156a14.554 14.554 0 0 1 2.285-.68 10.266 10.266 0 0 1 2.133-.234c1.086 0 2.012.16 2.778.48.773.32 1.398.801 1.875 1.441.296.391.507.875.632 1.454.125.57.188 1.429.188 2.578Zm4.336 2.519v-8.133h2.156v8.133c0 1.18.207 2.047.621 2.602.422.555 1.07.832 1.945.832 1.016 0 1.793-.356 2.333-1.067.539-.718.808-1.746.808-3.082v-7.418h2.168V347h-2.168v-1.969c-.383.758-.906 1.332-1.57 1.723-.656.391-1.426.586-2.309.586-1.344 0-2.344-.438-3-1.313-.656-.882-.984-2.215-.984-3.996Zm19.371-11.883v3.727h4.898v1.676h-4.898v7.125c0 .969.184 1.644.551 2.027.367.383 1.007.574 1.922.574h2.425V347h-2.636c-1.618 0-2.758-.324-3.422-.973-.664-.648-.996-1.765-.996-3.351v-7.125h-3.504v-1.676h3.504v-3.727h2.156Zm19.582 8.719V347h-2.168v-8.133c0-1.179-.207-2.047-.621-2.601-.414-.555-1.063-.832-1.945-.832-1.008 0-1.786.359-2.332 1.078-.54.711-.809 1.734-.809 3.07V347h-2.156v-18.234h2.156v7.078c.383-.75.902-1.317 1.559-1.699.656-.391 1.433-.586 2.332-.586 1.336 0 2.332.441 2.988 1.324.664.875.996 2.203.996 3.984Zm3.34-.351h12.422v1.98h-12.422v-1.98Zm26.39.843v1.055h-9.339v.07c-.063 1.789.277 3.075 1.019 3.856.75.781 1.805 1.172 3.164 1.172a7.72 7.72 0 0 0 2.156-.328c.75-.219 1.551-.551 2.403-.996v2.144c-.821.336-1.614.586-2.379.75a9.943 9.943 0 0 1-2.203.258c-2.039 0-3.633-.61-4.782-1.828-1.148-1.227-1.722-2.914-1.722-5.063 0-2.094.562-3.765 1.687-5.015 1.125-1.25 2.625-1.875 4.5-1.875 1.672 0 2.989.566 3.95 1.699.968 1.133 1.484 2.5 1.546 4.101Zm-2.156-.632c-.094-.907-.426-1.688-.996-2.344-.562-.664-1.375-.996-2.437-.996-1.039 0-1.895.343-2.567 1.031-.672.687-1.039 1.461-1.101 2.32l7.101-.011Zm15.809.14V347h-2.168v-8.133c0-1.179-.207-2.047-.621-2.601-.414-.555-1.063-.832-1.946-.832-1.007 0-1.785.359-2.332 1.078-.539.711-.808 1.734-.808 3.07V347h-2.156v-13.125h2.156v1.969c.383-.75.902-1.317 1.558-1.699.657-.391 1.434-.586 2.332-.586 1.336 0 2.332.441 2.989 1.324.664.875.996 2.203.996 3.984Zm12.199-3.316v-6.785h2.156V347h-2.156v-1.652a3.783 3.783 0 0 1-1.441 1.488c-.594.336-1.282.504-2.063.504-1.586 0-2.836-.613-3.75-1.84-.906-1.234-1.359-2.934-1.359-5.098 0-2.132.457-3.804 1.371-5.015.914-1.219 2.16-1.828 3.738-1.828.789 0 1.484.171 2.086.515.602.336 1.074.828 1.418 1.477Zm-6.34 4.898c0 1.672.266 2.934.797 3.785.531.852 1.316 1.278 2.355 1.278 1.04 0 1.829-.43 2.368-1.289.547-.86.82-2.118.82-3.774 0-1.664-.273-2.922-.82-3.773-.539-.86-1.328-1.289-2.368-1.289-1.039 0-1.824.425-2.355 1.277-.531.852-.797 2.113-.797 3.785Zm15.141 4.899v6.644h-2.168v-18.117h2.168v1.676c.359-.649.836-1.141 1.429-1.477.602-.344 1.293-.515 2.075-.515 1.586 0 2.828.613 3.726 1.839.906 1.227 1.36 2.926 1.36 5.098 0 2.133-.454 3.809-1.36 5.027-.906 1.211-2.148 1.817-3.726 1.817-.797 0-1.496-.168-2.098-.504a3.643 3.643 0 0 1-1.406-1.488Zm6.328-4.899c0-1.672-.266-2.933-.797-3.785-.523-.852-1.305-1.277-2.344-1.277-1.047 0-1.84.429-2.379 1.289-.539.851-.808 2.109-.808 3.773 0 1.656.269 2.914.808 3.774.539.859 1.332 1.289 2.379 1.289 1.039 0 1.821-.426 2.344-1.278.531-.851.797-2.113.797-3.785Zm10.957-5.062c-1.094 0-1.922.425-2.484 1.277-.563.852-.844 2.113-.844 3.785 0 1.664.281 2.926.844 3.785.562.852 1.39 1.278 2.484 1.278 1.101 0 1.934-.426 2.496-1.278.562-.859.844-2.121.844-3.785 0-1.672-.282-2.933-.844-3.785-.562-.852-1.395-1.277-2.496-1.277Zm0-1.828c1.82 0 3.211.589 4.172 1.769.969 1.18 1.453 2.887 1.453 5.121 0 2.242-.481 3.953-1.441 5.133-.961 1.172-2.356 1.758-4.184 1.758-1.82 0-3.211-.586-4.172-1.758-.961-1.18-1.441-2.891-1.441-5.133 0-2.234.48-3.941 1.441-5.121.961-1.18 2.352-1.769 4.172-1.769Zm10.945.363h5.52v11.402h4.277V347h-10.711v-1.676h4.277v-9.726h-3.363v-1.676Zm3.363-5.098h2.157v2.719h-2.157v-2.719Zm19.711 10.043V347h-2.168v-8.133c0-1.179-.207-2.047-.621-2.601-.414-.555-1.062-.832-1.945-.832-1.008 0-1.785.359-2.332 1.078-.539.711-.809 1.734-.809 3.07V347h-2.156v-13.125h2.156v1.969c.383-.75.903-1.317 1.559-1.699.656-.391 1.434-.586 2.332-.586 1.336 0 2.332.441 2.988 1.324.664.875.996 2.203.996 3.984Zm9.34-8.719v3.727h4.899v1.676h-4.899v7.125c0 .969.184 1.644.551 2.027.367.383 1.008.574 1.922.574h2.426V347h-2.637c-1.617 0-2.758-.324-3.422-.973-.664-.648-.996-1.765-.996-3.351v-7.125h-3.504v-1.676h3.504v-3.727h2.156Z" fill="#35303F"/><g filter="url(#n)"><path d="M651 753H461a8 8 0 0 0-8 8v34a8 8 0 0 0 8 8h190a8 8 0 0 0 8-8v-34a8 8 0 0 0-8-8Z" fill="#FDFCFD"/><path d="M651 753H461a8 8 0 0 0-8 8v34a8 8 0 0 0 8 8h190a8 8 0 0 0 8-8v-34a8 8 0 0 0-8-8Z" fill="url(#o)" fill-opacity=".05"/><path d="M461 753.5h190a7.5 7.5 0 0 1 7.5 7.5v34a7.5 7.5 0 0 1-7.5 7.5H461a7.5 7.5 0 0 1-7.5-7.5v-34a7.5 7.5 0 0 1 7.5-7.5Z" stroke="url(#p)" stroke-opacity=".3"/></g><path d="M482.77 775.582a4.885 4.885 0 0 0-1.407-.785c-.476-.164-1-.246-1.57-.246-1.344 0-2.371.422-3.082 1.265-.711.844-1.066 2.063-1.066 3.657V786h-2.168v-13.125h2.168v2.566c.359-.929.91-1.64 1.652-2.132.75-.5 1.637-.75 2.66-.75.531 0 1.027.066 1.488.199.461.133.903.34 1.325.621v2.203Zm14.05 2.777v1.055h-9.34v.07c-.062 1.789.278 3.075 1.02 3.856.75.781 1.805 1.172 3.164 1.172a7.72 7.72 0 0 0 2.156-.328c.75-.219 1.551-.551 2.403-.996v2.144c-.821.336-1.614.586-2.379.75a9.943 9.943 0 0 1-2.203.258c-2.039 0-3.633-.61-4.782-1.828-1.148-1.227-1.722-2.914-1.722-5.063 0-2.094.562-3.765 1.687-5.015 1.125-1.25 2.625-1.875 4.5-1.875 1.672 0 2.988.566 3.949 1.699.969 1.133 1.485 2.5 1.547 4.101Zm-2.156-.632c-.094-.907-.426-1.688-.996-2.344-.563-.664-1.375-.996-2.438-.996-1.039 0-1.894.343-2.566 1.031-.672.687-1.039 1.461-1.102 2.32l7.102-.011Zm10.688-8.579v3.727h4.898v1.676h-4.898v7.125c0 .969.183 1.644.55 2.027.368.383 1.008.574 1.922.574h2.426V786h-2.637c-1.617 0-2.758-.324-3.422-.973-.664-.648-.996-1.765-.996-3.351v-7.125h-3.504v-1.676h3.504v-3.727h2.157Zm9.55 11.883v-8.133h2.157v8.133c0 1.18.207 2.047.621 2.602.422.555 1.07.832 1.945.832 1.016 0 1.793-.356 2.332-1.067.539-.718.809-1.746.809-3.082v-7.418h2.168V786h-2.168v-1.969c-.383.758-.907 1.332-1.571 1.723-.656.391-1.425.586-2.308.586-1.344 0-2.344-.438-3-1.313-.657-.882-.985-2.215-.985-3.996Zm25.711-5.449a4.88 4.88 0 0 0-1.406-.785 4.8 4.8 0 0 0-1.57-.246c-1.344 0-2.371.422-3.082 1.265-.711.844-1.067 2.063-1.067 3.657V786h-2.168v-13.125h2.168v2.566c.36-.929.91-1.64 1.653-2.132.75-.5 1.636-.75 2.66-.75.531 0 1.027.066 1.488.199.461.133.902.34 1.324.621v2.203Zm13.242 2.285V786h-2.167v-8.133c0-1.179-.208-2.047-.622-2.601-.414-.555-1.062-.832-1.945-.832-1.008 0-1.785.359-2.332 1.078-.539.711-.809 1.734-.809 3.07V786h-2.156v-13.125h2.156v1.969c.383-.75.903-1.317 1.559-1.699.656-.391 1.434-.586 2.332-.586 1.336 0 2.332.441 2.988 1.324.664.875.996 2.203.996 3.984Zm23.801-8.719v3.727h4.899v1.676h-4.899v7.125c0 .969.184 1.644.551 2.027.367.383 1.008.574 1.922.574h2.426V786h-2.637c-1.617 0-2.758-.324-3.422-.973-.664-.648-.996-1.765-.996-3.351v-7.125h-3.504v-1.676h3.504v-3.727h2.156Zm14.485 5.239c-1.094 0-1.922.425-2.485 1.277-.562.852-.844 2.113-.844 3.785 0 1.664.282 2.926.844 3.785.563.852 1.391 1.278 2.485 1.278 1.101 0 1.933-.426 2.496-1.278.562-.859.843-2.121.843-3.785 0-1.672-.281-2.933-.843-3.785-.563-.852-1.395-1.277-2.496-1.277Zm0-1.828c1.82 0 3.211.589 4.171 1.769.969 1.18 1.454 2.887 1.454 5.121 0 2.242-.481 3.953-1.442 5.133-.961 1.172-2.355 1.758-4.183 1.758-1.821 0-3.211-.586-4.172-1.758-.961-1.18-1.442-2.891-1.442-5.133 0-2.234.481-3.941 1.442-5.121.961-1.18 2.351-1.769 4.172-1.769Zm10.007-4.793h2.227v10.558l5.66-5.449h2.625l-5.168 4.945 5.977 8.18h-2.637l-4.852-6.773-1.605 1.511V786h-2.227v-18.234Zm24.821 10.593v1.055h-9.34v.07c-.063 1.789.277 3.075 1.019 3.856.75.781 1.805 1.172 3.164 1.172.688 0 1.407-.11 2.157-.328.75-.219 1.551-.551 2.402-.996v2.144c-.82.336-1.613.586-2.379.75a9.943 9.943 0 0 1-2.203.258c-2.039 0-3.633-.61-4.781-1.828-1.149-1.227-1.723-2.914-1.723-5.063 0-2.094.563-3.765 1.688-5.015 1.125-1.25 2.625-1.875 4.5-1.875 1.672 0 2.988.566 3.949 1.699.969 1.133 1.484 2.5 1.547 4.101Zm-2.157-.632c-.093-.907-.425-1.688-.996-2.344-.562-.664-1.375-.996-2.437-.996-1.039 0-1.895.343-2.567 1.031-.671.687-1.039 1.461-1.101 2.32l7.101-.011Zm15.809.14V786h-2.168v-8.133c0-1.179-.207-2.047-.621-2.601-.414-.555-1.062-.832-1.945-.832-1.008 0-1.785.359-2.332 1.078-.539.711-.809 1.734-.809 3.07V786h-2.156v-13.125h2.156v1.969c.383-.75.902-1.317 1.559-1.699.656-.391 1.433-.586 2.332-.586 1.336 0 2.332.441 2.988 1.324.664.875.996 2.203.996 3.984Z" fill="#35303F"/><g filter="url(#q)"><path d="M1247 643h-190a8 8 0 0 0-8 8v34a8 8 0 0 0 8 8h190a8 8 0 0 0 8-8v-34a8 8 0 0 0-8-8Z" fill="#5746AF"/><path d="M1247 643h-190a8 8 0 0 0-8 8v34a8 8 0 0 0 8 8h190a8 8 0 0 0 8-8v-34a8 8 0 0 0-8-8Z" fill="url(#r)" fill-opacity=".05"/><path d="M1057 643.5h190c4.14 0 7.5 3.358 7.5 7.5v34c0 4.142-3.36 7.5-7.5 7.5h-190c-4.14 0-7.5-3.358-7.5-7.5v-34c0-4.142 3.36-7.5 7.5-7.5Z" stroke="url(#s)" stroke-opacity=".3"/></g><path d="M1078.77 665.582a4.848 4.848 0 0 0-1.41-.785 4.77 4.77 0 0 0-1.57-.246c-1.34 0-2.37.422-3.08 1.265-.71.844-1.06 2.063-1.06 3.657V676h-2.17v-13.125h2.17v2.566c.35-.929.91-1.64 1.65-2.132.75-.5 1.63-.75 2.66-.75.53 0 1.02.066 1.49.199.46.133.9.34 1.32.621v2.203Zm14.05 2.777v1.055h-9.34v.07c-.06 1.789.28 3.075 1.02 3.856.75.781 1.81 1.172 3.16 1.172.69 0 1.41-.11 2.16-.328.75-.219 1.55-.551 2.4-.996v2.144c-.82.336-1.61.586-2.38.75a9.87 9.87 0 0 1-2.2.258c-2.04 0-3.63-.61-4.78-1.828-1.15-1.227-1.72-2.914-1.72-5.063 0-2.094.56-3.765 1.68-5.015 1.13-1.25 2.63-1.875 4.5-1.875 1.68 0 2.99.566 3.95 1.699.97 1.133 1.49 2.5 1.55 4.101Zm-2.16-.632c-.09-.907-.42-1.688-.99-2.344-.56-.664-1.38-.996-2.44-.996-1.04 0-1.89.343-2.57 1.031-.67.687-1.03 1.461-1.1 2.32l7.1-.011Zm10.69-8.579v3.727h4.9v1.676h-4.9v7.125c0 .969.19 1.644.55 2.027.37.383 1.01.574 1.92.574h2.43V676h-2.64c-1.61 0-2.75-.324-3.42-.973-.66-.648-.99-1.765-.99-3.351v-7.125h-3.51v-1.676h3.51v-3.727h2.15Zm9.55 11.883v-8.133h2.16v8.133c0 1.18.21 2.047.62 2.602.42.555 1.07.832 1.95.832 1.01 0 1.79-.356 2.33-1.067.54-.718.81-1.746.81-3.082v-7.418h2.16V676h-2.16v-1.969c-.39.758-.91 1.332-1.57 1.723s-1.43.586-2.31.586c-1.35 0-2.35-.438-3-1.313-.66-.882-.99-2.215-.99-3.996Zm25.71-5.449a4.933 4.933 0 0 0-1.4-.785c-.48-.164-1-.246-1.57-.246-1.35 0-2.37.422-3.09 1.265-.71.844-1.06 2.063-1.06 3.657V676h-2.17v-13.125h2.17v2.566c.36-.929.91-1.64 1.65-2.132.75-.5 1.64-.75 2.66-.75.53 0 1.03.066 1.49.199.46.133.9.34 1.32.621v2.203Zm13.25 2.285V676h-2.17v-8.133c0-1.179-.21-2.047-.62-2.601-.42-.555-1.07-.832-1.95-.832-1.01 0-1.78.359-2.33 1.078-.54.711-.81 1.734-.81 3.07V676h-2.16v-13.125h2.16v1.969c.38-.75.9-1.317 1.56-1.699.66-.391 1.43-.586 2.33-.586 1.34 0 2.33.441 2.99 1.324.66.875 1 2.203 1 3.984Zm23.8-8.719v3.727h4.89v1.676h-4.89v7.125c0 .969.18 1.644.55 2.027.36.383 1 .574 1.92.574h2.42V676h-2.63c-1.62 0-2.76-.324-3.42-.973-.67-.648-1-1.765-1-3.351v-7.125h-3.5v-1.676h3.5v-3.727h2.16Zm14.48 5.239c-1.09 0-1.92.425-2.48 1.277-.57.852-.85 2.113-.85 3.785 0 1.664.28 2.926.85 3.785.56.852 1.39 1.278 2.48 1.278 1.1 0 1.93-.426 2.5-1.278.56-.859.84-2.121.84-3.785 0-1.672-.28-2.933-.84-3.785-.57-.852-1.4-1.277-2.5-1.277Zm0-1.828c1.82 0 3.21.589 4.17 1.769.97 1.18 1.46 2.887 1.46 5.121 0 2.242-.48 3.953-1.45 5.133-.96 1.172-2.35 1.758-4.18 1.758-1.82 0-3.21-.586-4.17-1.758-.96-1.18-1.44-2.891-1.44-5.133 0-2.234.48-3.941 1.44-5.121.96-1.18 2.35-1.769 4.17-1.769Zm10.01-4.793h2.23v10.558l5.66-5.449h2.62l-5.17 4.945 5.98 8.18h-2.64l-4.85-6.773-1.6 1.511V676h-2.23v-18.234Zm24.82 10.593v1.055h-9.34v.07c-.06 1.789.28 3.075 1.02 3.856.75.781 1.8 1.172 3.16 1.172.69 0 1.41-.11 2.16-.328.75-.219 1.55-.551 2.4-.996v2.144c-.82.336-1.61.586-2.38.75-.76.172-1.49.258-2.2.258-2.04 0-3.63-.61-4.78-1.828-1.15-1.227-1.72-2.914-1.72-5.063 0-2.094.56-3.765 1.68-5.015 1.13-1.25 2.63-1.875 4.5-1.875 1.67 0 2.99.566 3.95 1.699.97 1.133 1.49 2.5 1.55 4.101Zm-2.16-.632c-.09-.907-.42-1.688-.99-2.344-.57-.664-1.38-.996-2.44-.996-1.04 0-1.9.343-2.57 1.031-.67.687-1.04 1.461-1.1 2.32l7.1-.011Zm15.81.14V676h-2.17v-8.133c0-1.179-.2-2.047-.62-2.601-.41-.555-1.06-.832-1.94-.832-1.01 0-1.79.359-2.34 1.078-.53.711-.8 1.734-.8 3.07V676h-2.16v-13.125h2.16v1.969c.38-.75.9-1.317 1.55-1.699.66-.391 1.44-.586 2.34-.586 1.33 0 2.33.441 2.98 1.324.67.875 1 2.203 1 3.984Z" fill="#FDFCFD"/><g filter="url(#t)"><path d="M1312 414H992a8 8 0 0 0-8 8v152a8 8 0 0 0 8 8h320a8 8 0 0 0 8-8V422a8 8 0 0 0-8-8Z" fill="#FDFCFD"/><path d="M1312 414H992a8 8 0 0 0-8 8v152a8 8 0 0 0 8 8h320a8 8 0 0 0 8-8V422a8 8 0 0 0-8-8Z" fill="url(#u)" fill-opacity=".05"/><path d="M992 414.5h320c4.14 0 7.5 3.358 7.5 7.5v152c0 4.142-3.36 7.5-7.5 7.5H992a7.5 7.5 0 0 1-7.5-7.5V422a7.5 7.5 0 0 1 7.5-7.5Z" stroke="url(#v)" stroke-opacity=".3"/></g><path d="M1008.23 448.402h-.72c-1.26 0-2.2.223-2.85.668-.63.438-.94 1.094-.94 1.969 0 .789.23 1.402.71 1.84.48.437 1.14.656 1.98.656 1.19 0 2.12-.41 2.8-1.23.68-.828 1.02-1.969 1.03-3.422v-.481h-2.01Zm4.18-.89V455h-2.17v-1.945c-.46.781-1.04 1.359-1.74 1.734-.7.367-1.55.551-2.55.551-1.33 0-2.4-.375-3.2-1.125-.79-.758-1.19-1.77-1.19-3.035 0-1.461.49-2.571 1.46-3.328.99-.758 2.43-1.137 4.33-1.137h2.89v-.34c-.01-1.047-.27-1.805-.79-2.273-.53-.477-1.36-.715-2.51-.715-.74 0-1.48.105-2.23.316a9.69 9.69 0 0 0-2.19.926v-2.156c.8-.305 1.56-.532 2.29-.68a10.18 10.18 0 0 1 2.13-.234c1.08 0 2.01.16 2.78.48.77.32 1.39.801 1.87 1.441.3.391.51.875.63 1.454.13.57.19 1.429.19 2.578Zm4.34 2.519v-8.133h2.15v8.133c0 1.18.21 2.047.62 2.602.43.555 1.07.832 1.95.832 1.01 0 1.79-.356 2.33-1.067.54-.718.81-1.746.81-3.082v-7.418h2.17V455h-2.17v-1.969c-.38.758-.91 1.332-1.57 1.723s-1.43.586-2.31.586c-1.34 0-2.34-.438-3-1.313-.66-.882-.98-2.215-.98-3.996Zm19.37-11.883v3.727h4.9v1.676h-4.9v7.125c0 .969.18 1.644.55 2.027.37.383 1.01.574 1.92.574h2.43V455h-2.64c-1.62 0-2.76-.324-3.42-.973-.67-.648-1-1.765-1-3.351v-7.125h-3.5v-1.676h3.5v-3.727h2.16Zm19.58 8.719V455h-2.17v-8.133c0-1.179-.21-2.047-.62-2.601-.41-.555-1.06-.832-1.94-.832-1.01 0-1.79.359-2.34 1.078-.54.711-.81 1.734-.81 3.07V455h-2.15v-18.234h2.15v7.078c.39-.75.91-1.317 1.56-1.699.66-.391 1.44-.586 2.34-.586 1.33 0 2.33.441 2.98 1.324.67.875 1 2.203 1 3.984Zm9.36-3.48c-1.09 0-1.92.425-2.48 1.277-.56.852-.85 2.113-.85 3.785 0 1.664.29 2.926.85 3.785.56.852 1.39 1.278 2.48 1.278 1.1 0 1.94-.426 2.5-1.278.56-.859.84-2.121.84-3.785 0-1.672-.28-2.933-.84-3.785-.56-.852-1.4-1.277-2.5-1.277Zm0-1.828c1.82 0 3.21.589 4.17 1.769.97 1.18 1.46 2.887 1.46 5.121 0 2.242-.48 3.953-1.44 5.133-.96 1.172-2.36 1.758-4.19 1.758-1.82 0-3.21-.586-4.17-1.758-.96-1.18-1.44-2.891-1.44-5.133 0-2.234.48-3.941 1.44-5.121.96-1.18 2.35-1.769 4.17-1.769Zm20.78 3.023a4.848 4.848 0 0 0-1.41-.785 4.77 4.77 0 0 0-1.57-.246c-1.34 0-2.37.422-3.08 1.265-.71.844-1.06 2.063-1.06 3.657V455h-2.17v-13.125h2.17v2.566c.35-.929.91-1.64 1.65-2.132.75-.5 1.63-.75 2.66-.75.53 0 1.03.066 1.49.199.46.133.9.34 1.32.621v2.203Zm4.63-2.66h5.52v11.402h4.28V455h-10.71v-1.676h4.27v-9.726h-3.36v-1.676Zm3.36-5.098h2.16v2.719h-2.16v-2.719Zm10.06 5.028h9.52v1.968l-7.53 9.422h7.53V455h-9.8v-1.992l7.53-9.434h-7.25v-1.722Zm24.92 5.507v1.055h-9.34v.07c-.06 1.789.28 3.075 1.02 3.856.75.781 1.81 1.172 3.17 1.172.68 0 1.4-.11 2.15-.328.75-.219 1.55-.551 2.4-.996v2.144c-.82.336-1.61.586-2.37.75-.76.172-1.5.258-2.21.258-2.04 0-3.63-.61-4.78-1.828-1.15-1.227-1.72-2.914-1.72-5.063 0-2.094.56-3.765 1.69-5.015 1.12-1.25 2.62-1.875 4.5-1.875 1.67 0 2.98.566 3.95 1.699.96 1.133 1.48 2.5 1.54 4.101Zm-2.15-.632c-.1-.907-.43-1.688-1-2.344-.56-.664-1.37-.996-2.44-.996-1.04 0-1.89.343-2.56 1.031-.68.687-1.04 1.461-1.1 2.32l7.1-.011Zm13.51-11.11c-1.04 1.781-1.82 3.559-2.33 5.332a19.178 19.178 0 0 0-.77 5.344c0 1.789.26 3.57.77 5.344.51 1.773 1.29 3.558 2.33 5.355h-1.88c-1.18-1.859-2.06-3.668-2.63-5.426-.58-1.765-.87-3.523-.87-5.273 0-1.742.29-3.496.87-5.262.57-1.765 1.45-3.57 2.63-5.414h1.88Zm16.53 19.981v1.687h-.75c-1.94 0-3.25-.289-3.91-.867-.66-.578-.99-1.73-.99-3.457v-2.344c0-.851-.24-1.586-.72-2.203-.48-.617-1.22-.926-2.23-.926h-1.43v-1.676h1.43c1.1 0 1.87-.261 2.3-.785.44-.523.65-1.293.65-2.308v-3.047c0-1.727.33-2.875.99-3.445.66-.579 1.97-.868 3.91-.868h.75v1.676h-.82c-1.09 0-1.81.172-2.14.516-.33.336-.49 1.058-.49 2.168v3.14c0 1.375-.27 2.301-.81 2.778-.54.468-1.59.808-3.15 1.019 1.51.18 2.55.528 3.11 1.043.56.508.85 1.43.85 2.766v2.449c0 1.117.16 1.844.49 2.18.33.336 1.05.504 2.14.504h.82Zm-114.24 22.984a4.848 4.848 0 0 0-1.41-.785c-.48-.164-1-.246-1.57-.246-1.34 0-2.37.422-3.08 1.265-.71.844-1.07 2.063-1.07 3.657V489h-2.17v-13.125h2.17v2.566c.36-.929.91-1.64 1.65-2.132.75-.5 1.64-.75 2.67-.75.53 0 1.02.066 1.48.199.46.133.91.34 1.33.621v2.203Zm8.14-1.195c-1.09 0-1.92.425-2.48 1.277-.56.852-.85 2.113-.85 3.785 0 1.664.29 2.926.85 3.785.56.852 1.39 1.278 2.48 1.278 1.1 0 1.94-.426 2.5-1.278.56-.859.84-2.121.84-3.785 0-1.672-.28-2.933-.84-3.785-.56-.852-1.4-1.277-2.5-1.277Zm0-1.828c1.82 0 3.21.589 4.17 1.769.97 1.18 1.46 2.887 1.46 5.121 0 2.242-.48 3.953-1.44 5.133-.97 1.172-2.36 1.758-4.19 1.758-1.82 0-3.21-.586-4.17-1.758-.96-1.18-1.44-2.891-1.44-5.133 0-2.234.48-3.941 1.44-5.121.96-1.18 2.35-1.769 4.17-1.769Zm14.46 1.828c-1.09 0-1.92.425-2.48 1.277-.56.852-.85 2.113-.85 3.785 0 1.664.29 2.926.85 3.785.56.852 1.39 1.278 2.48 1.278 1.1 0 1.94-.426 2.5-1.278.56-.859.84-2.121.84-3.785 0-1.672-.28-2.933-.84-3.785-.56-.852-1.4-1.277-2.5-1.277Zm0-1.828c1.82 0 3.21.589 4.17 1.769.97 1.18 1.46 2.887 1.46 5.121 0 2.242-.48 3.953-1.44 5.133-.96 1.172-2.36 1.758-4.19 1.758-1.82 0-3.21-.586-4.17-1.758-.96-1.18-1.44-2.891-1.44-5.133 0-2.234.48-3.941 1.44-5.121.96-1.18 2.35-1.769 4.17-1.769Zm15.17 1.652c.26-.563.6-.977 1-1.242.42-.274.92-.41 1.49-.41 1.06 0 1.8.41 2.23 1.23.44.813.66 2.348.66 4.606V489h-1.97v-7.512c0-1.851-.11-3-.32-3.445-.2-.453-.58-.68-1.12-.68-.63 0-1.06.242-1.29.727-.23.476-.34 1.609-.34 3.398V489h-1.97v-7.512c0-1.875-.12-3.031-.34-3.468-.22-.438-.62-.657-1.2-.657-.57 0-.97.242-1.19.727-.22.476-.33 1.609-.33 3.398V489h-1.96v-13.125h1.96V477c.26-.469.58-.824.96-1.066.39-.25.83-.375 1.32-.375.6 0 1.09.136 1.48.41.4.273.71.687.93 1.242Zm11.56-1.324h3.66v4.23h-3.66v-4.23Zm0 8.847h3.66V489h-3.66v-4.266Zm37.43-6.152a4.933 4.933 0 0 0-1.4-.785c-.48-.164-1-.246-1.57-.246-1.35 0-2.37.422-3.09 1.265-.71.844-1.06 2.063-1.06 3.657V489h-2.17v-13.125h2.17v2.566c.36-.929.91-1.64 1.65-2.132.75-.5 1.64-.75 2.66-.75.53 0 1.03.066 1.49.199.46.133.9.34 1.32.621v2.203Zm8.15-1.195c-1.1 0-1.92.425-2.49 1.277-.56.852-.84 2.113-.84 3.785 0 1.664.28 2.926.84 3.785.57.852 1.39 1.278 2.49 1.278 1.1 0 1.93-.426 2.49-1.278.57-.859.85-2.121.85-3.785 0-1.672-.28-2.933-.85-3.785-.56-.852-1.39-1.277-2.49-1.277Zm0-1.828c1.82 0 3.21.589 4.17 1.769.97 1.18 1.45 2.887 1.45 5.121 0 2.242-.48 3.953-1.44 5.133-.96 1.172-2.35 1.758-4.18 1.758-1.82 0-3.21-.586-4.17-1.758-.97-1.18-1.45-2.891-1.45-5.133 0-2.234.48-3.941 1.45-5.121.96-1.18 2.35-1.769 4.17-1.769Zm14.46 1.828c-1.1 0-1.92.425-2.49 1.277-.56.852-.84 2.113-.84 3.785 0 1.664.28 2.926.84 3.785.57.852 1.39 1.278 2.49 1.278 1.1 0 1.93-.426 2.49-1.278.57-.859.85-2.121.85-3.785 0-1.672-.28-2.933-.85-3.785-.56-.852-1.39-1.277-2.49-1.277Zm0-1.828c1.82 0 3.21.589 4.17 1.769.97 1.18 1.45 2.887 1.45 5.121 0 2.242-.48 3.953-1.44 5.133-.96 1.172-2.35 1.758-4.18 1.758-1.82 0-3.21-.586-4.17-1.758-.96-1.18-1.45-2.891-1.45-5.133 0-2.234.49-3.941 1.45-5.121.96-1.18 2.35-1.769 4.17-1.769Zm15.16 1.652c.27-.563.6-.977 1.01-1.242.41-.274.91-.41 1.49-.41 1.05 0 1.8.41 2.22 1.23.44.813.66 2.348.66 4.606V489h-1.97v-7.512c0-1.851-.1-3-.31-3.445-.21-.453-.58-.68-1.13-.68-.62 0-1.05.242-1.29.727-.22.476-.34 1.609-.34 3.398V489h-1.97v-7.512c0-1.875-.11-3.031-.34-3.468-.22-.438-.61-.657-1.19-.657-.57 0-.97.242-1.2.727-.22.476-.33 1.609-.33 3.398V489h-1.95v-13.125h1.95V477c.26-.469.58-.824.97-1.066.39-.25.83-.375 1.32-.375.59 0 1.09.136 1.48.41.39.273.7.687.92 1.242Zm11.72 7.559h3.66v3.105l-2.6 5.051-2.35.012 1.29-5.063v-3.105Zm-138.39 25.562v2.109a7.95 7.95 0 0 0-1.86-.808c-.62-.18-1.26-.27-1.91-.27-.98 0-1.71.16-2.19.481-.48.312-.71.793-.71 1.441 0 .586.17 1.024.53 1.313.36.289 1.26.57 2.69.843l.86.164c1.08.204 1.88.61 2.43 1.219.56.61.83 1.403.83 2.379 0 1.297-.46 2.313-1.38 3.047-.92.727-2.2 1.09-3.84 1.09-.65 0-1.33-.07-2.04-.211-.71-.133-1.48-.336-2.31-.609v-2.227c.8.414 1.57.727 2.31.937.73.204 1.43.305 2.08.305.96 0 1.69-.191 2.22-.574.52-.391.78-.934.78-1.629 0-1-.95-1.691-2.87-2.074l-.09-.024-.81-.164c-1.24-.242-2.15-.648-2.72-1.218-.57-.579-.85-1.364-.85-2.356 0-1.258.42-2.226 1.27-2.906.85-.688 2.07-1.031 3.65-1.031.7 0 1.38.066 2.02.199.65.125 1.29.316 1.91.574Zm16.19 5.027v1.055h-9.34v.07c-.06 1.789.28 3.075 1.02 3.856.75.781 1.8 1.172 3.16 1.172.69 0 1.41-.11 2.16-.328.75-.219 1.55-.551 2.4-.996v2.144c-.82.336-1.61.586-2.38.75-.76.172-1.49.258-2.2.258-2.04 0-3.63-.61-4.78-1.828-1.15-1.227-1.73-2.914-1.73-5.063 0-2.094.57-3.765 1.69-5.015 1.13-1.25 2.63-1.875 4.5-1.875 1.67 0 2.99.566 3.95 1.699.97 1.133 1.49 2.5 1.55 4.101Zm-2.16-.632c-.09-.907-.42-1.688-.99-2.344-.57-.664-1.38-.996-2.44-.996-1.04 0-1.9.343-2.57 1.031-.67.687-1.04 1.461-1.1 2.32l7.1-.011Zm15.93 7.605a7.31 7.31 0 0 1-1.8.75c-.6.172-1.23.258-1.87.258-2.03 0-3.62-.61-4.77-1.828-1.14-1.219-1.71-2.907-1.71-5.063 0-2.156.57-3.844 1.71-5.062 1.15-1.219 2.74-1.828 4.77-1.828.63 0 1.25.082 1.85.246.6.164 1.21.418 1.82.761v2.262c-.57-.508-1.15-.875-1.72-1.101-.58-.227-1.22-.34-1.95-.34-1.35 0-2.39.437-3.12 1.312-.72.875-1.09 2.125-1.09 3.75 0 1.617.37 2.867 1.09 3.75.74.875 1.78 1.313 3.12 1.313.75 0 1.42-.114 2.02-.34a5.161 5.161 0 0 0 1.65-1.078v2.238Zm15.56-9.75a4.848 4.848 0 0 0-1.41-.785 4.77 4.77 0 0 0-1.57-.246c-1.34 0-2.37.422-3.08 1.265-.71.844-1.06 2.063-1.06 3.657V523h-2.17v-13.125h2.17v2.566c.35-.929.91-1.64 1.65-2.132.75-.5 1.63-.75 2.66-.75.53 0 1.03.066 1.49.199.46.133.9.34 1.32.621v2.203Zm14.05 2.777v1.055h-9.34v.07c-.06 1.789.28 3.075 1.02 3.856.75.781 1.81 1.172 3.16 1.172.69 0 1.41-.11 2.16-.328.75-.219 1.55-.551 2.4-.996v2.144c-.82.336-1.61.586-2.38.75a9.87 9.87 0 0 1-2.2.258c-2.04 0-3.63-.61-4.78-1.828-1.15-1.227-1.72-2.914-1.72-5.063 0-2.094.56-3.765 1.69-5.015 1.12-1.25 2.62-1.875 4.5-1.875 1.67 0 2.98.566 3.94 1.699.97 1.133 1.49 2.5 1.55 4.101Zm-2.16-.632c-.09-.907-.42-1.688-.99-2.344-.56-.664-1.38-.996-2.44-.996-1.04 0-1.89.343-2.57 1.031-.67.687-1.03 1.461-1.1 2.32l7.1-.011Zm10.69-8.579v3.727h4.9v1.676h-4.9v7.125c0 .969.19 1.644.55 2.027.37.383 1.01.574 1.93.574h2.42V523h-2.64c-1.61 0-2.75-.324-3.42-.973-.66-.648-.99-1.765-.99-3.351v-7.125h-3.51v-1.676h3.51v-3.727h2.15Zm12.3 3.739h3.65v4.23h-3.65v-4.23Zm0 8.847h3.65V523h-3.65v-4.266Zm35.75-12.632v2.402a9.28 9.28 0 0 0-2.17-1.043 6.984 6.984 0 0 0-2.18-.352c-1.12 0-2 .262-2.65.786-.65.515-.97 1.214-.97 2.097 0 .774.21 1.363.63 1.77.43.406 1.23.746 2.39 1.019l1.25.281c1.64.383 2.83.985 3.58 1.805.75.821 1.13 1.938 1.13 3.352 0 1.664-.52 2.933-1.55 3.808s-2.53 1.313-4.5 1.313c-.82 0-1.64-.09-2.47-.27-.83-.172-1.66-.433-2.5-.785v-2.519c.9.57 1.75.988 2.54 1.254.81.265 1.62.398 2.43.398 1.19 0 2.12-.266 2.79-.797.66-.539.99-1.289.99-2.25 0-.875-.23-1.543-.69-2.004-.45-.461-1.24-.816-2.38-1.066l-1.26-.293c-1.63-.367-2.81-.922-3.54-1.664-.73-.742-1.1-1.739-1.1-2.989 0-1.562.52-2.812 1.57-3.75 1.05-.945 2.45-1.417 4.19-1.417.68 0 1.38.078 2.12.234.75.148 1.53.375 2.35.68Zm4.91-.598h10.38v1.992h-8.01v4.711h7.66v1.992h-7.66v6.809h8.23V523h-10.6v-17.496Zm24.73 16.875c-.61.32-1.22.559-1.86.715-.63.164-1.3.246-2.01.246-2.24 0-3.99-.793-5.23-2.379-1.23-1.586-1.85-3.816-1.85-6.691 0-2.86.62-5.086 1.86-6.68 1.25-1.602 2.99-2.402 5.22-2.402.71 0 1.38.082 2.01.246.64.156 1.25.394 1.86.714v2.426c-.58-.476-1.2-.84-1.87-1.09a5.62 5.62 0 0 0-2-.375c-1.54 0-2.69.594-3.46 1.782-.76 1.187-1.15 2.98-1.15 5.379 0 2.39.39 4.179 1.15 5.367.77 1.187 1.92 1.781 3.46 1.781.69 0 1.36-.125 2.01-.375.67-.25 1.29-.613 1.86-1.09v2.426Zm10.79-7.641a3.29 3.29 0 0 1 1.56.891c.43.43.96 1.293 1.6 2.59l2.38 4.781h-2.54l-2.09-4.418c-.6-1.258-1.14-2.066-1.63-2.426-.47-.367-1.1-.551-1.87-.551h-2.26V523h-2.38v-17.496h4.87c1.92 0 3.4.434 4.42 1.301s1.54 2.121 1.54 3.761c0 1.157-.32 2.102-.95 2.836-.63.727-1.51 1.172-2.65 1.336Zm-4.85-7.289v6.211h2.59c1.13 0 1.97-.254 2.53-.762.55-.507.83-1.285.83-2.332 0-1.007-.3-1.777-.89-2.308-.59-.539-1.44-.809-2.57-.809h-2.49Zm12.71-1.945h10.38v1.992h-8.01v4.711h7.66v1.992h-7.66v6.809h8.24V523h-10.61v-17.496Zm12.7 0h13.35v1.992h-5.47V523h-2.38v-15.504h-5.5v-1.992Zm28.26 19.723v1.992h-14.34v-1.992h14.34Zm1.72-19.723h2.38v7.781l7.39-7.781h2.78l-6.81 7.148 7.01 10.348h-2.86l-5.71-8.766-1.8 1.922V523h-2.38v-17.496Zm15.17 0h10.38v1.992h-8.02v4.711h7.67v1.992h-7.67v6.809h8.24V523h-10.6v-17.496Zm12.58 0h2.52l4.27 7.723 4.25-7.723h2.54l-5.61 9.644V523h-2.38v-7.852l-5.59-9.644Zm19.21 13.266h3.65v3.105l-2.6 5.051-2.34.012 1.29-5.063v-3.105Zm-291.01 38.828c1.09 0 1.8-.168 2.13-.504.34-.336.5-1.063.5-2.18v-2.449c0-1.336.29-2.258.85-2.766.56-.515 1.6-.863 3.11-1.043-1.56-.211-2.61-.551-3.15-1.019-.54-.477-.81-1.403-.81-2.778v-3.14c0-1.11-.16-1.832-.5-2.168-.33-.344-1.04-.516-2.13-.516h-.82v-1.676h.75c1.94 0 3.24.289 3.9.868.66.57 1 1.718 1 3.445v3.047c0 1.015.21 1.785.64 2.308.44.524 1.21.785 2.31.785h1.43v1.676h-1.43c-1.01 0-1.76.309-2.24.926-.48.617-.71 1.352-.71 2.203v2.344c0 1.727-.34 2.879-1 3.457-.66.578-1.96.867-3.9.867h-.75v-1.687h.82Zm15.15-19.981h1.87c1.18 1.844 2.06 3.649 2.64 5.414.58 1.766.87 3.52.87 5.262 0 1.758-.29 3.519-.87 5.285-.58 1.766-1.46 3.57-2.64 5.414h-1.87c1.04-1.812 1.81-3.605 2.32-5.379a18.81 18.81 0 0 0 0-10.652c-.51-1.773-1.28-3.555-2.32-5.344Z" fill="#35303F"/><g filter="url(#w)"><path d="M972 863H739a8 8 0 0 0-8 8v34a8 8 0 0 0 8 8h233a8 8 0 0 0 8-8v-34a8 8 0 0 0-8-8Z" fill="#FDFCFD"/><path d="M972 863H739a8 8 0 0 0-8 8v34a8 8 0 0 0 8 8h233a8 8 0 0 0 8-8v-34a8 8 0 0 0-8-8Z" fill="url(#x)" fill-opacity=".05"/><path d="M739 863.5h233a7.5 7.5 0 0 1 7.5 7.5v34a7.5 7.5 0 0 1-7.5 7.5H739a7.5 7.5 0 0 1-7.5-7.5v-34a7.5 7.5 0 0 1 7.5-7.5Z" stroke="url(#y)" stroke-opacity=".3"/></g><path d="M748.766 889.285v-10.781h2.379v11.859c0 .852.023 1.461.07 1.828.047.36.129.637.246.832.25.461.609.809 1.078 1.043.477.235 1.051.352 1.723.352.679 0 1.254-.117 1.722-.352a2.506 2.506 0 0 0 1.09-1.043c.117-.195.199-.472.246-.832.047-.359.071-.961.071-1.804v-11.883h2.367v10.781c0 1.789-.113 3.063-.34 3.82a3.938 3.938 0 0 1-1.148 1.864A5.107 5.107 0 0 1 756.5 896c-.664.227-1.41.34-2.238.34-.821 0-1.563-.113-2.227-.34a5.22 5.22 0 0 1-1.781-1.031c-.539-.485-.922-1.11-1.149-1.875-.226-.774-.339-2.043-.339-3.809Zm17.132 5.063v6.644h-2.168v-18.117h2.168v1.676c.36-.649.836-1.141 1.43-1.477.602-.344 1.293-.515 2.074-.515 1.586 0 2.828.613 3.727 1.839.906 1.227 1.359 2.926 1.359 5.098 0 2.133-.453 3.809-1.359 5.027-.906 1.211-2.149 1.817-3.727 1.817-.797 0-1.496-.168-2.097-.504a3.652 3.652 0 0 1-1.407-1.488Zm6.329-4.899c0-1.672-.266-2.933-.797-3.785-.524-.852-1.305-1.277-2.344-1.277-1.047 0-1.84.429-2.379 1.289-.539.851-.809 2.109-.809 3.773 0 1.656.27 2.914.809 3.774.539.859 1.332 1.289 2.379 1.289 1.039 0 1.82-.426 2.344-1.278.531-.851.797-2.113.797-3.785Zm13.793-4.898v-6.785h2.156V896h-2.156v-1.652c-.36.648-.84 1.144-1.442 1.488-.594.336-1.281.504-2.062.504-1.586 0-2.836-.613-3.75-1.84-.907-1.234-1.36-2.934-1.36-5.098 0-2.132.457-3.804 1.371-5.015.914-1.219 2.161-1.828 3.739-1.828.789 0 1.484.171 2.086.515a3.55 3.55 0 0 1 1.418 1.477Zm-6.34 4.898c0 1.672.265 2.934.797 3.785.531.852 1.316 1.278 2.355 1.278s1.828-.43 2.367-1.289c.547-.86.821-2.118.821-3.774 0-1.664-.274-2.922-.821-3.773-.539-.86-1.328-1.289-2.367-1.289s-1.824.425-2.355 1.277c-.532.852-.797 2.113-.797 3.785Zm18.972-.047h-.714c-1.258 0-2.208.223-2.848.668-.633.438-.949 1.094-.949 1.969 0 .789.238 1.402.714 1.84.477.437 1.137.656 1.981.656 1.187 0 2.121-.41 2.801-1.23.679-.828 1.023-1.969 1.031-3.422v-.481h-2.016Zm4.184-.89V896h-2.168v-1.945c-.461.781-1.043 1.359-1.746 1.734-.695.367-1.543.551-2.543.551-1.336 0-2.402-.375-3.199-1.125-.797-.758-1.196-1.77-1.196-3.035 0-1.461.489-2.571 1.465-3.328.985-.758 2.426-1.137 4.324-1.137h2.895v-.34c-.008-1.047-.273-1.805-.797-2.273-.523-.477-1.359-.715-2.508-.715a8.19 8.19 0 0 0-2.226.316c-.75.211-1.481.52-2.192.926v-2.156a14.554 14.554 0 0 1 2.285-.68 10.266 10.266 0 0 1 2.133-.234c1.086 0 2.012.16 2.778.48.773.32 1.398.801 1.875 1.441.296.391.507.875.632 1.454.125.57.188 1.429.188 2.578Zm9.246-9.364v3.727h4.898v1.676h-4.898v7.125c0 .969.184 1.644.551 2.027.367.383 1.008.574 1.922.574h2.425V896h-2.636c-1.617 0-2.758-.324-3.422-.973-.664-.648-.996-1.765-.996-3.351v-7.125h-3.504v-1.676h3.504v-3.727h2.156Zm20.391 9.211v1.055h-9.34v.07c-.063 1.789.277 3.075 1.019 3.856.75.781 1.805 1.172 3.164 1.172.688 0 1.407-.11 2.157-.328.75-.219 1.55-.551 2.402-.996v2.144c-.82.336-1.613.586-2.379.75a9.943 9.943 0 0 1-2.203.258c-2.039 0-3.633-.61-4.781-1.828-1.149-1.227-1.723-2.914-1.723-5.063 0-2.094.563-3.765 1.688-5.015 1.125-1.25 2.625-1.875 4.5-1.875 1.671 0 2.988.566 3.949 1.699.969 1.133 1.484 2.5 1.547 4.101Zm-2.157-.632c-.093-.907-.425-1.688-.996-2.344-.562-.664-1.375-.996-2.437-.996-1.039 0-1.895.343-2.567 1.031-.671.687-1.039 1.461-1.101 2.32l7.101-.011Zm22.348 6.621v6.644h-2.168v-18.117h2.168v1.676c.359-.649.836-1.141 1.43-1.477.601-.344 1.293-.515 2.074-.515 1.586 0 2.828.613 3.727 1.839.906 1.227 1.359 2.926 1.359 5.098 0 2.133-.453 3.809-1.359 5.027-.907 1.211-2.149 1.817-3.727 1.817-.797 0-1.496-.168-2.098-.504a3.656 3.656 0 0 1-1.406-1.488Zm6.328-4.899c0-1.672-.265-2.933-.797-3.785-.523-.852-1.304-1.277-2.343-1.277-1.047 0-1.84.429-2.379 1.289-.539.851-.809 2.109-.809 3.773 0 1.656.27 2.914.809 3.774.539.859 1.332 1.289 2.379 1.289 1.039 0 1.82-.426 2.343-1.278.532-.851.797-2.113.797-3.785Zm17.274-3.867a4.885 4.885 0 0 0-1.407-.785c-.476-.164-1-.246-1.57-.246-1.344 0-2.371.422-3.082 1.265-.711.844-1.066 2.063-1.066 3.657V896h-2.168v-13.125h2.168v2.566c.359-.929.91-1.64 1.652-2.132.75-.5 1.637-.75 2.66-.75.531 0 1.027.066 1.488.199.461.133.903.34 1.325.621v2.203Zm14.05 2.777v1.055h-9.339v.07c-.063 1.789.277 3.075 1.019 3.856.75.781 1.805 1.172 3.164 1.172a7.72 7.72 0 0 0 2.156-.328c.75-.219 1.551-.551 2.403-.996v2.144c-.821.336-1.614.586-2.379.75a9.943 9.943 0 0 1-2.203.258c-2.039 0-3.633-.61-4.782-1.828-1.148-1.227-1.722-2.914-1.722-5.063 0-2.094.562-3.765 1.687-5.015 1.125-1.25 2.625-1.875 4.5-1.875 1.672 0 2.989.566 3.95 1.699.968 1.133 1.484 2.5 1.546 4.101Zm-2.156-.632c-.094-.907-.426-1.688-.996-2.344-.562-.664-1.375-.996-2.437-.996-1.039 0-1.895.343-2.567 1.031-.672.687-1.039 1.461-1.101 2.32l7.101-.011Zm14.895-4.395v2.109a8.2 8.2 0 0 0-1.864-.808 6.865 6.865 0 0 0-1.91-.27c-.976 0-1.707.16-2.191.481-.477.312-.715.793-.715 1.441 0 .586.18 1.024.539 1.313.359.289 1.254.57 2.684.843l.867.164c1.07.204 1.879.61 2.426 1.219.554.61.832 1.403.832 2.379 0 1.297-.461 2.313-1.383 3.047-.922.727-2.203 1.09-3.844 1.09-.648 0-1.328-.07-2.039-.211a18.035 18.035 0 0 1-2.309-.609v-2.227c.805.414 1.575.727 2.309.937.734.204 1.43.305 2.086.305.953 0 1.691-.191 2.215-.574.523-.391.785-.934.785-1.629 0-1-.957-1.691-2.871-2.074l-.094-.024-.808-.164c-1.243-.242-2.149-.648-2.719-1.218-.571-.579-.856-1.364-.856-2.356 0-1.258.426-2.226 1.278-2.906.851-.688 2.066-1.031 3.644-1.031.703 0 1.379.066 2.028.199a9.92 9.92 0 0 1 1.91.574Zm16.183 5.027v1.055h-9.34v.07c-.062 1.789.278 3.075 1.02 3.856.75.781 1.805 1.172 3.164 1.172a7.72 7.72 0 0 0 2.156-.328c.75-.219 1.551-.551 2.403-.996v2.144c-.821.336-1.614.586-2.379.75a9.943 9.943 0 0 1-2.203.258c-2.039 0-3.633-.61-4.782-1.828-1.148-1.227-1.722-2.914-1.722-5.063 0-2.094.562-3.765 1.687-5.015 1.125-1.25 2.625-1.875 4.5-1.875 1.672 0 2.988.566 3.949 1.699.969 1.133 1.485 2.5 1.547 4.101Zm-2.156-.632c-.094-.907-.426-1.688-.996-2.344-.563-.664-1.375-.996-2.438-.996-1.039 0-1.894.343-2.566 1.031-.672.687-1.039 1.461-1.102 2.32l7.102-.011Zm15.809.14V896h-2.168v-8.133c0-1.179-.207-2.047-.621-2.601-.414-.555-1.063-.832-1.946-.832-1.008 0-1.785.359-2.332 1.078-.539.711-.808 1.734-.808 3.07V896h-2.157v-13.125h2.157v1.969c.382-.75.902-1.317 1.558-1.699.656-.391 1.434-.586 2.332-.586 1.336 0 2.332.441 2.989 1.324.664.875.996 2.203.996 3.984Zm14.578 7.465a7.28 7.28 0 0 1-1.793.75 6.876 6.876 0 0 1-1.875.258c-2.031 0-3.621-.61-4.77-1.828-1.14-1.219-1.711-2.907-1.711-5.063 0-2.156.571-3.844 1.711-5.062 1.149-1.219 2.739-1.828 4.77-1.828a7 7 0 0 1 1.851.246 8.008 8.008 0 0 1 1.817.761v2.262c-.571-.508-1.145-.875-1.723-1.101-.57-.227-1.219-.34-1.945-.34-1.352 0-2.391.437-3.117 1.312-.727.875-1.09 2.125-1.09 3.75 0 1.617.363 2.867 1.09 3.75.734.875 1.773 1.313 3.117 1.313.75 0 1.422-.114 2.015-.34a5.108 5.108 0 0 0 1.653-1.078v2.238Zm15.152-6.973v1.055h-9.34v.07c-.062 1.789.278 3.075 1.02 3.856.75.781 1.804 1.172 3.164 1.172.687 0 1.406-.11 2.156-.328.75-.219 1.551-.551 2.402-.996v2.144c-.82.336-1.613.586-2.378.75a9.952 9.952 0 0 1-2.204.258c-2.039 0-3.632-.61-4.781-1.828-1.148-1.227-1.722-2.914-1.722-5.063 0-2.094.562-3.765 1.687-5.015 1.125-1.25 2.625-1.875 4.5-1.875 1.672 0 2.988.566 3.949 1.699.969 1.133 1.485 2.5 1.547 4.101Zm-2.156-.632c-.094-.907-.426-1.688-.996-2.344-.563-.664-1.375-.996-2.438-.996-1.039 0-1.894.343-2.566 1.031-.672.687-1.039 1.461-1.102 2.32l7.102-.011Z" fill="#35303F"/><g filter="url(#z)"><path d="M1073 969H637a8 8 0 0 0-8 8v34a8 8 0 0 0 8 8h436c4.42 0 8-3.58 8-8v-34a8 8 0 0 0-8-8Z" fill="#5746AF"/><path d="M1073 969H637a8 8 0 0 0-8 8v34a8 8 0 0 0 8 8h436c4.42 0 8-3.58 8-8v-34a8 8 0 0 0-8-8Z" fill="url(#A)" fill-opacity=".05"/><path d="M637 969.5h436c4.14 0 7.5 3.358 7.5 7.5v34c0 4.14-3.36 7.5-7.5 7.5H637c-4.142 0-7.5-3.36-7.5-7.5v-34a7.5 7.5 0 0 1 7.5-7.5Z" stroke="url(#B)" stroke-opacity=".3"/></g><path d="M657.176 985.102v2.402a9.325 9.325 0 0 0-2.168-1.043 7.008 7.008 0 0 0-2.18-.352c-1.117 0-2 .262-2.648.786-.649.515-.973 1.214-.973 2.097 0 .774.211 1.363.633 1.77.43.406 1.226.746 2.39 1.019l1.243.281c1.64.383 2.836.985 3.586 1.805.75.821 1.125 1.938 1.125 3.352 0 1.664-.516 2.931-1.547 3.811-1.032.87-2.532 1.31-4.5 1.31-.821 0-1.645-.09-2.473-.27-.828-.17-1.66-.43-2.496-.79v-2.514c.898.57 1.746.988 2.543 1.254.805.27 1.613.4 2.426.4 1.195 0 2.125-.27 2.789-.799.664-.539.996-1.289.996-2.25 0-.875-.231-1.543-.692-2.004-.453-.461-1.246-.816-2.378-1.066l-1.266-.293c-1.625-.367-2.805-.922-3.539-1.664-.735-.742-1.102-1.739-1.102-2.989 0-1.562.524-2.812 1.571-3.75 1.054-.945 2.453-1.417 4.195-1.417.672 0 1.379.078 2.121.234.742.148 1.523.375 2.344.68Zm15.726 9.257v1.055h-9.34v.07c-.062 1.789.278 3.075 1.02 3.856.75.78 1.805 1.17 3.164 1.17.688 0 1.406-.11 2.156-.33.75-.215 1.551-.547 2.403-.992v2.142c-.821.34-1.614.59-2.379.75-.758.17-1.492.26-2.203.26-2.039 0-3.633-.61-4.782-1.83-1.148-1.225-1.722-2.912-1.722-5.061 0-2.094.562-3.765 1.687-5.015 1.125-1.25 2.625-1.875 4.5-1.875 1.672 0 2.989.566 3.949 1.699.969 1.133 1.485 2.5 1.547 4.101Zm-2.156-.632c-.094-.907-.426-1.688-.996-2.344-.562-.664-1.375-.996-2.438-.996-1.039 0-1.894.343-2.566 1.031-.672.687-1.039 1.461-1.101 2.32l7.101-.011Zm15.809.14V1002h-2.168v-8.133c0-1.179-.207-2.047-.621-2.601-.414-.555-1.063-.832-1.946-.832-1.008 0-1.785.359-2.332 1.078-.539.711-.808 1.734-.808 3.07V1002h-2.157v-13.125h2.157v1.969c.382-.75.902-1.317 1.558-1.699.657-.391 1.434-.586 2.332-.586 1.336 0 2.332.441 2.989 1.324.664.875.996 2.203.996 3.984Zm12.199-3.316v-6.785h2.156V1002h-2.156v-1.65a3.81 3.81 0 0 1-1.442 1.49c-.593.33-1.281.5-2.062.5-1.586 0-2.836-.61-3.75-1.84-.906-1.234-1.359-2.934-1.359-5.098 0-2.132.457-3.804 1.371-5.015.914-1.219 2.16-1.828 3.738-1.828.789 0 1.484.171 2.086.515.602.336 1.074.828 1.418 1.477Zm-6.34 4.898c0 1.672.266 2.934.797 3.785.531.856 1.316 1.276 2.355 1.276s1.829-.43 2.368-1.287c.546-.86.82-2.118.82-3.774 0-1.664-.274-2.922-.82-3.773-.539-.86-1.329-1.289-2.368-1.289s-1.824.425-2.355 1.277c-.531.852-.797 2.113-.797 3.785Zm27.492 1.582v-8.133h2.156v8.133c0 1.18.208 2.047.622 2.602.421.557 1.07.837 1.945.837 1.016 0 1.793-.36 2.332-1.072.539-.718.809-1.746.809-3.082v-7.418h2.168V1002h-2.168v-1.97c-.383.76-.907 1.33-1.571 1.72-.656.4-1.426.59-2.308.59-1.344 0-2.344-.44-3-1.31-.657-.89-.985-2.218-.985-3.999Zm16.571 3.319v6.64h-2.168v-18.115h2.168v1.676c.359-.649.835-1.141 1.429-1.477.602-.344 1.293-.515 2.074-.515 1.586 0 2.829.613 3.727 1.839.906 1.227 1.359 2.926 1.359 5.098 0 2.133-.453 3.809-1.359 5.024-.906 1.21-2.148 1.82-3.727 1.82-.796 0-1.496-.17-2.097-.5a3.673 3.673 0 0 1-1.406-1.49Zm6.328-4.901c0-1.672-.266-2.933-.797-3.785-.524-.852-1.305-1.277-2.344-1.277-1.047 0-1.84.429-2.379 1.289-.539.851-.808 2.109-.808 3.773 0 1.656.269 2.914.808 3.774.539.857 1.332 1.287 2.379 1.287 1.039 0 1.82-.42 2.344-1.276.531-.851.797-2.113.797-3.785Zm13.793-4.898v-6.785h2.156V1002h-2.156v-1.65c-.36.65-.84 1.14-1.442 1.49-.594.33-1.281.5-2.062.5-1.586 0-2.836-.61-3.75-1.84-.906-1.234-1.36-2.934-1.36-5.098 0-2.132.457-3.804 1.371-5.015.915-1.219 2.161-1.828 3.739-1.828.789 0 1.484.171 2.086.515a3.55 3.55 0 0 1 1.418 1.477Zm-6.34 4.898c0 1.672.265 2.934.797 3.785.531.856 1.316 1.276 2.355 1.276s1.828-.43 2.367-1.287c.547-.86.821-2.118.821-3.774 0-1.664-.274-2.922-.821-3.773-.539-.86-1.328-1.289-2.367-1.289s-1.824.425-2.355 1.277c-.532.852-.797 2.113-.797 3.785Zm18.972-.047h-.714c-1.258 0-2.207.223-2.848.668-.633.438-.949 1.094-.949 1.969 0 .789.238 1.402.715 1.84.476.441 1.136.651 1.98.651 1.188 0 2.121-.41 2.801-1.225.68-.828 1.023-1.969 1.031-3.422v-.481h-2.016Zm4.184-.89V1002h-2.168v-1.95c-.461.79-1.043 1.36-1.746 1.74-.695.37-1.543.55-2.543.55-1.336 0-2.402-.37-3.199-1.12-.797-.76-1.196-1.775-1.196-3.04 0-1.461.489-2.571 1.465-3.328.985-.758 2.426-1.137 4.325-1.137h2.894v-.34c-.008-1.047-.273-1.805-.797-2.273-.523-.477-1.359-.715-2.508-.715a8.19 8.19 0 0 0-2.226.316c-.75.211-1.481.52-2.192.926v-2.156a14.533 14.533 0 0 1 2.286-.68 10.25 10.25 0 0 1 2.132-.234c1.086 0 2.012.16 2.778.48.773.32 1.398.801 1.875 1.441.297.391.508.875.633 1.454.125.57.187 1.429.187 2.578Zm9.246-9.364v3.727h4.899v1.676h-4.899v7.125c0 .969.184 1.644.551 2.027.367.387 1.008.577 1.922.577h2.426v1.72h-2.637c-1.617 0-2.758-.32-3.422-.97-.664-.65-.996-1.768-.996-3.354v-7.125H777v-1.676h3.504v-3.727h2.156Zm20.391 9.211v1.055h-9.34v.07c-.063 1.789.277 3.075 1.019 3.856.75.78 1.805 1.17 3.165 1.17.687 0 1.406-.11 2.156-.33.75-.215 1.551-.547 2.402-.992v2.142c-.82.34-1.613.59-2.379.75-.758.17-1.492.26-2.203.26-2.039 0-3.633-.61-4.781-1.83-1.149-1.225-1.723-2.912-1.723-5.061 0-2.094.563-3.765 1.688-5.015 1.125-1.25 2.625-1.875 4.5-1.875 1.672 0 2.988.566 3.949 1.699.969 1.133 1.484 2.5 1.547 4.101Zm-2.156-.632c-.094-.907-.426-1.688-.997-2.344-.562-.664-1.375-.996-2.437-.996-1.039 0-1.895.343-2.566 1.031-.672.687-1.04 1.461-1.102 2.32l7.102-.011Zm14.894-4.395v2.109a8.193 8.193 0 0 0-1.863-.808 6.87 6.87 0 0 0-1.91-.27c-.977 0-1.707.16-2.192.481-.476.312-.715.793-.715 1.441 0 .586.18 1.024.539 1.313.36.289 1.254.57 2.684.843l.867.164c1.071.204 1.879.61 2.426 1.219.555.61.832 1.403.832 2.379 0 1.297-.461 2.317-1.383 3.047-.922.73-2.203 1.09-3.844 1.09-.648 0-1.328-.07-2.039-.21-.711-.13-1.48-.34-2.308-.61v-2.227a12.75 12.75 0 0 0 2.308.937c.735.2 1.43.3 2.086.3.953 0 1.692-.19 2.215-.569.524-.391.785-.934.785-1.629 0-1-.957-1.691-2.871-2.074l-.094-.024-.808-.164c-1.242-.242-2.149-.648-2.719-1.218-.57-.579-.855-1.364-.855-2.356 0-1.258.425-2.226 1.277-2.906.852-.688 2.066-1.031 3.645-1.031.703 0 1.378.066 2.027.199a9.92 9.92 0 0 1 1.91.574Zm29.977-5.566v1.793h-2.45c-.773 0-1.312.16-1.617.48-.297.313-.445.871-.445 1.676v1.16h4.512v1.676h-4.512V1002h-2.156v-11.449h-3.504v-1.676h3.504v-.914c0-1.438.328-2.496.984-3.176.664-.68 1.695-1.019 3.094-1.019h2.59Zm15.539 7.816a4.885 4.885 0 0 0-1.407-.785c-.476-.164-1-.246-1.57-.246-1.344 0-2.371.422-3.082 1.265-.711.844-1.066 2.063-1.066 3.657V1002h-2.168v-13.125h2.168v2.566c.359-.929.91-1.64 1.652-2.132.75-.5 1.637-.75 2.66-.75.531 0 1.028.066 1.488.199.461.133.903.34 1.325.621v2.203Zm8.144-1.195c-1.094 0-1.922.425-2.484 1.277-.563.852-.844 2.113-.844 3.785 0 1.664.281 2.926.844 3.785.562.856 1.39 1.276 2.484 1.276 1.102 0 1.934-.42 2.496-1.276.563-.859.844-2.121.844-3.785 0-1.672-.281-2.933-.844-3.785-.562-.852-1.394-1.277-2.496-1.277Zm0-1.828c1.821 0 3.211.589 4.172 1.769.969 1.18 1.453 2.887 1.453 5.121 0 2.242-.48 3.953-1.441 5.131-.961 1.17-2.356 1.76-4.184 1.76-1.82 0-3.211-.59-4.172-1.76-.961-1.178-1.441-2.889-1.441-5.131 0-2.234.48-3.941 1.441-5.121.961-1.18 2.352-1.769 4.172-1.769Zm15.164 1.652c.266-.563.602-.977 1.008-1.242.414-.274.91-.41 1.488-.41 1.055 0 1.797.41 2.227 1.23.437.813.656 2.348.656 4.606V1002h-1.969v-7.512c0-1.851-.105-3-.316-3.445-.203-.453-.578-.68-1.125-.68-.625 0-1.055.242-1.289.727-.227.476-.34 1.609-.34 3.398V1002h-1.969v-7.512c0-1.875-.113-3.031-.339-3.468-.219-.438-.618-.657-1.196-.657-.57 0-.969.242-1.195.727-.219.476-.328 1.609-.328 3.398V1002h-1.957v-13.125h1.957V990c.258-.469.578-.824.961-1.066.39-.25.832-.375 1.324-.375.594 0 1.086.136 1.477.41.398.273.707.687.925 1.242Zm28.219.176c-1.094 0-1.922.425-2.484 1.277-.563.852-.844 2.113-.844 3.785 0 1.664.281 2.926.844 3.785.562.856 1.39 1.276 2.484 1.276 1.102 0 1.934-.42 2.496-1.276.563-.859.844-2.121.844-3.785 0-1.672-.281-2.933-.844-3.785-.562-.852-1.394-1.277-2.496-1.277Zm0-1.828c1.82 0 3.211.589 4.172 1.769.969 1.18 1.453 2.887 1.453 5.121 0 2.242-.48 3.953-1.441 5.131-.961 1.17-2.356 1.76-4.184 1.76-1.82 0-3.211-.59-4.172-1.76-.961-1.178-1.441-2.889-1.441-5.131 0-2.234.48-3.941 1.441-5.121.961-1.18 2.352-1.769 4.172-1.769Zm14.438-3.411v3.727h4.898v1.676h-4.898v7.125c0 .969.183 1.644.55 2.027.368.387 1.008.577 1.922.577h2.426v1.72h-2.637c-1.617 0-2.758-.32-3.422-.97-.664-.65-.996-1.768-.996-3.354v-7.125h-3.504v-1.676h3.504v-3.727h2.157Zm19.582 8.719V1002h-2.168v-8.133c0-1.179-.207-2.047-.622-2.601-.414-.555-1.062-.832-1.945-.832-1.008 0-1.785.359-2.332 1.078-.539.711-.808 1.734-.808 3.07V1002h-2.157v-18.234h2.157v7.078c.382-.75.902-1.317 1.558-1.699.656-.391 1.434-.586 2.332-.586 1.336 0 2.332.441 2.988 1.324.665.875.997 2.203.997 3.984Zm15.269.492v1.055h-9.34v.07c-.062 1.789.278 3.075 1.02 3.856.75.78 1.804 1.17 3.164 1.17.687 0 1.406-.11 2.156-.33.75-.215 1.551-.547 2.402-.992v2.142c-.82.34-1.613.59-2.378.75-.758.17-1.493.26-2.204.26-2.039 0-3.632-.61-4.781-1.83-1.148-1.225-1.722-2.912-1.722-5.061 0-2.094.562-3.765 1.687-5.015 1.125-1.25 2.625-1.875 4.5-1.875 1.672 0 2.988.566 3.949 1.699.969 1.133 1.485 2.5 1.547 4.101Zm-2.156-.632c-.094-.907-.426-1.688-.996-2.344-.563-.664-1.375-.996-2.438-.996-1.039 0-1.894.343-2.566 1.031-.672.687-1.039 1.461-1.102 2.32l7.102-.011Zm17.027-2.145a4.894 4.894 0 0 0-1.406-.785 4.8 4.8 0 0 0-1.57-.246c-1.344 0-2.371.422-3.082 1.265-.711.844-1.067 2.063-1.067 3.657V1002h-2.168v-13.125h2.168v2.566c.36-.929.91-1.64 1.653-2.132.75-.5 1.636-.75 2.66-.75.531 0 1.027.066 1.488.199.461.133.902.34 1.324.621v2.203Zm17.672 5.449v-8.133h2.156v8.133c0 1.18.207 2.047.621 2.602.422.557 1.071.837 1.946.837 1.013 0 1.793-.36 2.333-1.072.54-.718.81-1.746.81-3.082v-7.418h2.17V1002h-2.17v-1.97c-.38.76-.91 1.33-1.57 1.72-.66.4-1.429.59-2.312.59-1.343 0-2.343-.44-3-1.31-.656-.89-.984-2.218-.984-3.999Zm23.576-7.699v2.109a8.135 8.135 0 0 0-1.86-.808c-.63-.18-1.26-.27-1.91-.27-.98 0-1.71.16-2.19.481-.48.312-.72.793-.72 1.441 0 .586.18 1.024.54 1.313.36.289 1.26.57 2.69.843l.86.164c1.07.204 1.88.61 2.43 1.219.55.61.83 1.403.83 2.379 0 1.297-.46 2.317-1.38 3.047-.92.73-2.21 1.09-3.85 1.09-.64 0-1.32-.07-2.03-.21-.72-.13-1.49-.34-2.31-.61v-2.227c.8.414 1.57.727 2.31.937.73.2 1.42.3 2.08.3.95 0 1.69-.19 2.22-.569.52-.391.78-.934.78-1.629 0-1-.96-1.691-2.87-2.074l-.09-.024-.81-.164c-1.24-.242-2.15-.648-2.72-1.218-.57-.579-.86-1.364-.86-2.356 0-1.258.43-2.226 1.28-2.906.85-.688 2.07-1.031 3.65-1.031.7 0 1.37.066 2.02.199.65.125 1.29.316 1.91.574Zm16.19 5.027v1.055h-9.34v.07c-.07 1.789.27 3.075 1.02 3.856.75.78 1.8 1.17 3.16 1.17.69 0 1.41-.11 2.16-.33.75-.215 1.55-.547 2.4-.992v2.142c-.82.34-1.61.59-2.38.75-.76.17-1.49.26-2.2.26-2.04 0-3.64-.61-4.78-1.83-1.15-1.225-1.73-2.912-1.73-5.061 0-2.094.57-3.765 1.69-5.015 1.13-1.25 2.63-1.875 4.5-1.875 1.67 0 2.99.566 3.95 1.699.97 1.133 1.48 2.5 1.55 4.101Zm-2.16-.632a4.11 4.11 0 0 0-1-2.344c-.56-.664-1.37-.996-2.43-.996-1.04 0-1.9.343-2.57 1.031-.67.687-1.04 1.461-1.1 2.32l7.1-.011Zm17.03-2.145a4.848 4.848 0 0 0-1.41-.785c-.48-.164-1-.246-1.57-.246-1.34 0-2.37.422-3.08 1.265-.71.844-1.07 2.063-1.07 3.657V1002H1040v-13.125h2.17v2.566c.36-.929.91-1.64 1.65-2.132.75-.5 1.64-.75 2.66-.75.54 0 1.03.066 1.49.199.46.133.91.34 1.33.621v2.203Zm12.33-2.25v2.109a8.203 8.203 0 0 0-1.87-.808c-.62-.18-1.26-.27-1.91-.27-.97 0-1.7.16-2.19.481-.48.312-.71.793-.71 1.441 0 .586.18 1.024.53 1.313.36.289 1.26.57 2.69.843l.87.164c1.07.204 1.87.61 2.42 1.219.56.61.83 1.403.83 2.379 0 1.297-.46 2.317-1.38 3.047-.92.73-2.2 1.09-3.84 1.09-.65 0-1.33-.07-2.04-.21-.71-.13-1.48-.34-2.31-.61v-2.227c.8.414 1.57.727 2.31.937.73.2 1.43.3 2.08.3.96 0 1.7-.19 2.22-.569.52-.391.78-.934.78-1.629 0-1-.95-1.691-2.87-2.074l-.09-.024-.81-.164c-1.24-.242-2.15-.648-2.72-1.218-.57-.579-.85-1.364-.85-2.356 0-1.258.42-2.226 1.27-2.906.86-.688 2.07-1.031 3.65-1.031.7 0 1.38.066 2.03.199.64.125 1.28.316 1.91.574Z" fill="#FDFCFD"/><path d="M835.707 380.707a.999.999 0 0 0 0-1.414l-6.364-6.364a.999.999 0 1 0-1.414 1.414l5.657 5.657-5.657 5.657a.999.999 0 1 0 1.414 1.414l6.364-6.364ZM279 381h556v-2H279v2Z" fill="#6C6C6C"/><path d="M1431.71 598.707a1 1 0 0 0 0-1.414l-6.37-6.364a.994.994 0 0 0-1.41 0 1 1 0 0 0 0 1.414l5.66 5.657-5.66 5.657a1 1 0 0 0 0 1.414.994.994 0 0 0 1.41 0l6.37-6.364ZM875 599h556v-2H875v2ZM278.293 818.293a.999.999 0 0 0 0 1.414l6.364 6.364a.999.999 0 1 0 1.414-1.414L280.414 819l5.657-5.657a.999.999 0 1 0-1.414-1.414l-6.364 6.364ZM279 820h556v-2H279v2Z" fill="#1A1523"/><path d="M874.293 708.293a.999.999 0 0 0 0 1.414l6.364 6.364a.999.999 0 1 0 1.414-1.414L876.414 709l5.657-5.657a.999.999 0 1 0-1.414-1.414l-6.364 6.364ZM875 710h556v-2H875v2ZM278.293 1039.29a1.006 1.006 0 0 0 0 1.42l6.364 6.36a1 1 0 0 0 1.414 0 .994.994 0 0 0 0-1.41l-5.657-5.66 5.657-5.66a.994.994 0 0 0 0-1.41 1 1 0 0 0-1.414 0l-6.364 6.36ZM279 1041h1152v-2H279v2Z" fill="#5746AF"/><path d="M1431.71 929.707a1 1 0 0 0 0-1.414l-6.37-6.364a.994.994 0 0 0-1.41 0 1 1 0 0 0 0 1.414l5.66 5.657-5.66 5.657a1 1 0 0 0 0 1.414.994.994 0 0 0 1.41 0l6.37-6.364ZM279 930h1152v-2H279v2Z" fill="#6C6C6C"/><path d="M186.885 119.636h3.49l5.32 9.257h.219l5.319-9.257h3.49l-7.387 12.37V140h-3.063v-7.994l-7.388-12.37Zm24.698 20.672c-1.432 0-2.681-.328-3.748-.984-1.068-.656-1.896-1.574-2.486-2.754-.59-1.18-.885-2.559-.885-4.137 0-1.584.295-2.969.885-4.156.59-1.187 1.418-2.108 2.486-2.764 1.067-.656 2.316-.985 3.748-.985 1.432 0 2.682.329 3.749.985 1.067.656 1.896 1.577 2.486 2.764.59 1.187.885 2.572.885 4.156 0 1.578-.295 2.957-.885 4.137-.59 1.18-1.419 2.098-2.486 2.754-1.067.656-2.317.984-3.749.984Zm.01-2.496c.928 0 1.697-.245 2.307-.735.61-.491 1.061-1.144 1.352-1.959.299-.815.448-1.714.448-2.695 0-.974-.149-1.869-.448-2.684-.291-.822-.742-1.482-1.352-1.979-.61-.497-1.379-.746-2.307-.746-.934 0-1.71.249-2.326.746-.61.497-1.064 1.157-1.363 1.979-.291.815-.437 1.71-.437 2.684 0 .981.146 1.88.437 2.695.299.815.753 1.468 1.363 1.959.616.49 1.392.735 2.326.735Zm20.383-4.146v-8.939h2.983V140h-2.923v-2.645h-.16c-.351.815-.914 1.495-1.69 2.038-.769.537-1.727.806-2.873.806-.982 0-1.85-.216-2.606-.646-.749-.438-1.339-1.084-1.769-1.939-.425-.855-.637-1.913-.637-3.172v-9.715h2.973v9.357c0 1.041.289 1.869.865 2.486.577.616 1.326.924 2.247.924.557 0 1.111-.139 1.661-.417a3.507 3.507 0 0 0 1.382-1.263c.371-.564.554-1.279.547-2.148Zm7.258 6.334v-15.273h2.873v2.426h.159a3.695 3.695 0 0 1 1.472-1.939c.702-.477 1.504-.715 2.406-.715.418 0 .792.049 1.124.149.331.099.623.235.875.407l-.955 2.486a2.97 2.97 0 0 0-.606-.209 3.078 3.078 0 0 0-.776-.089c-.689 0-1.306.149-1.849.447a3.369 3.369 0 0 0-1.283 1.213c-.312.517-.467 1.107-.467 1.77V140h-2.973Zm25.504.308c-1.478 0-2.75-.335-3.818-1.004-1.06-.676-1.876-1.608-2.446-2.794-.57-1.187-.855-2.546-.855-4.077 0-1.551.292-2.92.875-4.106.583-1.193 1.405-2.125 2.466-2.794 1.061-.67 2.31-1.005 3.749-1.005 1.16 0 2.194.216 3.102.647.908.424 1.641 1.021 2.197 1.789.564.769.899 1.668 1.005 2.695h-2.894c-.159-.716-.524-1.332-1.094-1.849-.563-.517-1.319-.776-2.267-.776-.828 0-1.554.219-2.177.656-.617.431-1.097 1.048-1.442 1.85-.345.795-.517 1.737-.517 2.824 0 1.113.169 2.074.507 2.883.338.809.815 1.435 1.432 1.879.623.445 1.355.667 2.197.667.564 0 1.074-.103 1.532-.309a3.127 3.127 0 0 0 1.163-.904c.318-.392.54-.862.666-1.412h2.894a5.618 5.618 0 0 1-.965 2.644c-.537.776-1.256 1.386-2.158 1.83-.894.444-1.945.666-3.152.666Zm9.734-20.672h2.973v16.188c0 .656.083 1.12.249 1.392.172.272.497.401.974.388.258-.007.451-.024.577-.05.132-.027.252-.056.358-.09l.537 2.377c-.206.06-.468.116-.786.169-.312.06-.666.093-1.064.099-1.286.02-2.244-.285-2.873-.914-.63-.63-.945-1.548-.945-2.755v-16.804ZM282.381 140v-15.273h2.973V140h-2.973Zm1.501-17.629c-.517 0-.961-.173-1.332-.517-.365-.352-.547-.769-.547-1.253 0-.491.182-.908.547-1.253a1.87 1.87 0 0 1 1.332-.527c.517 0 .958.176 1.323.527.371.345.557.762.557 1.253 0 .484-.186.901-.557 1.253a1.86 1.86 0 0 1-1.323.517Zm12.334 17.937c-1.505 0-2.801-.321-3.888-.964-1.08-.65-1.916-1.561-2.506-2.735-.583-1.18-.875-2.562-.875-4.146 0-1.564.292-2.943.875-4.136.59-1.193 1.412-2.125 2.466-2.794 1.061-.67 2.301-1.005 3.719-1.005.862 0 1.697.143 2.506.428a6.07 6.07 0 0 1 2.177 1.342c.643.61 1.15 1.402 1.522 2.377.371.968.556 2.144.556 3.53v1.054h-12.14v-2.228h9.227c0-.782-.159-1.475-.477-2.078a3.611 3.611 0 0 0-1.343-1.442c-.57-.351-1.239-.527-2.008-.527-.835 0-1.564.206-2.188.617a4.138 4.138 0 0 0-1.431 1.591 4.583 4.583 0 0 0-.498 2.118v1.74c0 1.021.179 1.889.537 2.605.365.716.872 1.263 1.522 1.64.649.372 1.408.557 2.277.557.563 0 1.077-.079 1.541-.238a3.33 3.33 0 0 0 1.203-.736c.338-.325.597-.726.776-1.203l2.814.507a5.098 5.098 0 0 1-1.214 2.177c-.576.617-1.302 1.097-2.177 1.442-.868.338-1.859.507-2.973.507Zm13.104-9.376V140h-2.973v-15.273h2.854v2.486h.189a4.364 4.364 0 0 1 1.65-1.949c.756-.49 1.707-.736 2.854-.736 1.041 0 1.952.219 2.734.657.783.431 1.389 1.074 1.82 1.929.431.855.646 1.912.646 3.172V140h-2.973v-9.357c0-1.107-.288-1.972-.865-2.595-.577-.629-1.369-.944-2.376-.944-.69 0-1.303.149-1.84.447-.53.298-.951.736-1.263 1.313-.304.57-.457 1.259-.457 2.068Zm21.171-6.205v2.387h-8.343v-2.387h8.343Zm-6.105-3.659h2.973v14.448c0 .576.086 1.011.258 1.302.172.285.395.481.666.587.279.099.58.149.905.149.239 0 .448-.017.627-.05s.318-.059.417-.079l.537 2.456a5.086 5.086 0 0 1-.736.199 5.917 5.917 0 0 1-1.193.119 5.231 5.231 0 0 1-2.187-.418 3.75 3.75 0 0 1-1.641-1.352c-.418-.61-.626-1.375-.626-2.297v-15.064ZM777.088 119.636h3.491l5.319 9.257h.219l5.319-9.257h3.491l-7.388 12.37V140h-3.063v-7.994l-7.388-12.37Zm24.698 20.672c-1.431 0-2.681-.328-3.748-.984-1.067-.656-1.896-1.574-2.486-2.754-.59-1.18-.885-2.559-.885-4.137 0-1.584.295-2.969.885-4.156.59-1.187 1.419-2.108 2.486-2.764 1.067-.656 2.317-.985 3.748-.985 1.432 0 2.682.329 3.749.985 1.067.656 1.896 1.577 2.486 2.764.59 1.187.885 2.572.885 4.156 0 1.578-.295 2.957-.885 4.137-.59 1.18-1.419 2.098-2.486 2.754-1.067.656-2.317.984-3.749.984Zm.01-2.496c.928 0 1.697-.245 2.307-.735.61-.491 1.061-1.144 1.352-1.959.299-.815.448-1.714.448-2.695 0-.974-.149-1.869-.448-2.684-.291-.822-.742-1.482-1.352-1.979-.61-.497-1.379-.746-2.307-.746-.934 0-1.71.249-2.326.746-.61.497-1.064 1.157-1.363 1.979-.291.815-.437 1.71-.437 2.684 0 .981.146 1.88.437 2.695.299.815.753 1.468 1.363 1.959.616.49 1.392.735 2.326.735Zm20.383-4.146v-8.939h2.983V140h-2.923v-2.645h-.159c-.352.815-.915 1.495-1.691 2.038-.769.537-1.727.806-2.873.806-.981 0-1.85-.216-2.605-.646-.75-.438-1.339-1.084-1.77-1.939-.425-.855-.637-1.913-.637-3.172v-9.715h2.973v9.357c0 1.041.289 1.869.865 2.486.577.616 1.326.924 2.248.924a3.65 3.65 0 0 0 1.66-.417 3.5 3.5 0 0 0 1.382-1.263c.371-.564.554-1.279.547-2.148Zm7.258 6.334v-15.273h2.873v2.426h.159a3.695 3.695 0 0 1 1.472-1.939c.703-.477 1.505-.715 2.406-.715.418 0 .792.049 1.124.149.331.099.623.235.875.407l-.955 2.486a2.97 2.97 0 0 0-.606-.209 3.078 3.078 0 0 0-.776-.089c-.689 0-1.306.149-1.849.447a3.369 3.369 0 0 0-1.283 1.213c-.312.517-.467 1.107-.467 1.77V140h-2.973Zm30.516-11.544-2.695.477a3.163 3.163 0 0 0-.537-.984 2.647 2.647 0 0 0-.974-.766c-.411-.199-.925-.298-1.541-.298-.842 0-1.545.189-2.108.567-.564.371-.845.852-.845 1.441 0 .511.189.922.566 1.233.378.312.988.567 1.83.766l2.426.557c1.405.325 2.453.825 3.142 1.501.69.676 1.034 1.555 1.034 2.635 0 .915-.265 1.73-.795 2.446-.524.71-1.256 1.266-2.198 1.671-.934.404-2.018.606-3.251.606-1.71 0-3.106-.364-4.186-1.094-1.081-.735-1.744-1.779-1.989-3.132l2.874-.437c.179.749.547 1.316 1.103 1.7.557.378 1.283.567 2.178.567.974 0 1.753-.202 2.337-.607.583-.411.875-.911.875-1.501a1.56 1.56 0 0 0-.537-1.203c-.352-.325-.892-.57-1.621-.736l-2.585-.567c-1.425-.325-2.479-.842-3.162-1.551-.676-.709-1.014-1.607-1.014-2.694 0-.902.252-1.691.755-2.367.504-.676 1.2-1.203 2.088-1.581.889-.384 1.906-.577 3.053-.577 1.651 0 2.95.358 3.898 1.074.948.71 1.574 1.661 1.879 2.854Zm10.429 11.852c-1.504 0-2.8-.321-3.887-.964-1.081-.65-1.916-1.561-2.506-2.735-.583-1.18-.875-2.562-.875-4.146 0-1.564.292-2.943.875-4.136.59-1.193 1.412-2.125 2.466-2.794 1.06-.67 2.3-1.005 3.719-1.005.861 0 1.697.143 2.505.428a6.065 6.065 0 0 1 2.178 1.342c.643.61 1.15 1.402 1.521 2.377.371.968.557 2.144.557 3.53v1.054h-12.141v-2.228h9.228c0-.782-.159-1.475-.478-2.078a3.609 3.609 0 0 0-1.342-1.442c-.57-.351-1.24-.527-2.008-.527-.836 0-1.565.206-2.188.617a4.14 4.14 0 0 0-1.432 1.591 4.594 4.594 0 0 0-.497 2.118v1.74c0 1.021.179 1.889.537 2.605.365.716.872 1.263 1.521 1.64.65.372 1.409.557 2.277.557.564 0 1.077-.079 1.541-.238a3.333 3.333 0 0 0 1.204-.736 3.2 3.2 0 0 0 .775-1.203l2.814.507a5.096 5.096 0 0 1-1.213 2.177c-.577.617-1.303 1.097-2.178 1.442-.868.338-1.859.507-2.973.507Zm10.132-.308v-15.273h2.873v2.426h.159a3.695 3.695 0 0 1 1.472-1.939c.703-.477 1.505-.715 2.406-.715.418 0 .792.049 1.124.149.331.099.623.235.875.407l-.955 2.486a2.97 2.97 0 0 0-.606-.209 3.078 3.078 0 0 0-.776-.089c-.689 0-1.306.149-1.849.447a3.369 3.369 0 0 0-1.283 1.213c-.312.517-.467 1.107-.467 1.77V140h-2.973Zm24.693-15.273L899.668 140h-3.182l-5.548-15.273h3.192l3.868 11.753h.159l3.858-11.753h3.192Zm9.137 15.581c-1.505 0-2.801-.321-3.888-.964-1.081-.65-1.916-1.561-2.506-2.735-.583-1.18-.875-2.562-.875-4.146 0-1.564.292-2.943.875-4.136.59-1.193 1.412-2.125 2.466-2.794 1.061-.67 2.3-1.005 3.719-1.005.861 0 1.697.143 2.505.428a6.065 6.065 0 0 1 2.178 1.342c.643.61 1.15 1.402 1.521 2.377.371.968.557 2.144.557 3.53v1.054h-12.141v-2.228h9.228c0-.782-.159-1.475-.478-2.078a3.609 3.609 0 0 0-1.342-1.442c-.57-.351-1.239-.527-2.008-.527-.836 0-1.565.206-2.188.617a4.14 4.14 0 0 0-1.432 1.591 4.594 4.594 0 0 0-.497 2.118v1.74c0 1.021.179 1.889.537 2.605.365.716.872 1.263 1.521 1.64.65.372 1.409.557 2.277.557.564 0 1.078-.079 1.542-.238a3.33 3.33 0 0 0 1.203-.736 3.2 3.2 0 0 0 .775-1.203l2.814.507a5.096 5.096 0 0 1-1.213 2.177c-.577.617-1.302 1.097-2.177 1.442-.869.338-1.86.507-2.973.507Zm10.131-.308v-15.273h2.873v2.426h.159a3.695 3.695 0 0 1 1.472-1.939c.703-.477 1.505-.715 2.406-.715.418 0 .792.049 1.124.149.331.099.623.235.875.407l-.955 2.486a2.97 2.97 0 0 0-.606-.209 3.078 3.078 0 0 0-.776-.089c-.689 0-1.306.149-1.849.447a3.369 3.369 0 0 0-1.283 1.213c-.311.517-.467 1.107-.467 1.77V140h-2.973Z" fill="#FDFCFD"/><g clip-path="url(#C)" fill-rule="evenodd" clip-rule="evenodd" fill="#FDFCFD"><path d="M1399.57 116.753h-4.18v24.774h4.18v-24.774Zm7.76 7.082h-4.18v17.692h4.18v-17.692Zm0-7.273h-4.18v4.509h4.18v-4.509Zm6.13 7.273h-4.49l6.33 17.692h4.66l6.32-17.692h-4.42l-2.64 8.38c-.07.218-.32 1.071-.75 2.557l-.84 2.851c-.5-1.809-1.03-3.612-1.57-5.408l-2.6-8.38Zm29.95 5.53c-.35-1.187-.86-2.195-1.53-3.025-.74-.931-1.69-1.652-2.85-2.159-1.14-.518-2.4-.776-3.8-.776-2.65 0-4.76.828-6.35 2.487-.8.856-1.4 1.868-1.78 2.972-.4 1.14-.59 2.401-.59 3.783 0 2.96.79 5.247 2.37 6.859 1.6 1.635 3.73 2.453 6.39 2.453 2.28 0 4.13-.512 5.54-1.537 1.42-1.026 2.36-2.545 2.82-4.561l-4.08-.311c-.19 1.094-.64 1.912-1.34 2.453-.71.53-1.7.795-2.98.795-2.92 0-4.42-1.647-4.49-4.941h13.17l.01-.588c0-1.417-.17-2.718-.51-3.904Zm-11.74-1.244c.74-1.037 1.93-1.555 3.56-1.555.8 0 1.47.109 2.01.328.54.219 1.01.57 1.4 1.054.3.375.54.802.69 1.261.17.478.28.978.31 1.486h-8.86c.1-1.026.4-1.884.89-2.574Zm28.5-3.594c-1.19-.772-2.56-1.157-4.12-1.157-1.13 0-2.16.229-3.09.691a5.894 5.894 0 0 0-2.28 1.969v-9.277h-4.18v24.774h4.18v-2.435a5.814 5.814 0 0 0 2.18 2.089c.93.519 1.96.778 3.09.778 1.57 0 2.95-.374 4.16-1.122 1.21-.749 2.15-1.821 2.82-3.214.68-1.406 1.02-3.052 1.02-4.941 0-1.843-.34-3.467-1-4.872-.66-1.417-1.59-2.511-2.78-3.283Zm-1.78 12.837c-.67 1.013-1.81 1.519-3.43 1.519-1.45 0-2.54-.524-3.28-1.571-.74-1.048-1.1-2.58-1.1-4.596 0-1.947.32-3.467.98-4.561.67-1.106 1.79-1.658 3.37-1.658 1.61 0 2.76.507 3.44 1.519.68 1.002 1.02 2.558 1.02 4.666 0 2.107-.34 3.668-1 4.682Zm12.35-20.611h-4.18v24.774h4.18v-24.774Zm6.77 24.1c1.36.738 2.97 1.106 4.84 1.106 1.8 0 3.38-.386 4.73-1.156a7.942 7.942 0 0 0 3.17-3.249c.74-1.405 1.12-3.03 1.12-4.872 0-1.774-.37-3.364-1.11-4.768a8.064 8.064 0 0 0-3.14-3.318c-1.36-.794-2.95-1.192-4.77-1.192-1.83 0-3.43.398-4.8 1.192a8.131 8.131 0 0 0-3.15 3.3c-.72 1.393-1.09 2.989-1.09 4.786 0 1.912.36 3.564 1.08 4.958a7.556 7.556 0 0 0 3.12 3.213Zm8.31-3.472c-.7.991-1.86 1.486-3.47 1.486-1.09 0-1.97-.219-2.64-.657-.67-.449-1.16-1.123-1.45-2.021-.3-.91-.45-2.08-.45-3.508 0-2.142.35-3.708 1.05-4.699.71-.99 1.88-1.485 3.49-1.485 1.6 0 2.75.495 3.46 1.485.71.991 1.07 2.557 1.07 4.7 0 2.142-.35 3.708-1.06 4.699Zm11.25 3.472c1.35.738 2.96 1.106 4.82 1.106 1.45 0 2.75-.253 3.89-.759 1.14-.507 2.07-1.215 2.78-2.125a6.8 6.8 0 0 0 1.36-3.18l-4.02-.414c-.28 1.105-.74 1.929-1.38 2.47-.65.542-1.52.812-2.63.812-1.13 0-2.01-.23-2.66-.692-.64-.472-1.09-1.145-1.35-2.021-.25-.887-.38-2.009-.38-3.368 0-1.336.13-2.442.38-3.317.26-.887.7-1.567 1.33-2.04.65-.483 1.54-.725 2.68-.725 1.22 0 2.13.34 2.71 1.02.6.667 1.03 1.583 1.28 2.747l3.96-.709c-.38-1.889-1.24-3.404-2.58-4.543-1.32-1.141-3.11-1.71-5.37-1.71-1.84 0-3.44.391-4.78 1.174a7.803 7.803 0 0 0-3.1 3.283c-.71 1.394-1.07 3-1.07 4.82 0 1.923.35 3.582 1.06 4.976.71 1.393 1.74 2.459 3.07 3.195Zm19.27-5.891 1.95-1.866 5.18 8.431h4.82l-7.17-11.11 6.95-6.582h-5.43l-6.3 6.463v-13.545h-4.19v24.774h4.19v-6.565Zm15.61 6.358c1.18.426 2.49.639 3.93.639 2.2 0 4.01-.438 5.44-1.312 1.44-.876 2.16-2.305 2.16-4.286 0-1.29-.34-2.303-1-3.04a5.69 5.69 0 0 0-2.39-1.607c-.91-.334-2.15-.673-3.71-1.02-.91-.195-1.63-.379-2.16-.552-.53-.173-.96-.398-1.28-.674a1.375 1.375 0 0 1-.47-1.071c0-.645.29-1.134.87-1.469.57-.334 1.29-.501 2.14-.501 1.13 0 2.01.271 2.64.812.65.542.99 1.354 1.04 2.437l3.87-.64c-.19-1.981-.96-3.415-2.33-4.302-1.36-.886-3.1-1.331-5.22-1.331-1.25 0-2.4.19-3.46.571-1.04.368-1.89.95-2.54 1.746-.64.794-.96 1.796-.96 3.005 0 1.118.27 2.021.83 2.712.56.699 1.28 1.25 2.1 1.607.86.369 1.93.72 3.22 1.054l1.07.259c.71.169 1.42.365 2.12.587.49.151.88.358 1.2.622.31.265.46.611.46 1.038 0 .748-.31 1.324-.93 1.727-.61.404-1.5.605-2.68.605-1.2 0-2.15-.3-2.87-.899-.71-.599-1.07-1.462-1.09-2.591l-3.93.449c.04 1.359.42 2.494 1.12 3.404.71.91 1.65 1.583 2.81 2.021ZM1376.93 125.289H1357l5.91 5.906v8.121l14.02-14.027ZM1366.6 141.531h19.93l-5.91-5.906v-8.121l-14.02 14.027Z"/></g><g filter="url(#D)"><rect x="984" y="364" width="336" height="40" rx="8" fill="#FDFCFD" shape-rendering="crispEdges"/><rect x="984" y="364" width="336" height="40" rx="8" fill="url(#E)" fill-opacity=".05" shape-rendering="crispEdges"/><path d="M1033.51 393.376v-12.379h1.71v1.46h.15c.1-.188.25-.405.44-.651s.45-.461.79-.645c.34-.187.79-.281 1.35-.281.73 0 1.38.184 1.95.551.57.367 1.02.897 1.34 1.588.33.692.49 1.524.49 2.497 0 .973-.16 1.807-.48 2.503-.33.692-.77 1.225-1.34 1.6-.57.371-1.21.557-1.94.557-.55 0-.99-.092-1.34-.276-.35-.183-.62-.398-.81-.644-.2-.247-.35-.465-.45-.657h-.11v4.777h-1.75Zm1.72-7.877c0 .633.09 1.188.27 1.664.19.477.45.85.8 1.12.35.265.77.398 1.28.398.52 0 .96-.138 1.31-.416a2.6 2.6 0 0 0 .8-1.143 4.6 4.6 0 0 0 .27-1.623c0-.594-.09-1.128-.27-1.6a2.439 2.439 0 0 0-.79-1.12c-.36-.273-.8-.41-1.32-.41-.51 0-.94.131-1.29.393-.35.261-.61.627-.79 1.096-.18.468-.27 1.015-.27 1.641Zm8.47 4.501v-9.003h1.69v1.43h.09c.17-.484.46-.865.87-1.142.42-.282.89-.422 1.42-.422.25 0 .47.029.66.087.2.059.37.139.52.241l-.56 1.465a1.904 1.904 0 0 0-.36-.123 1.875 1.875 0 0 0-.46-.053c-.41 0-.77.088-1.09.264-.32.172-.57.41-.76.715-.18.305-.27.653-.27 1.043V390h-1.75Zm10.01.182c-.84 0-1.58-.194-2.21-.581a3.84 3.84 0 0 1-1.46-1.623c-.35-.696-.53-1.508-.53-2.438 0-.934.18-1.751.53-2.45.34-.7.83-1.243 1.46-1.63.63-.386 1.37-.58 2.21-.58.84 0 1.58.194 2.21.58.63.387 1.12.93 1.47 1.63.34.699.52 1.516.52 2.45 0 .93-.18 1.742-.52 2.438a3.929 3.929 0 0 1-1.47 1.623c-.63.387-1.37.581-2.21.581Zm.01-1.471c.54 0 1-.145 1.36-.434.36-.289.62-.674.79-1.155.18-.48.27-1.01.27-1.588a4.48 4.48 0 0 0-.27-1.583c-.17-.484-.43-.873-.79-1.166-.36-.293-.82-.44-1.36-.44-.55 0-1.01.147-1.38.44-.36.293-.62.682-.8 1.166a4.718 4.718 0 0 0-.26 1.583c0 .578.09 1.108.26 1.588.18.481.44.866.8 1.155.37.289.83.434 1.38.434Zm13.54-7.714-3.27 9.003h-1.87l-3.27-9.003h1.88l2.28 6.928h.09l2.28-6.928h1.88Zm1.64 9.003v-9.003h1.76V390h-1.76Zm.89-10.392c-.3 0-.57-.101-.79-.305a1.006 1.006 0 0 1-.32-.738c0-.289.11-.535.32-.739.22-.207.49-.31.79-.31.3 0 .56.103.78.31.22.204.33.45.33.739a.98.98 0 0 1-.33.738c-.22.204-.48.305-.78.305Zm6.6 10.568c-.73 0-1.38-.186-1.95-.557-.57-.375-1.01-.908-1.34-1.6-.32-.696-.48-1.53-.48-2.503 0-.973.16-1.805.49-2.497.33-.691.78-1.221 1.35-1.588.57-.367 1.21-.551 1.94-.551.56 0 1.01.094 1.34.281.35.184.61.399.8.645.19.246.34.463.45.651h.1v-4.461h1.76V390h-1.72v-1.401h-.14c-.11.192-.26.41-.46.657-.19.246-.46.461-.81.644-.34.184-.79.276-1.33.276Zm.38-1.495c.51 0 .93-.133 1.28-.398.35-.27.62-.643.8-1.12.18-.476.27-1.031.27-1.664 0-.626-.09-1.173-.27-1.641-.18-.469-.44-.835-.79-1.096-.35-.262-.78-.393-1.29-.393-.53 0-.97.137-1.32.41-.35.274-.61.647-.79 1.12a4.467 4.467 0 0 0-.27 1.6 4.6 4.6 0 0 0 .27 1.623c.18.481.45.862.8 1.143.35.278.79.416 1.31.416Zm10.46 1.501c-.89 0-1.65-.19-2.29-.569a3.856 3.856 0 0 1-1.48-1.612c-.35-.695-.52-1.51-.52-2.444 0-.922.17-1.735.52-2.438.35-.703.83-1.252 1.45-1.647.63-.395 1.36-.592 2.19-.592.51 0 1 .084 1.48.252.48.168.91.432 1.28.791.38.36.68.827.9 1.401.22.571.33 1.264.33 2.081v.621h-7.16v-1.313h5.44c0-.461-.09-.869-.28-1.225a2.15 2.15 0 0 0-.79-.85c-.34-.207-.73-.31-1.18-.31-.5 0-.93.121-1.29.363-.37.239-.65.551-.85.938-.19.383-.29.799-.29 1.248v1.026c0 .602.1 1.114.32 1.536.21.422.51.744.89.967.39.219.83.328 1.34.328.34 0 .64-.047.91-.141.28-.097.51-.242.71-.433.2-.192.35-.428.46-.71l1.66.299c-.13.489-.37.917-.72 1.284a3.42 3.42 0 0 1-1.28.85c-.51.199-1.1.299-1.75.299Zm9.17-.006c-.72 0-1.37-.186-1.94-.557-.57-.375-1.01-.908-1.34-1.6-.32-.696-.48-1.53-.48-2.503 0-.973.16-1.805.49-2.497.33-.691.78-1.221 1.35-1.588.57-.367 1.21-.551 1.94-.551.55 0 1 .094 1.34.281.35.184.61.399.8.645.19.246.34.463.45.651h.1v-4.461h1.75V390h-1.71v-1.401h-.14c-.11.192-.26.41-.46.657-.2.246-.47.461-.81.644-.34.184-.79.276-1.34.276Zm.39-1.495c.5 0 .93-.133 1.28-.398.35-.27.62-.643.8-1.12.18-.476.27-1.031.27-1.664 0-.626-.09-1.173-.27-1.641-.18-.469-.44-.835-.79-1.096-.35-.262-.78-.393-1.29-.393-.53 0-.97.137-1.32.41a2.53 2.53 0 0 0-.8 1.12 4.701 4.701 0 0 0-.26 1.6 4.6 4.6 0 0 0 .27 1.623c.18.481.45.862.8 1.143.35.278.79.416 1.31.416Zm11.08 1.319v-12.004h1.76v4.461h.1c.1-.188.25-.405.44-.651s.46-.461.8-.645c.34-.187.79-.281 1.35-.281.72 0 1.37.184 1.94.551.57.367 1.02.897 1.34 1.588.33.692.5 1.524.5 2.497 0 .973-.17 1.807-.49 2.503-.32.692-.77 1.225-1.34 1.6-.56.371-1.21.557-1.94.557-.54 0-.99-.092-1.34-.276a2.635 2.635 0 0 1-.81-.644 6.016 6.016 0 0 1-.45-.657h-.14V390h-1.72Zm1.72-4.501c0 .633.09 1.188.28 1.664.18.477.45.85.79 1.12.35.265.78.398 1.28.398.53 0 .96-.138 1.31-.416.36-.281.62-.662.8-1.143.19-.48.28-1.022.28-1.623 0-.594-.09-1.128-.27-1.6-.18-.473-.44-.846-.8-1.12-.35-.273-.79-.41-1.32-.41-.51 0-.94.131-1.29.393-.35.261-.61.627-.79 1.096-.18.468-.27 1.015-.27 1.641Zm9.28 7.877c-.27 0-.5-.021-.72-.064-.21-.04-.37-.083-.48-.129l.42-1.436c.32.086.61.123.86.111.25-.012.47-.106.66-.281.2-.176.37-.463.52-.862l.21-.598-3.29-9.12h1.88l2.28 6.987h.09l2.28-6.987h1.88l-3.71 10.205a3.94 3.94 0 0 1-.66 1.189c-.26.329-.58.575-.95.739-.36.164-.79.246-1.27.246Z" fill="#35303F" fill-opacity=".7"/><path d="M1138.7 393.265c-1.21 0-2.28-.166-3.22-.499-.94-.328-1.72-.812-2.36-1.453-.64-.637-1.13-1.418-1.46-2.345-.34-.926-.5-1.983-.5-3.17 0-1.157.17-2.196.5-3.119.34-.922.83-1.707 1.47-2.356.64-.652 1.43-1.15 2.35-1.494.92-.344 1.97-.516 3.14-.516 1.12 0 2.11.176 2.97.527.85.352 1.57.835 2.15 1.448a6.149 6.149 0 0 1 1.33 2.11c.29.793.44 1.631.44 2.515 0 .617-.04 1.221-.11 1.811a5.93 5.93 0 0 1-.44 1.594c-.21.473-.51.852-.9 1.137-.39.281-.9.428-1.52.44-.34.011-.66-.028-.97-.118-.31-.09-.58-.234-.8-.433a1.299 1.299 0 0 1-.4-.774h-.07c-.09.23-.25.445-.47.645-.22.195-.5.351-.84.469-.33.113-.72.16-1.17.14a3.164 3.164 0 0 1-1.33-.334 3.059 3.059 0 0 1-1.01-.844 3.893 3.893 0 0 1-.64-1.278 5.618 5.618 0 0 1-.22-1.641c0-.578.08-1.096.25-1.553.17-.461.4-.858.68-1.19.3-.336.63-.601 1.01-.797a3.668 3.668 0 0 1 2.34-.334c.34.07.62.178.85.322.23.145.38.303.43.475h.08v-.656h1.44v5.439c0 .309.08.57.24.785.17.215.4.323.7.323.36 0 .63-.131.83-.393.21-.262.35-.664.43-1.207.09-.544.13-1.239.13-2.087 0-.594-.08-1.153-.24-1.676a4.727 4.727 0 0 0-.7-1.43 4.52 4.52 0 0 0-1.12-1.108 5.356 5.356 0 0 0-1.53-.715 6.549 6.549 0 0 0-1.88-.252c-.93 0-1.76.144-2.49.433-.73.286-1.34.698-1.84 1.237-.5.539-.87 1.186-1.13 1.94-.26.75-.38 1.592-.38 2.526 0 .973.13 1.837.39 2.591.26.75.65 1.383 1.16 1.899.51.516 1.15.906 1.9 1.172.75.27 1.62.405 2.61.405.44 0 .87-.04 1.29-.118.42-.074.79-.16 1.12-.258.33-.093.58-.17.75-.228l.41 1.283c-.24.114-.57.225-.97.335-.4.109-.83.199-1.3.269-.47.07-.92.106-1.38.106Zm-.54-4.877c.51 0 .92-.101 1.23-.305.31-.203.53-.506.67-.908.14-.406.21-.914.21-1.524 0-.594-.08-1.067-.23-1.418-.14-.356-.37-.61-.68-.762-.3-.157-.69-.235-1.17-.235-.45 0-.82.108-1.14.323-.3.215-.54.506-.7.873-.16.367-.25.776-.25 1.225 0 .473.07.918.2 1.336.13.414.35.75.64 1.008.3.258.71.387 1.22.387Zm9.29-10.392h1.75v9.542c0 .387.05.661.15.821.1.16.29.236.57.228.15-.003.27-.013.34-.029a1.6 1.6 0 0 0 .21-.053l.32 1.401a4.4 4.4 0 0 1-.46.1c-.19.035-.4.055-.63.058-.76.012-1.32-.168-1.7-.539-.37-.371-.55-.912-.55-1.623v-9.906Zm4.5 12.004v-9.003h1.75V390h-1.75Zm.88-10.392c-.3 0-.57-.101-.79-.305a1.006 1.006 0 0 1-.32-.738c0-.289.11-.535.32-.739.22-.207.49-.31.79-.31.3 0 .56.103.78.31.22.204.33.45.33.739a.98.98 0 0 1-.33.738c-.22.204-.48.305-.78.305Zm10.93 1.389-3.27 9.003h-1.87l-3.27-9.003h1.88l2.28 6.928h.09l2.28-6.928h1.88Zm5.22 9.185c-.89 0-1.65-.19-2.29-.569a3.856 3.856 0 0 1-1.48-1.612c-.35-.695-.52-1.51-.52-2.444 0-.922.17-1.735.52-2.438.35-.703.83-1.252 1.45-1.647.63-.395 1.36-.592 2.19-.592.51 0 1 .084 1.48.252.48.168.91.432 1.28.791.38.36.68.827.9 1.401.22.571.33 1.264.33 2.081v.621h-7.16v-1.313h5.44c0-.461-.09-.869-.28-1.225a2.15 2.15 0 0 0-.79-.85c-.34-.207-.73-.31-1.18-.31-.5 0-.93.121-1.29.363-.37.239-.65.551-.85.938-.19.383-.29.799-.29 1.248v1.026c0 .602.11 1.114.32 1.536.21.422.51.744.89.967.39.219.83.328 1.34.328.34 0 .64-.047.91-.141.28-.097.51-.242.71-.433.2-.192.35-.428.46-.71l1.66.299c-.13.489-.37.917-.72 1.284a3.42 3.42 0 0 1-1.28.85c-.51.199-1.1.299-1.75.299Zm5.94-.182v-12.004h1.76v4.461h.1c.1-.188.25-.405.44-.651s.46-.461.8-.645c.34-.187.79-.281 1.35-.281.72 0 1.37.184 1.94.551.57.367 1.02.897 1.35 1.588.32.692.49 1.524.49 2.497 0 .973-.16 1.807-.49 2.503-.32.692-.77 1.225-1.33 1.6-.57.371-1.22.557-1.94.557-.55 0-1-.092-1.35-.276a2.635 2.635 0 0 1-.81-.644 6.016 6.016 0 0 1-.45-.657h-.14V390h-1.72Zm1.72-4.501c0 .633.09 1.188.28 1.664.18.477.45.85.79 1.12.35.265.78.398 1.28.398.53 0 .96-.138 1.32-.416.35-.281.61-.662.79-1.143.19-.48.28-1.022.28-1.623 0-.594-.09-1.128-.27-1.6-.18-.473-.44-.846-.8-1.12-.35-.273-.79-.41-1.32-.41-.51 0-.94.131-1.29.393-.34.261-.61.627-.79 1.096-.18.468-.27 1.015-.27 1.641Zm8.48-7.503h1.75v9.542c0 .387.05.661.14.821.11.16.3.236.58.228.15-.003.27-.013.34-.029a1.6 1.6 0 0 0 .21-.053l.32 1.401c-.12.035-.28.069-.47.1-.18.035-.39.055-.62.058-.76.012-1.33-.168-1.7-.539-.37-.371-.55-.912-.55-1.623v-9.906Zm8.28 12.186c-.84 0-1.58-.194-2.2-.581a3.929 3.929 0 0 1-1.47-1.623c-.35-.696-.52-1.508-.52-2.438 0-.934.17-1.751.52-2.45.35-.7.84-1.243 1.47-1.63.62-.386 1.36-.58 2.2-.58.85 0 1.59.194 2.21.58.63.387 1.12.93 1.47 1.63.35.699.52 1.516.52 2.45 0 .93-.17 1.742-.52 2.438a3.929 3.929 0 0 1-1.47 1.623c-.62.387-1.36.581-2.21.581Zm.01-1.471c.55 0 1-.145 1.36-.434.36-.289.63-.674.8-1.155.17-.48.26-1.01.26-1.588 0-.575-.09-1.102-.26-1.583a2.566 2.566 0 0 0-.8-1.166c-.36-.293-.81-.44-1.36-.44s-1.01.147-1.37.44c-.36.293-.63.682-.8 1.166-.18.481-.26 1.008-.26 1.583 0 .578.08 1.108.26 1.588.17.481.44.866.8 1.155.36.289.82.434 1.37.434Zm9.94 1.471c-.87 0-1.62-.198-2.25-.592a3.848 3.848 0 0 1-1.44-1.647c-.34-.7-.51-1.501-.51-2.403 0-.915.18-1.722.52-2.421.34-.703.83-1.252 1.45-1.647.63-.395 1.36-.592 2.21-.592.69 0 1.3.127 1.83.381.54.25.97.602 1.3 1.055.33.453.53.983.59 1.588h-1.71a2.05 2.05 0 0 0-.64-1.09c-.33-.304-.78-.457-1.34-.457-.49 0-.91.129-1.28.387-.37.254-.65.617-.85 1.09-.21.469-.31 1.024-.31 1.665 0 .656.1 1.223.3 1.699.2.477.48.846.85 1.108.36.262.8.393 1.29.393.33 0 .63-.061.9-.182.28-.125.51-.303.69-.533.19-.231.32-.508.39-.832h1.71a3.256 3.256 0 0 1-.57 1.559c-.32.457-.74.816-1.27 1.078-.53.262-1.15.393-1.86.393Zm7.18-3.236-.01-2.139h.31l3.58-3.81h2.1l-4.09 4.338h-.27l-1.62 1.611Zm-1.61 3.054v-12.004h1.75V390h-1.75Zm5.69 0-3.23-4.279 1.21-1.225 4.17 5.504h-2.15Zm10.25-6.805-1.59.282a1.853 1.853 0 0 0-.32-.581 1.566 1.566 0 0 0-.57-.451c-.25-.117-.55-.176-.91-.176-.5 0-.91.112-1.24.334-.34.219-.5.502-.5.85a.9.9 0 0 0 .33.727c.22.184.58.334 1.08.451l1.43.328c.83.192 1.45.487 1.85.885.41.399.61.917.61 1.554 0 .539-.15 1.02-.47 1.442-.31.418-.74.746-1.29.984-.55.239-1.19.358-1.92.358-1.01 0-1.83-.215-2.47-.645-.63-.434-1.02-1.049-1.17-1.846l1.69-.258c.11.441.33.775.66 1.002.32.223.75.334 1.28.334.57 0 1.03-.119 1.38-.357.34-.243.51-.538.51-.885 0-.282-.1-.518-.31-.71-.21-.191-.53-.336-.96-.433l-1.52-.334c-.84-.192-1.46-.497-1.87-.915-.4-.418-.6-.947-.6-1.588 0-.531.15-.996.45-1.395.3-.399.71-.709 1.23-.932.52-.227 1.12-.34 1.8-.34.97 0 1.74.211 2.3.633.56.418.93.979 1.11 1.682Zm6.67-5.761-3.87 14.371h-1.56l3.87-14.371h1.56Zm3.24 7.221V390h-1.75v-9.003h1.68v1.466h.11c.21-.477.53-.86.98-1.149.44-.289 1-.434 1.68-.434.61 0 1.15.129 1.61.387.46.254.82.633 1.07 1.137.26.504.38 1.127.38 1.87V390h-1.75v-5.515c0-.653-.17-1.163-.51-1.53-.34-.371-.81-.557-1.4-.557-.41 0-.77.088-1.08.264-.32.176-.57.434-.75.774-.18.336-.27.742-.27 1.219Zm11.91 5.527c-.85 0-1.59-.194-2.21-.581a3.929 3.929 0 0 1-1.47-1.623c-.35-.696-.52-1.508-.52-2.438 0-.934.17-1.751.52-2.45.35-.7.84-1.243 1.47-1.63.62-.386 1.36-.58 2.21-.58.84 0 1.58.194 2.2.58.63.387 1.12.93 1.47 1.63.35.699.52 1.516.52 2.45 0 .93-.17 1.742-.52 2.438a3.929 3.929 0 0 1-1.47 1.623c-.62.387-1.36.581-2.2.581Zm0-1.471c.55 0 1-.145 1.36-.434.36-.289.63-.674.8-1.155.17-.48.26-1.01.26-1.588 0-.575-.09-1.102-.26-1.583a2.566 2.566 0 0 0-.8-1.166c-.36-.293-.81-.44-1.36-.44s-1.01.147-1.37.44c-.36.293-.63.682-.8 1.166-.18.481-.26 1.008-.26 1.583 0 .578.08 1.108.26 1.588.17.481.44.866.8 1.155.36.289.82.434 1.37.434Zm9.52 1.465c-.73 0-1.38-.186-1.95-.557-.56-.375-1.01-.908-1.33-1.6-.32-.696-.48-1.53-.48-2.503 0-.973.16-1.805.48-2.497.33-.691.78-1.221 1.35-1.588a3.514 3.514 0 0 1 1.94-.551c.56 0 1.01.094 1.35.281.34.184.61.399.79.645.2.246.34.463.45.651h.11v-4.461h1.75V390h-1.71v-1.401h-.15c-.11.192-.26.41-.46.657-.19.246-.46.461-.81.644-.34.184-.79.276-1.33.276Zm.38-1.495c.51 0 .93-.133 1.28-.398.35-.27.62-.643.8-1.12.18-.476.28-1.031.28-1.664 0-.626-.09-1.173-.27-1.641-.18-.469-.45-.835-.8-1.096-.34-.262-.77-.393-1.29-.393s-.96.137-1.31.41c-.36.274-.62.647-.8 1.12-.18.472-.26 1.006-.26 1.6 0 .601.08 1.143.26 1.623.18.481.45.862.8 1.143.36.278.8.416 1.31.416Zm10.46 1.501c-.89 0-1.65-.19-2.29-.569a3.856 3.856 0 0 1-1.48-1.612c-.34-.695-.52-1.51-.52-2.444 0-.922.18-1.735.52-2.438.35-.703.83-1.252 1.45-1.647.63-.395 1.36-.592 2.2-.592.5 0 1 .084 1.47.252.48.168.91.432 1.29.791.38.36.67.827.89 1.401.22.571.33 1.264.33 2.081v.621h-7.15v-1.313h5.43c0-.461-.09-.869-.28-1.225a2.082 2.082 0 0 0-.79-.85c-.33-.207-.73-.31-1.18-.31-.49 0-.92.121-1.29.363-.36.239-.65.551-.85.938-.19.383-.29.799-.29 1.248v1.026c0 .602.11 1.114.32 1.536.21.422.51.744.89.967.39.219.84.328 1.35.328.33 0 .63-.047.91-.141.27-.097.51-.242.7-.433.2-.192.36-.428.46-.71l1.66.299a3 3 0 0 1-.71 1.284 3.46 3.46 0 0 1-1.29.85c-.51.199-1.09.299-1.75.299Z" fill="#35303F"/><rect x="984.5" y="364.5" width="335" height="39" rx="7.5" stroke="url(#F)" stroke-opacity=".3" shape-rendering="crispEdges"/></g><path fill="#D9D9D9" d="M1176 692h1v1h-1z"/><defs><linearGradient id="a" x1="-269.243" y1="-194.145" x2="1991.23" y2="1028.67" gradientUnits="userSpaceOnUse"><stop stop-color="#F9F7FC"/><stop offset="1" stop-color="#F9EFFF"/></linearGradient><linearGradient id="c" x1="259" y1="86" x2="259" y2="174" gradientUnits="userSpaceOnUse"><stop stop-color="#fff"/><stop offset=".755" stop-color="#fff" stop-opacity="0"/></linearGradient><linearGradient id="e" x1="855" y1="86" x2="855" y2="174" gradientUnits="userSpaceOnUse"><stop stop-color="#fff"/><stop offset=".755" stop-color="#fff" stop-opacity="0"/></linearGradient><linearGradient id="g" x1="1451" y1="86" x2="1451" y2="174" gradientUnits="userSpaceOnUse"><stop stop-color="#fff"/><stop offset=".755" stop-color="#fff" stop-opacity="0"/></linearGradient><linearGradient id="i" x1="348.252" y1="279" x2="348.252" y2="229" gradientUnits="userSpaceOnUse"><stop stop-color="#5746AF"/><stop offset="1" stop-color="#5746AF" stop-opacity=".09"/></linearGradient><linearGradient id="j" x1="307.5" y1="229" x2="307.5" y2="279" gradientUnits="userSpaceOnUse"><stop stop-opacity=".47"/><stop offset="1"/></linearGradient><linearGradient id="l" x1="591.777" y1="364" x2="591.777" y2="314" gradientUnits="userSpaceOnUse"><stop stop-color="#5746AF"/><stop offset="1" stop-color="#5746AF" stop-opacity=".09"/></linearGradient><linearGradient id="m" x1="557.5" y1="314" x2="557.5" y2="364" gradientUnits="userSpaceOnUse"><stop stop-opacity=".47"/><stop offset="1"/></linearGradient><linearGradient id="o" x1="579" y1="803" x2="579" y2="753" gradientUnits="userSpaceOnUse"><stop stop-color="#5746AF"/><stop offset="1" stop-color="#5746AF" stop-opacity=".09"/></linearGradient><linearGradient id="p" x1="556" y1="753" x2="556" y2="803" gradientUnits="userSpaceOnUse"><stop stop-opacity=".47"/><stop offset="1"/></linearGradient><linearGradient id="r" x1="1175" y1="693" x2="1175" y2="643" gradientUnits="userSpaceOnUse"><stop stop-color="#fff" stop-opacity=".09"/><stop offset="1" stop-color="#fff"/></linearGradient><linearGradient id="s" x1="1152" y1="643" x2="1152" y2="693" gradientUnits="userSpaceOnUse"><stop stop-opacity=".47"/><stop offset="1"/></linearGradient><linearGradient id="u" x1="1189.51" y1="582" x2="1189.51" y2="414" gradientUnits="userSpaceOnUse"><stop stop-color="#5746AF"/><stop offset="1" stop-color="#5746AF" stop-opacity=".09"/></linearGradient><linearGradient id="v" x1="1152" y1="414" x2="1152" y2="582" gradientUnits="userSpaceOnUse"><stop stop-opacity=".47"/><stop offset="1"/></linearGradient><linearGradient id="x" x1="883.301" y1="913" x2="883.301" y2="863" gradientUnits="userSpaceOnUse"><stop stop-color="#5746AF"/><stop offset="1" stop-color="#5746AF" stop-opacity=".09"/></linearGradient><linearGradient id="y" x1="855.5" y1="863" x2="855.5" y2="913" gradientUnits="userSpaceOnUse"><stop stop-opacity=".47"/><stop offset="1"/></linearGradient><linearGradient id="A" x1="905.466" y1="1019" x2="905.466" y2="969" gradientUnits="userSpaceOnUse"><stop stop-color="#fff" stop-opacity=".09"/><stop offset="1" stop-color="#fff"/></linearGradient><linearGradient id="B" x1="855" y1="969" x2="855" y2="1019" gradientUnits="userSpaceOnUse"><stop stop-opacity=".47"/><stop offset="1"/></linearGradient><linearGradient id="E" x1="1189.51" y1="404" x2="1189.51" y2="364" gradientUnits="userSpaceOnUse"><stop stop-color="#5746AF"/><stop offset="1" stop-color="#5746AF" stop-opacity=".09"/></linearGradient><linearGradient id="F" x1="1152" y1="364" x2="1152" y2="404" gradientUnits="userSpaceOnUse"><stop stop-opacity=".47"/><stop offset="1"/></linearGradient><filter id="b" x="123" y="86" width="272" height="92" filterUnits="userSpaceOnUse" color-interpolation-filters="sRGB"><feFlood flood-opacity="0" result="BackgroundImageFix"/><feColorMatrix in="SourceAlpha" values="0 0 0 0 0 0 0 0 0 0 0 0 0 0 0 0 0 0 127 0" result="hardAlpha"/><feOffset dy="2"/><feGaussianBlur stdDeviation="1"/><feComposite in2="hardAlpha" operator="out"/><feColorMatrix values="0 0 0 0 0.137959 0 0 0 0 0.0432465 0 0 0 0 0.39842 0 0 0 0.06 0"/><feBlend in2="BackgroundImageFix" result="effect1_dropShadow_16_409"/><feBlend in="SourceGraphic" in2="effect1_dropShadow_16_409" result="shape"/></filter><filter id="d" x="719" y="86" width="272" height="92" filterUnits="userSpaceOnUse" color-interpolation-filters="sRGB"><feFlood flood-opacity="0" result="BackgroundImageFix"/><feColorMatrix in="SourceAlpha" values="0 0 0 0 0 0 0 0 0 0 0 0 0 0 0 0 0 0 127 0" result="hardAlpha"/><feOffset dy="2"/><feGaussianBlur stdDeviation="1"/><feComposite in2="hardAlpha" operator="out"/><feColorMatrix values="0 0 0 0 0.137959 0 0 0 0 0.0432465 0 0 0 0 0.39842 0 0 0 0.06 0"/><feBlend in2="BackgroundImageFix" result="effect1_dropShadow_16_409"/><feBlend in="SourceGraphic" in2="effect1_dropShadow_16_409" result="shape"/></filter><filter id="f" x="1315" y="86" width="272" height="92" filterUnits="userSpaceOnUse" color-interpolation-filters="sRGB"><feFlood flood-opacity="0" result="BackgroundImageFix"/><feColorMatrix in="SourceAlpha" values="0 0 0 0 0 0 0 0 0 0 0 0 0 0 0 0 0 0 127 0" result="hardAlpha"/><feOffset dy="2"/><feGaussianBlur stdDeviation="1"/><feComposite in2="hardAlpha" operator="out"/><feColorMatrix values="0 0 0 0 0.137959 0 0 0 0 0.0432465 0 0 0 0 0.39842 0 0 0 0.06 0"/><feBlend in2="BackgroundImageFix" result="effect1_dropShadow_16_409"/><feBlend in="SourceGraphic" in2="effect1_dropShadow_16_409" result="shape"/></filter><filter id="h" x="123" y="229" width="369" height="54" filterUnits="userSpaceOnUse" color-interpolation-filters="sRGB"><feFlood flood-opacity="0" result="BackgroundImageFix"/><feColorMatrix in="SourceAlpha" values="0 0 0 0 0 0 0 0 0 0 0 0 0 0 0 0 0 0 127 0" result="hardAlpha"/><feOffset dy="2"/><feGaussianBlur stdDeviation="1"/><feComposite in2="hardAlpha" operator="out"/><feColorMatrix values="0 0 0 0 0.137959 0 0 0 0 0.0432465 0 0 0 0 0.39842 0 0 0 0.06 0"/><feBlend in2="BackgroundImageFix" result="effect1_dropShadow_16_409"/><feBlend in="SourceGraphic" in2="effect1_dropShadow_16_409" result="shape"/></filter><filter id="k" x="402" y="314" width="311" height="54" filterUnits="userSpaceOnUse" color-interpolation-filters="sRGB"><feFlood flood-opacity="0" result="BackgroundImageFix"/><feColorMatrix in="SourceAlpha" values="0 0 0 0 0 0 0 0 0 0 0 0 0 0 0 0 0 0 127 0" result="hardAlpha"/><feOffset dy="2"/><feGaussianBlur stdDeviation="1"/><feComposite in2="hardAlpha" operator="out"/><feColorMatrix values="0 0 0 0 0.137959 0 0 0 0 0.0432465 0 0 0 0 0.39842 0 0 0 0.06 0"/><feBlend in2="BackgroundImageFix" result="effect1_dropShadow_16_409"/><feBlend in="SourceGraphic" in2="effect1_dropShadow_16_409" result="shape"/></filter><filter id="n" x="451" y="753" width="210" height="54" filterUnits="userSpaceOnUse" color-interpolation-filters="sRGB"><feFlood flood-opacity="0" result="BackgroundImageFix"/><feColorMatrix in="SourceAlpha" values="0 0 0 0 0 0 0 0 0 0 0 0 0 0 0 0 0 0 127 0" result="hardAlpha"/><feOffset dy="2"/><feGaussianBlur stdDeviation="1"/><feComposite in2="hardAlpha" operator="out"/><feColorMatrix values="0 0 0 0 0.137959 0 0 0 0 0.0432465 0 0 0 0 0.39842 0 0 0 0.06 0"/><feBlend in2="BackgroundImageFix" result="effect1_dropShadow_16_409"/><feBlend in="SourceGraphic" in2="effect1_dropShadow_16_409" result="shape"/></filter><filter id="q" x="1047" y="643" width="210" height="54" filterUnits="userSpaceOnUse" color-interpolation-filters="sRGB"><feFlood flood-opacity="0" result="BackgroundImageFix"/><feColorMatrix in="SourceAlpha" values="0 0 0 0 0 0 0 0 0 0 0 0 0 0 0 0 0 0 127 0" result="hardAlpha"/><feOffset dy="2"/><feGaussianBlur stdDeviation="1"/><feComposite in2="hardAlpha" operator="out"/><feColorMatrix values="0 0 0 0 0.137959 0 0 0 0 0.0432465 0 0 0 0 0.39842 0 0 0 0.06 0"/><feBlend in2="BackgroundImageFix" result="effect1_dropShadow_16_409"/><feBlend in="SourceGraphic" in2="effect1_dropShadow_16_409" result="shape"/></filter><filter id="t" x="982" y="414" width="340" height="172" filterUnits="userSpaceOnUse" color-interpolation-filters="sRGB"><feFlood flood-opacity="0" result="BackgroundImageFix"/><feColorMatrix in="SourceAlpha" values="0 0 0 0 0 0 0 0 0 0 0 0 0 0 0 0 0 0 127 0" result="hardAlpha"/><feOffset dy="2"/><feGaussianBlur stdDeviation="1"/><feComposite in2="hardAlpha" operator="out"/><feColorMatrix values="0 0 0 0 0.137959 0 0 0 0 0.0432465 0 0 0 0 0.39842 0 0 0 0.06 0"/><feBlend in2="BackgroundImageFix" result="effect1_dropShadow_16_409"/><feBlend in="SourceGraphic" in2="effect1_dropShadow_16_409" result="shape"/></filter><filter id="w" x="729" y="863" width="253" height="54" filterUnits="userSpaceOnUse" color-interpolation-filters="sRGB"><feFlood flood-opacity="0" result="BackgroundImageFix"/><feColorMatrix in="SourceAlpha" values="0 0 0 0 0 0 0 0 0 0 0 0 0 0 0 0 0 0 127 0" result="hardAlpha"/><feOffset dy="2"/><feGaussianBlur stdDeviation="1"/><feComposite in2="hardAlpha" operator="out"/><feColorMatrix values="0 0 0 0 0.137959 0 0 0 0 0.0432465 0 0 0 0 0.39842 0 0 0 0.06 0"/><feBlend in2="BackgroundImageFix" result="effect1_dropShadow_16_409"/><feBlend in="SourceGraphic" in2="effect1_dropShadow_16_409" result="shape"/></filter><filter id="z" x="627" y="969" width="456" height="54" filterUnits="userSpaceOnUse" color-interpolation-filters="sRGB"><feFlood flood-opacity="0" result="BackgroundImageFix"/><feColorMatrix in="SourceAlpha" values="0 0 0 0 0 0 0 0 0 0 0 0 0 0 0 0 0 0 127 0" result="hardAlpha"/><feOffset dy="2"/><feGaussianBlur stdDeviation="1"/><feComposite in2="hardAlpha" operator="out"/><feColorMatrix values="0 0 0 0 0.137959 0 0 0 0 0.0432465 0 0 0 0 0.39842 0 0 0 0.06 0"/><feBlend in2="BackgroundImageFix" result="effect1_dropShadow_16_409"/><feBlend in="SourceGraphic" in2="effect1_dropShadow_16_409" result="shape"/></filter><filter id="D" x="982.35" y="364" width="339.301" height="43.301" filterUnits="userSpaceOnUse" color-interpolation-filters="sRGB"><feFlood flood-opacity="0" result="BackgroundImageFix"/><feColorMatrix in="SourceAlpha" values="0 0 0 0 0 0 0 0 0 0 0 0 0 0 0 0 0 0 127 0" result="hardAlpha"/><feOffset dy="1.65"/><feGaussianBlur stdDeviation=".825"/><feComposite in2="hardAlpha" operator="out"/><feColorMatrix values="0 0 0 0 0.137959 0 0 0 0 0.0432465 0 0 0 0 0.39842 0 0 0 0.06 0"/><feBlend in2="BackgroundImageFix" result="effect1_dropShadow_16_409"/><feBlend in="SourceGraphic" in2="effect1_dropShadow_16_409" result="shape"/></filter><clipPath id="C"><path fill="#fff" d="M1357 112h189v35.438h-189z"/></clipPath></defs></svg>