<svg aria-hidden="true" focusable="false" width="20" height="20" viewBox="0 0 20 20" fill="none" xmlns="http://www.w3.org/2000/svg">
    <path d="M16.9307 4.24318C15.6557 3.66818 14.289 3.24318 12.8599 3.00151C12.8471 2.99907 12.834 3.00064 12.8222 3.00602C12.8104 3.01139 12.8006 3.0203 12.794 3.03151C12.619 3.33901 12.424 3.73984 12.2874 4.05651C10.7716 3.83004 9.23064 3.83004 7.71489 4.05651C7.56267 3.70556 7.39102 3.36337 7.20073 3.03151C7.19428 3.02016 7.18452 3.01105 7.17276 3.0054C7.16099 2.99974 7.14779 2.9978 7.13489 2.99985C5.70656 3.24151 4.3399 3.66651 3.06407 4.24234C3.05309 4.24695 3.04379 4.2548 3.0374 4.26484C0.444078 8.07733 -0.266754 11.7957 0.082412 15.4673C0.0833836 15.4763 0.086175 15.485 0.0906161 15.4929C0.0950573 15.5008 0.101055 15.5077 0.108245 15.5131C1.6219 16.6152 3.31018 17.4547 5.1024 17.9965C5.11489 18.0003 5.12826 18.0003 5.14074 17.9964C5.15323 17.9926 5.16426 17.985 5.1724 17.9748C5.5574 17.4581 5.90073 16.9123 6.19406 16.339C6.21156 16.3056 6.1949 16.2656 6.1599 16.2523C5.62157 16.0496 5.09997 15.8049 4.5999 15.5206C4.59091 15.5155 4.58334 15.5082 4.57786 15.4995C4.57239 15.4907 4.56917 15.4807 4.56851 15.4704C4.56785 15.46 4.56976 15.4497 4.57408 15.4403C4.57839 15.4309 4.58498 15.4227 4.59323 15.4165C4.69823 15.339 4.80323 15.2581 4.90323 15.1773C4.91223 15.17 4.92308 15.1654 4.93455 15.1639C4.94603 15.1625 4.95769 15.1642 4.96823 15.169C8.24072 16.639 11.7849 16.639 15.019 15.169C15.0296 15.1639 15.0414 15.162 15.053 15.1633C15.0647 15.1646 15.0757 15.1692 15.0849 15.1765C15.1849 15.2581 15.289 15.339 15.3949 15.4165C15.4032 15.4226 15.4099 15.4307 15.4144 15.44C15.4188 15.4493 15.4209 15.4596 15.4204 15.4699C15.4199 15.4802 15.4168 15.4903 15.4115 15.4991C15.4062 15.508 15.3988 15.5154 15.3899 15.5206C14.8915 15.8073 14.3732 16.0498 13.829 16.2515C13.8207 16.2545 13.8131 16.2593 13.8067 16.2655C13.8003 16.2717 13.7954 16.2792 13.7922 16.2875C13.7889 16.2958 13.7875 16.3047 13.788 16.3135C13.7884 16.3224 13.7908 16.3311 13.7949 16.339C14.0949 16.9115 14.4382 17.4565 14.8157 17.974C14.8236 17.9846 14.8345 17.9925 14.847 17.9967C14.8595 18.0009 14.8731 18.0011 14.8857 17.9973C16.681 17.457 18.372 16.6171 19.8874 15.5131C19.8948 15.508 19.901 15.5013 19.9056 15.4935C19.9102 15.4858 19.913 15.4771 19.914 15.4681C20.3307 11.2232 19.2157 7.53483 16.9565 4.26651C16.951 4.25589 16.9418 4.24761 16.9307 4.24318ZM6.68323 13.2315C5.69823 13.2315 4.88573 12.3407 4.88573 11.2482C4.88573 10.1548 5.6824 9.26483 6.68323 9.26483C7.69156 9.26483 8.49656 10.1623 8.48072 11.2482C8.48072 12.3415 7.68406 13.2315 6.68323 13.2315V13.2315ZM13.329 13.2315C12.3432 13.2315 11.5315 12.3407 11.5315 11.2482C11.5315 10.1548 12.3274 9.26483 13.329 9.26483C14.3374 9.26483 15.1424 10.1623 15.1265 11.2482C15.1265 12.3415 14.3382 13.2315 13.329 13.2315V13.2315Z" fill="#5865F2" />
</svg>
