<svg width="159" height="58" viewBox="0 0 159 58" fill="#000" xmlns="http://www.w3.org/2000/svg">
  <path d="M3.02344 12.728H26.0634V14.552H5.13544V28.28H24.8154V30.104H5.13544V45.176H26.3034V47H3.02344V12.728Z"/>
  <path d="M36.2668 34.04L27.2428 22.328H29.7868L37.5148 32.648L45.2908 22.328H47.6428L38.7148 34.04L48.4588 47H45.9628L37.5148 35.432L28.8748 47H26.5708L36.2668 34.04Z"/>
  <path d="M53.1309 27.992H53.2269C53.4189 27.384 53.7389 26.712 54.1869 25.976C54.6349 25.24 55.2269 24.568 55.9629 23.96C56.6989 23.32 57.5789 22.792 58.6029 22.376C59.6589 21.96 60.8589 21.752 62.2029 21.752C64.0909 21.752 65.7229 22.104 67.0989 22.808C68.5069 23.512 69.6589 24.456 70.5549 25.64C71.4829 26.824 72.1709 28.2 72.6189 29.768C73.0669 31.336 73.2909 32.984 73.2909 34.712C73.2909 36.6 73.0669 38.328 72.6189 39.896C72.1709 41.464 71.4829 42.824 70.5549 43.976C69.6589 45.096 68.5069 45.976 67.0989 46.616C65.7229 47.256 64.0909 47.576 62.2029 47.576C60.1549 47.576 58.3309 47.128 56.7309 46.232C55.1309 45.336 53.9629 43.88 53.2269 41.864H53.1309V55.832H51.3069V22.328H53.1309V27.992ZM62.2029 45.992C63.8029 45.992 65.1789 45.688 66.3309 45.08C67.5149 44.472 68.4749 43.656 69.2109 42.632C69.9789 41.608 70.5389 40.424 70.8909 39.08C71.2749 37.704 71.4669 36.248 71.4669 34.712C71.4669 33.304 71.2909 31.928 70.9389 30.584C70.5869 29.208 70.0429 27.992 69.3069 26.936C68.5709 25.848 67.6109 24.984 66.4269 24.344C65.2749 23.672 63.8669 23.336 62.2029 23.336C60.5709 23.336 59.1789 23.656 58.0269 24.296C56.8749 24.936 55.9309 25.784 55.1949 26.84C54.4909 27.896 53.9789 29.112 53.6589 30.488C53.3389 31.832 53.1789 33.24 53.1789 34.712C53.1789 36.184 53.3229 37.608 53.6109 38.984C53.8989 40.328 54.3789 41.528 55.0509 42.584C55.7549 43.608 56.6829 44.44 57.8349 45.08C59.0189 45.688 60.4749 45.992 62.2029 45.992Z"/>
  <path d="M79.3708 27.8H79.5148C79.7388 27 80.1388 26.248 80.7148 25.544C81.3228 24.84 82.0428 24.232 82.8748 23.72C83.7388 23.208 84.6828 22.824 85.7068 22.568C86.7628 22.28 87.8508 22.152 88.9708 22.184V24.008C88.0108 23.88 86.9068 23.976 85.6588 24.296C84.4428 24.616 83.2748 25.32 82.1548 26.408C81.7068 26.888 81.3068 27.352 80.9548 27.8C80.6348 28.248 80.3628 28.744 80.1388 29.288C79.9148 29.832 79.7388 30.44 79.6108 31.112C79.4828 31.784 79.4028 32.584 79.3708 33.512V47H77.5468V22.328H79.3708V27.8Z"/>
  <path d="M91.0637 34.904V35.192C91.0637 36.632 91.2557 38.008 91.6397 39.32C92.0237 40.632 92.5837 41.784 93.3197 42.776C94.0877 43.768 95.0317 44.552 96.1517 45.128C97.3037 45.704 98.6317 45.992 100.136 45.992C102.6 45.992 104.552 45.352 105.992 44.072C107.432 42.76 108.424 40.952 108.968 38.648H110.792C110.248 41.528 109.064 43.736 107.24 45.272C105.448 46.808 103.064 47.576 100.088 47.576C98.2637 47.576 96.6637 47.256 95.2877 46.616C93.9437 45.944 92.8077 45.048 91.8797 43.928C90.9837 42.776 90.3117 41.432 89.8637 39.896C89.4157 38.328 89.1917 36.648 89.1917 34.856C89.1917 33.128 89.4157 31.48 89.8637 29.912C90.3437 28.312 91.0477 26.92 91.9757 25.736C92.9037 24.52 94.0557 23.56 95.4317 22.856C96.8397 22.12 98.4877 21.752 100.376 21.752C102.104 21.752 103.624 22.072 104.936 22.712C106.28 23.352 107.4 24.232 108.296 25.352C109.192 26.44 109.864 27.72 110.312 29.192C110.792 30.632 111.032 32.184 111.032 33.848C111.032 34.008 111.016 34.2 110.984 34.424C110.984 34.616 110.984 34.776 110.984 34.904H91.0637ZM109.16 33.32C109.096 31.976 108.872 30.712 108.488 29.528C108.104 28.312 107.528 27.256 106.76 26.36C106.024 25.432 105.112 24.696 104.024 24.152C102.968 23.608 101.752 23.336 100.376 23.336C98.9037 23.336 97.6077 23.624 96.4877 24.2C95.3677 24.744 94.4237 25.48 93.6557 26.408C92.8877 27.304 92.2957 28.36 91.8797 29.576C91.4637 30.792 91.2077 32.04 91.1117 33.32H109.16Z"/>
  <path d="M116.098 38.792C116.162 39.944 116.418 40.968 116.866 41.864C117.314 42.728 117.89 43.48 118.594 44.12C119.33 44.728 120.178 45.192 121.138 45.512C122.098 45.832 123.138 45.992 124.258 45.992C125.058 45.992 125.906 45.928 126.802 45.8C127.73 45.64 128.578 45.368 129.346 44.984C130.146 44.6 130.802 44.072 131.314 43.4C131.826 42.696 132.082 41.816 132.082 40.76C132.082 39.384 131.666 38.344 130.834 37.64C130.002 36.936 128.946 36.392 127.666 36.008C126.418 35.624 125.058 35.32 123.586 35.096C122.146 34.84 120.786 34.472 119.506 33.992C118.258 33.512 117.218 32.84 116.386 31.976C115.554 31.08 115.138 29.784 115.138 28.088C115.138 26.872 115.41 25.864 115.954 25.064C116.498 24.232 117.186 23.576 118.018 23.096C118.882 22.616 119.842 22.28 120.898 22.088C121.954 21.864 123.01 21.752 124.066 21.752C125.346 21.752 126.546 21.896 127.666 22.184C128.786 22.472 129.746 22.936 130.546 23.576C131.378 24.216 132.018 25.032 132.466 26.024C132.946 27.016 133.186 28.216 133.186 29.624H131.362C131.362 28.504 131.17 27.544 130.786 26.744C130.434 25.944 129.922 25.304 129.25 24.824C128.61 24.312 127.842 23.944 126.946 23.72C126.05 23.464 125.09 23.336 124.066 23.336C123.234 23.336 122.386 23.416 121.522 23.576C120.69 23.736 119.938 24.008 119.266 24.392C118.594 24.776 118.034 25.272 117.586 25.88C117.17 26.488 116.962 27.224 116.962 28.088C116.962 29.08 117.202 29.88 117.682 30.488C118.162 31.096 118.786 31.592 119.554 31.976C120.354 32.328 121.234 32.616 122.194 32.84C123.186 33.064 124.178 33.288 125.17 33.512C126.386 33.736 127.522 34.008 128.578 34.328C129.666 34.616 130.594 35.032 131.362 35.576C132.162 36.088 132.786 36.76 133.234 37.592C133.682 38.424 133.906 39.48 133.906 40.76C133.906 42.104 133.602 43.208 132.994 44.072C132.386 44.936 131.618 45.64 130.69 46.184C129.762 46.696 128.722 47.048 127.57 47.24C126.45 47.464 125.346 47.576 124.258 47.576C122.85 47.576 121.538 47.384 120.322 47C119.138 46.648 118.098 46.104 117.202 45.368C116.306 44.6 115.602 43.672 115.09 42.584C114.578 41.496 114.306 40.232 114.274 38.792H116.098Z"/>
  <path d="M139.208 38.792C139.272 39.944 139.528 40.968 139.976 41.864C140.424 42.728 141 43.48 141.704 44.12C142.44 44.728 143.288 45.192 144.248 45.512C145.208 45.832 146.248 45.992 147.368 45.992C148.168 45.992 149.016 45.928 149.912 45.8C150.84 45.64 151.688 45.368 152.456 44.984C153.256 44.6 153.912 44.072 154.424 43.4C154.936 42.696 155.192 41.816 155.192 40.76C155.192 39.384 154.776 38.344 153.944 37.64C153.112 36.936 152.056 36.392 150.776 36.008C149.528 35.624 148.168 35.32 146.696 35.096C145.256 34.84 143.896 34.472 142.616 33.992C141.368 33.512 140.328 32.84 139.496 31.976C138.664 31.08 138.248 29.784 138.248 28.088C138.248 26.872 138.52 25.864 139.064 25.064C139.608 24.232 140.296 23.576 141.128 23.096C141.992 22.616 142.952 22.28 144.008 22.088C145.064 21.864 146.12 21.752 147.176 21.752C148.456 21.752 149.656 21.896 150.776 22.184C151.896 22.472 152.856 22.936 153.656 23.576C154.488 24.216 155.128 25.032 155.576 26.024C156.056 27.016 156.296 28.216 156.296 29.624H154.472C154.472 28.504 154.28 27.544 153.896 26.744C153.544 25.944 153.032 25.304 152.36 24.824C151.72 24.312 150.952 23.944 150.056 23.72C149.16 23.464 148.2 23.336 147.176 23.336C146.344 23.336 145.496 23.416 144.632 23.576C143.8 23.736 143.048 24.008 142.376 24.392C141.704 24.776 141.144 25.272 140.696 25.88C140.28 26.488 140.072 27.224 140.072 28.088C140.072 29.08 140.312 29.88 140.792 30.488C141.272 31.096 141.896 31.592 142.664 31.976C143.464 32.328 144.344 32.616 145.304 32.84C146.296 33.064 147.288 33.288 148.28 33.512C149.496 33.736 150.632 34.008 151.688 34.328C152.776 34.616 153.704 35.032 154.472 35.576C155.272 36.088 155.896 36.76 156.344 37.592C156.792 38.424 157.016 39.48 157.016 40.76C157.016 42.104 156.712 43.208 156.104 44.072C155.496 44.936 154.728 45.64 153.8 46.184C152.872 46.696 151.832 47.048 150.68 47.24C149.56 47.464 148.456 47.576 147.368 47.576C145.96 47.576 144.648 47.384 143.432 47C142.248 46.648 141.208 46.104 140.312 45.368C139.416 44.6 138.712 43.672 138.2 42.584C137.688 41.496 137.416 40.232 137.384 38.792H139.208Z"/>
</svg>
