<svg width="213" height="63" viewBox="0 0 213 63" fill="none" xmlns="http://www.w3.org/2000/svg">
<path d="M74.4287 20.6255H80.6826L93.9363 41.8165V20.6255H99.7093V50.6522H93.4982L80.2017 29.5052V50.6522H74.4287V20.6255Z" fill="black"/>
<path d="M125.513 50.652H120.134V47.298C118.909 49.6584 116.417 50.9874 113.268 50.9874C108.282 50.9874 105.044 47.4699 105.044 42.4074V29.0312H110.424V41.3006C110.424 44.2605 112.262 46.319 115.017 46.319C118.035 46.319 120.134 44.0027 120.134 40.829V29.0312H125.513V50.652Z" fill="black"/>
<path d="M144.235 50.3102L139.074 43.1033L133.912 50.3102H128.182L136.143 39.0282L128.795 28.6895H134.656L139.074 34.9111L143.447 28.6895H149.352L141.959 39.0282L149.921 50.3102H144.235Z" fill="black"/>
<path d="M160.855 22.5117V29.0311H166.978V33.45H160.855V44.1828C160.855 44.5432 161 44.8889 161.26 45.144C161.52 45.3991 161.872 45.5427 162.24 45.5432H166.978V50.6434H163.434C158.623 50.6434 155.475 47.8973 155.475 43.0969V33.4542H151.145V29.0311H153.861C155.129 29.0311 155.866 28.2911 155.866 27.0669V22.5117H160.855Z" fill="black"/>
<path d="M180.54 43.852V20.6255H186.311V42.0722C186.311 47.8642 183.468 50.6522 178.657 50.6522H171.939V45.552H178.807C179.266 45.552 179.707 45.3729 180.032 45.0541C180.358 44.7353 180.54 44.3029 180.54 43.852" fill="black"/>
<path d="M189.77 40.5711H195.327C195.634 43.9251 197.909 46.0612 201.583 46.0612C204.864 46.0612 207.14 44.7762 207.14 42.116C207.14 35.6805 190.682 40.1413 190.682 28.6455C190.686 23.713 195.017 20.2856 201.239 20.2856C207.713 20.2856 212.086 23.931 212.353 29.5511H206.826C206.565 26.935 204.475 25.1762 201.228 25.1762C198.21 25.1762 196.329 26.5492 196.329 28.6497C196.329 35.299 213 30.3267 213 42.0343C213 47.6103 208.32 50.9999 201.585 50.9999C194.63 50.9999 190.082 46.8808 189.776 40.5753" fill="black"/>
<path fill-rule="evenodd" clip-rule="evenodd" d="M33.0266 21.1675L28.7966 13.8944C27.1819 11.1179 23.1449 11.1179 21.5301 13.8944L3.93161 44.1537C2.31683 46.9301 4.3353 50.4007 7.56485 50.4007H15.9728L33.0266 21.1675Z" fill="black"/>
<path d="M39.9477 20.5319C41.2841 18.2602 44.625 18.2602 45.9614 20.5319L60.5257 45.2895C61.8621 47.5611 60.1916 50.4007 57.5189 50.4007H28.3902C25.7175 50.4007 24.0471 47.5611 25.3834 45.2895L39.9477 20.5319Z" fill="black"/>
</svg>
